<svg id="wifi" xmlns="http://www.w3.org/2000/svg" width="29" height="21.17" viewBox="0 0 29 21.17"><defs><style>.cls-1{fill:#231f20;}</style></defs><title>wifi</title><path class="cls-1" d="M14.51,27l-1.1-1.1a.7.7,0,0,1,.15-1.11,3.07,3.07,0,0,1,2.88,0,.7.7,0,0,1,.15,1.11L15.49,27A.7.7,0,0,1,14.51,27Z" transform="translate(-0.5 -5.99)"/><path class="cls-1" d="M19.2,23.26a1.56,1.56,0,0,1-1.9.21,4.61,4.61,0,0,0-4.59,0,1.56,1.56,0,0,1-1.9-.21h0a1.52,1.52,0,0,1,.27-2.38,7.68,7.68,0,0,1,7.86,0,1.52,1.52,0,0,1,.27,2.38Z" transform="translate(-0.5 -5.99)"/><path class="cls-1" d="M22.51,19.94a1.51,1.51,0,0,1-2,.16,9.21,9.21,0,0,0-11.07,0,1.51,1.51,0,0,1-2-.16h0a1.53,1.53,0,0,1,.16-2.31,12.27,12.27,0,0,1,14.7,0,1.53,1.53,0,0,1,.16,2.31Z" transform="translate(-0.5 -5.99)"/><path class="cls-1" d="M25.79,16.67a1.54,1.54,0,0,1-2.07.08,13.81,13.81,0,0,0-17.43,0,1.54,1.54,0,0,1-2.07-.08h0a1.52,1.52,0,0,1,.08-2.24,16.87,16.87,0,0,1,21.41,0,1.52,1.52,0,0,1,.08,2.24Z" transform="translate(-0.5 -5.99)"/><path class="cls-1" d="M29,13.4a1.53,1.53,0,0,1-2.08.07A18.41,18.41,0,0,0,3,13.48,1.53,1.53,0,0,1,1,13.4H1A1.53,1.53,0,0,1,1,11.17a21.47,21.47,0,0,1,28,0A1.53,1.53,0,0,1,29,13.4Z" transform="translate(-0.5 -5.99)"/></svg>