<?xml version="1.0" encoding="UTF-8" standalone="no"?>
<svg width="41px" height="41px" viewBox="0 0 41 41" version="1.1" xmlns="http://www.w3.org/2000/svg" xmlns:xlink="http://www.w3.org/1999/xlink">
    <!-- Generator: Sketch 41.2 (35397) - http://www.bohemiancoding.com/sketch -->
    <title>Arc</title>
    <desc>Created with Sketch.</desc>
    <defs>
        <polygon id="path-1" points="0 40.3632812 40 40.3632812 40 0.36328125 0 0.36328125"></polygon>
    </defs>
    <g stroke="none" stroke-width="1" fill="none" fill-rule="evenodd">
        <g transform="translate(0.492188, -0.576564)">
            <g transform="translate(0.480016, 0.407058)">
                <g transform="translate(20.000000, 20.500000) scale(1, -1) translate(-20.000000, -20.500000) ">
                    <g>
                        <g>
                            <mask id="mask-2" fill="white">
                                <use xlink:href="#path-1"></use>
                            </mask>
                            <g></g>
                            <g mask="url(#mask-2)">
                                <g transform="translate(1.250000, 16.000000)">
                                    <g transform="translate(0.123250, 0.161500)">
                                        <path d="M18.75,12.8632812 C12.2775,12.9070312 5.82375,10.2370312 1.08625,5.54328125 L1.07875,5.53453125 C-0.01125,4.44578125 -0.01125,2.77328125 1.11,1.66703125 C2.21875,0.55703125 3.88625,0.51953125 4.98375,1.61328125 C8.69875,5.25828125 13.6,7.30203125 18.77375,7.32453125 C23.81125,7.35703125 28.8025,5.26578125 32.51875,1.62078125 C33.61875,0.54453125 35.2975,0.56453125 36.4125,1.66703125 C36.95125,2.21703125 37.26375,2.93203125 37.26375,3.65703125 C37.26375,4.36203125 36.96625,4.99953125 36.43875,5.53453125 C31.70125,10.2120312 25.41625,12.8232812 18.75,12.8632812" fill="#3C3C3C"></path>
                                    </g>
                                </g>
                            </g>
                        </g>
                    </g>
                </g>
            </g>
        </g>
    </g>
</svg>