<?xml version="1.0" encoding="UTF-8" standalone="no"?>
<svg width="41px" height="41px" viewBox="0 0 41 41" version="1.1" xmlns="http://www.w3.org/2000/svg" xmlns:xlink="http://www.w3.org/1999/xlink">
    <!-- Generator: Sketch 41.2 (35397) - http://www.bohemiancoding.com/sketch -->
    <title>ArcDirectionCW</title>
    <desc>Created with Sketch.</desc>
    <defs>
        <polygon id="path-1" points="0 40 40 40 40 0 0 0"></polygon>
    </defs>
    <g stroke="none" stroke-width="1" fill="none" fill-rule="evenodd">
        <g transform="translate(0.452219, 0.237551)">
            <g transform="translate(0.500000, 0.500000)">
                <g transform="translate(20.000000, 20.000000) scale(1, -1) translate(-20.000000, -20.000000) ">
                    <g>
                        <g>
                            <mask id="mask-2" fill="white">
                                <use xlink:href="#path-1"></use>
                            </mask>
                            <g></g>
                            <g mask="url(#mask-2)">
                                <g transform="translate(3.750000, 2.500000)">
                                    <g transform="translate(0.797125, 0.350375)">
                                        <path d="M16.25,1.25 L16.25625,4.78875 C17.18875,4.81375 18.1175,4.97125 19.03375,5.1725 C20.21625,5.46375 21.37875,5.91125 22.465,6.5025 C23.66875,7.16 24.7975,7.97375 25.80875,8.96375 C31.58875,14.63 31.8025,23.80625 26.1425,29.57875 C20.48375,35.35 11.1775,35.44625 5.3975,29.78 C1.34,25.8025 -0.205,19.64 1.69,14.27 C2.22875,12.74375 3.905,11.9425 5.43625,12.495 C6.96,13.03 7.77125,14.69375 7.23125,16.2125 C6.0975,19.43875 7.08,23.19875 9.5125,25.58375 C12.97625,28.9825 18.5625,28.92625 21.9525,25.46875 C25.34875,22.00375 25.17,16.54625 21.7025,13.15 C20.22125,11.69375 18.3225,10.86 16.36,10.67875 L16.39125,14.13125 C16.405,14.925 15.4125,15.3475 14.84375,14.7925 L11.495,11.51875 L8.355,8.44125 C8.1925,8.28 8.10625,8.07 8.0875,7.85875 C8.0675,7.61 8.14125,7.34625 8.33,7.1475 L8.43125,7.04375 L9.2775,6.1775 L14.68125,0.6275 C15.23375,0.06125 16.23375,0.4575 16.25,1.25" fill="#444443"></path>
                                    </g>
                                </g>
                            </g>
                        </g>
                    </g>
                </g>
            </g>
        </g>
    </g>
</svg>