<?xml version="1.0" encoding="UTF-8" standalone="no"?>
<svg width="41px" height="41px" viewBox="0 0 41 41" version="1.1" xmlns="http://www.w3.org/2000/svg" xmlns:xlink="http://www.w3.org/1999/xlink">
    <!-- Generator: Sketch 41.2 (35397) - http://www.bohemiancoding.com/sketch -->
    <title>ArcDirectionCCW</title>
    <desc>Created with Sketch.</desc>
    <defs>
        <polygon id="path-1" points="0 40 40 40 40 0 0 0"></polygon>
    </defs>
    <g stroke="none" stroke-width="1" fill="none" fill-rule="evenodd">
        <g transform="translate(0.452219, 0.237551)">
            <g transform="translate(0.500000, 0.500000)">
                <g transform="translate(20.000000, 20.000000) scale(1, -1) translate(-20.000000, -20.000000) ">
                    <g>
                        <g>
                            <mask id="mask-2" fill="white">
                                <use xlink:href="#path-1"></use>
                            </mask>
                            <g></g>
                            <g mask="url(#mask-2)">
                                <g transform="translate(3.750000, 2.500000)">
                                    <g transform="translate(0.701875, 0.350375)">
                                        <path d="M15,1.25 L14.99375,4.78875 C14.06125,4.81375 13.1325,4.97125 12.21625,5.1725 C11.03375,5.46375 9.87125,5.91125 8.785,6.5025 C7.58125,7.16 6.4525,7.97375 5.44125,8.96375 C-0.33875,14.63 -0.5525,23.80625 5.1075,29.57875 C10.76625,35.35 20.0725,35.44625 25.85375,29.78 C29.91,25.8025 31.45375,19.64 29.56,14.27 C29.02125,12.74375 27.345,11.9425 25.81375,12.495 C24.29125,13.03 23.47875,14.69375 24.02,16.2125 C25.1525,19.43875 24.17125,23.19875 21.7375,25.58375 C18.27375,28.9825 12.6875,28.92625 9.2975,25.46875 C5.90125,22.00375 6.08,16.54625 9.5475,13.15 C11.02875,11.69375 12.9275,10.86 14.89,10.67875 L14.85875,14.13125 C14.845,14.925 15.8375,15.3475 16.40625,14.7925 L19.755,11.51875 L22.89375,8.44125 C23.0575,8.28 23.14375,8.07 23.1625,7.85875 C23.1825,7.61 23.10875,7.34625 22.92,7.1475 L22.81875,7.04375 L21.97125,6.1775 L16.56875,0.6275 C16.01625,0.06125 15.01625,0.4575 15,1.25" fill="#444443"></path>
                                    </g>
                                </g>
                            </g>
                        </g>
                    </g>
                </g>
            </g>
        </g>
    </g>
</svg>