<?xml version="1.0" encoding="UTF-8" standalone="no"?>
<svg width="41px" height="41px" viewBox="0 0 41 41" version="1.1" xmlns="http://www.w3.org/2000/svg" xmlns:xlink="http://www.w3.org/1999/xlink">
    <!-- Generator: Sketch 41.2 (35397) - http://www.bohemiancoding.com/sketch -->
    <title>Attribute</title>
    <desc>Created with Sketch.</desc>
    <defs>
        <polygon id="path-1" points="0 40.625 40 40.625 40 0.625 0 0.625"></polygon>
    </defs>
    <g stroke="none" stroke-width="1" fill="none" fill-rule="evenodd">
        <g transform="translate(-0.351562, -0.627346)">
            <g transform="translate(1.000000, 1.000000)">
                <g transform="translate(20.000000, 20.500000) scale(1, -1) translate(-20.000000, -20.500000) ">
                    <g>
                        <g>
                            <mask id="mask-2" fill="white">
                                <use xlink:href="#path-1"></use>
                            </mask>
                            <g></g>
                            <g mask="url(#mask-2)">
                                <g transform="translate(-0.250000, 1.250000)">
                                    <g stroke-width="1" fill="none" transform="translate(0.075125, 9.043250)">
                                        <path d="M1.5,3.375 C0.765,3.375 0.175,2.69125 0.175,1.83375 C0.175,0.97 0.765,0.27375 1.5,0.27375 L12.49,0.27375 C13.22125,0.27375 13.825,0.97 13.825,1.83375 C13.825,2.69125 13.22125,3.375 12.49,3.375" fill="#8C8C8C"></path>
                                    </g>
                                    <g stroke-width="1" fill="none" transform="translate(0.058000, 25.804125)">
                                        <path d="M1.5,3.375 C0.775,3.375 0.1925,2.69125 0.1925,1.83375 C0.1925,0.97 0.775,0.27375 1.5,0.27375 L12.84125,0.27375 C13.56375,0.27375 12.88625,1.05625 12.88625,1.91875 C12.88625,2.7775 13.56375,3.375 12.84125,3.375" fill="#8C8C8C"></path>
                                    </g>
                                    <g stroke-width="1" fill="none" transform="translate(29.431125, 17.666875)">
                                        <path d="M1.5,3.375 C0.765,3.375 0.175,2.69125 0.175,1.83375 C0.175,0.97 0.765,0.2725 1.5,0.2725 L9.43375,0.2725 C10.16625,0.2725 10.76875,0.97 10.76875,1.83375 C10.76875,2.69125 10.16625,3.375 9.43375,3.375" fill="#444443"></path>
                                    </g>
                                    <g stroke-width="1" fill="none" transform="translate(12.898875, 0.017750)">
                                        <path d="M0,38.125 L0,0.625 C0,0.625 17.37,2.54125 17.37,18.55 C17.37,36.325 3.3325,38.125 0,38.125 Z" stroke="#8C8C8C" stroke-width="2.5"></path>
                                    </g>
                                    <polygon fill="#3C3C3C" points="40.25 9.30875 14.13625 9.30875 14.13625 29.1775 40.25 29.1775 40.25 9.30875"></polygon>
                                    <g stroke-width="1" fill="none" transform="translate(17.750000, 11.285000)">
                                        <path d="M5,10.875 L4.96,10.875 L3.43125,5.5625 L6.51,5.5625 L5,10.875 Z M3.98,14.52125 C4.13875,15.05 4.35125,15.52125 4.97875,15.52125 C5.62625,15.52125 5.8625,15.03125 6,14.52125 L9.78375,1.24875 C9.92,0.7775 9.39125,0.2675 8.84125,0.2675 C8.235,0.2675 7.92125,0.7775 7.78375,1.24875 L7.0575,3.6025 L2.8825,3.6025 L2.13625,1.24875 C2,0.7775 1.68625,0.2675 1.07875,0.2675 C0.52875,0.2675 3.13624127e-13,0.7775 0.1375,1.24875 L3.98,14.52125 L3.98,14.52125 Z" fill="#FFFFFF"></path>
                                    </g>
                                    <g stroke-width="1" fill="none" transform="translate(26.314500, 11.470000)">
                                        <path d="M2.5,13.375 L2.5,12.67 C2.5,12.0425 2.225,11.68875 1.51875,11.68875 C0.81375,11.68875 0.54125,12.0425 0.54125,12.67 L0.54125,15.33625 L10.22625,15.33625 L10.22625,12.67 C10.22625,12.0425 9.95125,11.68875 9.245,11.68875 C8.53875,11.68875 8.26375,12.0425 8.26375,12.67 L8.26375,13.375 L6.36375,13.375 L6.36375,1.06375 C6.36375,0.43625 6.08875,0.0825 5.3825,0.0825 C4.675,0.0825 4.40125,0.43625 4.40125,1.06375 L4.40125,13.375 L2.5,13.375 Z" fill="#FFFFFF"></path>
                                    </g>
                                </g>
                            </g>
                        </g>
                    </g>
                </g>
            </g>
        </g>
    </g>
</svg>