<?xml version="1.0" encoding="UTF-8" standalone="no"?>
<svg width="41px" height="41px" viewBox="0 0 41 41" version="1.1" xmlns="http://www.w3.org/2000/svg" xmlns:xlink="http://www.w3.org/1999/xlink">
    <!-- Generator: Sketch 41.2 (35397) - http://www.bohemiancoding.com/sketch -->
    <title>AttrOverwriteLbr</title>
    <desc>Created with Sketch.</desc>
    <defs>
        <polygon id="path-1" points="0 40 40 40 40 0 0 0"></polygon>
    </defs>
    <g stroke="none" stroke-width="1" fill="none" fill-rule="evenodd">
        <g transform="translate(0.194406, 0.055910)">
            <g transform="translate(0.628906, 0.590820)">
                <g transform="translate(20.000000, 20.000000) scale(1, -1) translate(-20.000000, -20.000000) ">
                    <g>
                        <g>
                            <mask id="mask-2" fill="white">
                                <use xlink:href="#path-1"></use>
                            </mask>
                            <g></g>
                            <g mask="url(#mask-2)">
                                <g transform="translate(0.000000, 0.000625)" fill="#675449">
                                    <path d="M40,20 C40,8.955 31.04625,0 20,0 C8.955,0 0,8.955 0,20 C0,31.045 8.955,40 20,40 C31.04625,40 40,31.045 40,20"></path>
                                </g>
                                <g transform="translate(11.673625, 6.779750)" fill="#FFCD00">
                                    <path d="M6.25,16.25 L2.91625,16.25 C1.7925,16.25 0.75375,16.77 0.75375,18.32625 C0.75375,19.88625 1.7925,20.40375 2.91625,20.40375 L6.25,20.40375 L6.25,23.56375 C6.25,24.94875 6.7675,25.72875 8.325,25.72875 C9.885,25.72875 10.405,24.94875 10.405,23.56375 L10.405,20.40375 L13.73625,20.40375 C14.86125,20.40375 15.9,19.88625 15.9,18.32625 C15.9,16.77 14.86125,16.25 13.73625,16.25 L10.405,16.25 L10.405,10.1925 L13.73625,10.1925 C14.86125,10.1925 15.9,9.6725 15.9,8.115 C15.9,6.555 14.86125,6.0375 13.73625,6.0375 L10.405,6.0375 L10.405,2.87875 C10.405,1.49375 9.885,0.7125 8.325,0.7125 C6.7675,0.7125 6.25,1.49375 6.25,2.87875 L6.25,6.0375 L2.91625,6.0375 C1.7925,6.0375 0.75375,6.555 0.75375,8.115 C0.75375,9.6725 1.7925,10.1925 2.91625,10.1925 L6.25,10.1925 L6.25,16.25 Z"></path>
                                </g>
                            </g>
                        </g>
                    </g>
                </g>
            </g>
        </g>
    </g>
</svg>