<?xml version="1.0" encoding="UTF-8" standalone="no"?>
<!-- Created with Inkscape (http://www.inkscape.org/) -->

<svg
   xmlns:dc="http://purl.org/dc/elements/1.1/"
   xmlns:cc="http://creativecommons.org/ns#"
   xmlns:rdf="http://www.w3.org/1999/02/22-rdf-syntax-ns#"
   xmlns:svg="http://www.w3.org/2000/svg"
   xmlns="http://www.w3.org/2000/svg"
   xmlns:inkscape="http://www.inkscape.org/namespaces/inkscape"
   version="1.1"
   width="40"
   height="40"
   id="svg2"
   xml:space="preserve"><metadata
     id="metadata8"><rdf:RDF><cc:Work
         rdf:about=""><dc:format>image/svg+xml</dc:format><dc:type
           rdf:resource="http://purl.org/dc/dcmitype/StillImage" /></cc:Work></rdf:RDF></metadata><defs
     id="defs6"><clipPath
       id="clipPath20"><path
         d="M 0,32 32,32 32,0 0,0 0,32 z"
         inkscape:connector-curvature="0"
         id="path22" /></clipPath><clipPath
       id="clipPath36"><path
         d="M 0,32 32,32 32,0 0,0 0,32 z"
         inkscape:connector-curvature="0"
         id="path38" /></clipPath><clipPath
       id="clipPath52"><path
         d="M 0,32 32,32 32,0 0,0 0,32 z"
         inkscape:connector-curvature="0"
         id="path54" /></clipPath></defs><g
     transform="matrix(1.25,0,0,-1.25,0,40)"
     id="g10"><g
       transform="translate(3.5253,27.4347)"
       id="g12"><path
         d="M 0,0 13.631,0 0,0 z"
         inkscape:connector-curvature="0"
         id="path14"
         style="fill:#8a8a89;fill-opacity:1;fill-rule:nonzero;stroke:none" /></g><g
       id="g16"><g
         clip-path="url(#clipPath20)"
         id="g18"><g
           transform="translate(3.5254,27.4346)"
           id="g24"><path
             d="M 0,0 13.631,0"
             inkscape:connector-curvature="0"
             id="path26"
             style="fill:none;stroke:#2b74b9;stroke-width:4.5;stroke-linecap:round;stroke-linejoin:miter;stroke-miterlimit:10;stroke-opacity:1;stroke-dasharray:none" /></g></g></g><g
       transform="translate(17.2071,18.0621)"
       id="g28"><path
         d="M 0,0 -0.006,8.886 0,0 z"
         inkscape:connector-curvature="0"
         id="path30"
         style="fill:#2b74b9;fill-opacity:1;fill-rule:nonzero;stroke:none" /></g><g
       id="g32"><g
         clip-path="url(#clipPath36)"
         id="g34"><g
           transform="translate(17.2012,26.9482)"
           id="g40"><path
             d="M 0,0 0.006,-8.886"
             inkscape:connector-curvature="0"
             id="path42"
             style="fill:none;stroke:#2b74b9;stroke-width:4.5;stroke-linecap:round;stroke-linejoin:miter;stroke-miterlimit:10;stroke-opacity:1;stroke-dasharray:none" /></g></g></g><g
       transform="translate(17.2813,17.7813)"
       id="g44"><path
         d="M 0,0 9.969,-12.813"
         inkscape:connector-curvature="0"
         id="path46"
         style="fill:#8a8a89;fill-opacity:1;fill-rule:nonzero;stroke:none" /></g><g
       id="g48"><g
         clip-path="url(#clipPath52)"
         id="g50"><g
           transform="translate(17.2813,17.7813)"
           id="g56"><path
             d="M 0,0 9.969,-12.813"
             inkscape:connector-curvature="0"
             id="path58"
             style="fill:none;stroke:#2b74b9;stroke-width:4.5;stroke-linecap:round;stroke-linejoin:miter;stroke-miterlimit:10;stroke-opacity:1;stroke-dasharray:none" /></g><g
           transform="translate(26.5469,9.2383)"
           id="g60"><path
             d="M 0,0 C 2.521,0.438 4.942,-1.248 5.386,-3.802 5.818,-6.314 4.108,-8.732 1.587,-9.17 -0.943,-9.607 -3.343,-7.902 -3.777,-5.387 -4.22,-2.835 -2.529,-0.436 0,0"
             inkscape:connector-curvature="0"
             id="path62"
             style="fill:#42ab3d;fill-opacity:1;fill-rule:nonzero;stroke:none" /></g><g
           transform="translate(3.8477,31.9307)"
           id="g64"><path
             d="M 0,0 C 2.521,0.438 4.942,-1.248 5.386,-3.802 5.818,-6.314 4.108,-8.732 1.587,-9.17 -0.943,-9.607 -3.343,-7.902 -3.777,-5.387 -4.22,-2.835 -2.529,-0.436 0,0"
             inkscape:connector-curvature="0"
             id="path66"
             style="fill:#42ab3d;fill-opacity:1;fill-rule:nonzero;stroke:none" /></g><g
           transform="translate(5.0142,10.8896)"
           id="g68"><path
             d="m 0,0 -0.04,0 -1.57,-5.454 3.16,0 L 0,0 z m -1.047,3.743 c 0.161,0.545 0.383,1.028 1.027,1.028 0.664,0 0.906,-0.503 1.047,-1.028 L 4.911,-9.883 c 0.141,-0.484 -0.402,-1.007 -0.966,-1.007 -0.624,0 -0.945,0.523 -1.087,1.007 l -0.745,2.415 -4.287,0 -0.765,-2.415 c -0.141,-0.484 -0.463,-1.007 -1.086,-1.007 -0.564,0 -1.108,0.523 -0.967,1.007 l 3.945,13.626 z"
             inkscape:connector-curvature="0"
             id="path70"
             style="fill:#444443;fill-opacity:1;fill-rule:nonzero;stroke:none" /></g></g></g></g></svg>