<?xml version="1.0" encoding="UTF-8" standalone="no"?>
<svg width="42px" height="42px" viewBox="0 0 42 42" version="1.1" xmlns="http://www.w3.org/2000/svg" xmlns:xlink="http://www.w3.org/1999/xlink">
    <!-- Generator: Sketch 41.2 (35397) - http://www.bohemiancoding.com/sketch -->
    <title>Shape</title>
    <desc>Created with Sketch.</desc>
    <defs></defs>
    <g stroke="none" stroke-width="1" fill="none" fill-rule="evenodd">
        <g transform="translate(-0.289187, -0.194480)">
            <polygon fill="#2B7F3E" points="1.04375 40.972656 41.04375 40.972656 41.04375 0.972656 1.04375 0.972656"></polygon>
            <g transform="translate(3.843750, 3.972656)" fill="#FEFEFE">
                <path d="M2.2,3.8 C1.2,3.8 0.4,3 0.4,2 C0.4,1 1.2,0.2 2.2,0.2 C3.2,0.2 3.9,1.1 3.9,2 C3.9,2.9 3.1,3.8 2.2,3.8"></path>
                <path d="M7.2,3.8 C6.2,3.8 5.4,3 5.4,2 C5.4,1 6.2,0.2 7.2,0.2 C8.2,0.2 8.9,1.1 8.9,2 C8.9,2.9 8.1,3.8 7.2,3.8"></path>
                <path d="M12.2,3.8 C11.2,3.8 10.4,3 10.4,2 C10.4,1 11.2,0.2 12.2,0.2 C13.2,0.2 14,1 14,2 C14,3 13.1,3.8 12.2,3.8"></path>
                <path d="M17.2,3.8 C16.2,3.8 15.4,3 15.4,2 C15.4,1 16.2,0.2 17.2,0.2 C18.2,0.2 19,1 19,2 C19,3 18.1,3.8 17.2,3.8"></path>
                <path d="M22.2,3.8 C21.2,3.8 20.4,3 20.4,2 C20.4,1 21.2,0.2 22.2,0.2 C23.2,0.2 24,1 24,2 C24,3 23.1,3.8 22.2,3.8"></path>
                <path d="M27.2,3.8 C26.2,3.8 25.4,3 25.4,2 C25.4,1 26.2,0.2 27.2,0.2 C28.2,0.2 29,1 29,2 C29,3 28.1,3.8 27.2,3.8"></path>
                <path d="M32.2,3.8 C31.2,3.8 30.4,3 30.4,2 C30.4,1 31.2,0.2 32.2,0.2 C33.2,0.2 34,1 34,2 C34,3 33.1,3.8 32.2,3.8"></path>
                <path d="M2.2,8.8 C1.2,8.8 0.4,8 0.4,7 C0.4,6 1.2,5.2 2.2,5.2 C3.2,5.2 3.9,6.1 3.9,7 C3.9,7.9 3.1,8.8 2.2,8.8"></path>
                <path d="M32.2,8.8 C31.2,8.8 30.4,8 30.4,7 C30.4,6 31.2,5.2 32.2,5.2 C33.2,5.2 34,6 34,7 C34,8 33.1,8.8 32.2,8.8"></path>
                <path d="M2.2,13.8 C1.2,13.8 0.4,13 0.4,12 C0.4,11 1.2,10.2 2.2,10.2 C3.2,10.2 4,11 4,12 C4,13 3.1,13.8 2.2,13.8"></path>
                <path d="M12.2,13.8 C11.2,13.8 10.4,13 10.4,12 C10.4,11 11.2,10.2 12.2,10.2 C13.2,10.2 14,11 14,12 C14,13 13.1,13.8 12.2,13.8"></path>
                <path d="M17.2,13.8 C16.2,13.8 15.4,13 15.4,12 C15.4,11 16.2,10.2 17.2,10.2 C18.2,10.2 19,11 19,12 C19,13 18.1,13.8 17.2,13.8"></path>
                <path d="M22.2,13.8 C21.2,13.8 20.4,13 20.4,12 C20.4,11 21.2,10.2 22.2,10.2 C23.2,10.2 24,11 24,12 C24,13 23.1,13.8 22.2,13.8"></path>
                <path d="M32.2,13.8 C31.2,13.8 30.4,13 30.4,12 C30.4,11 31.2,10.2 32.2,10.2 C33.2,10.2 34,11 34,12 C34,13 33.1,13.8 32.2,13.8"></path>
                <path d="M2.2,18.8 C1.2,18.8 0.4,18 0.4,17 C0.4,16 1.2,15.2 2.2,15.2 C3.2,15.2 4,16 4,17 C4,18 3.1,18.8 2.2,18.8"></path>
                <path d="M12.2,18.8 C11.2,18.8 10.4,18 10.4,17 C10.4,16 11.2,15.2 12.2,15.2 C13.2,15.2 14,16 14,17 C14,18 13.1,18.8 12.2,18.8"></path>
                <path d="M17.2,18.8 C16.2,18.8 15.4,18 15.4,17 C15.4,16 16.2,15.2 17.2,15.2 C18.2,15.2 19,16 19,17 C19,18 18.1,18.8 17.2,18.8"></path>
                <path d="M22.2,18.8 C21.2,18.8 20.4,18 20.4,17 C20.4,16 21.2,15.2 22.2,15.2 C23.2,15.2 24,16 24,17 C24,18 23.1,18.8 22.2,18.8"></path>
                <path d="M32.2,18.8 C31.2,18.8 30.4,18 30.4,17 C30.4,16 31.2,15.2 32.2,15.2 C33.2,15.2 34,16 34,17 C34,18 33.1,18.8 32.2,18.8"></path>
                <path d="M2.2,23.8 C1.2,23.8 0.4,23 0.4,22 C0.4,21 1.2,20.2 2.2,20.2 C3.2,20.2 4,21 4,22 C4,23 3.1,23.8 2.2,23.8"></path>
                <path d="M12.2,23.8 C11.2,23.8 10.4,23 10.4,22 C10.4,21 11.2,20.2 12.2,20.2 C13.2,20.2 14,21 14,22 C14,23 13.1,23.8 12.2,23.8"></path>
                <path d="M17.2,23.8 C16.2,23.8 15.4,23 15.4,22 C15.4,21 16.2,20.2 17.2,20.2 C18.2,20.2 19,21 19,22 C19,23 18.1,23.8 17.2,23.8"></path>
                <path d="M22.2,23.8 C21.2,23.8 20.4,23 20.4,22 C20.4,21 21.2,20.2 22.2,20.2 C23.2,20.2 24,21 24,22 C24,23 23.1,23.8 22.2,23.8"></path>
                <path d="M32.2,23.8 C31.2,23.8 30.4,23 30.4,22 C30.4,21 31.2,20.2 32.2,20.2 C33.2,20.2 34,21 34,22 C34,23 33.1,23.8 32.2,23.8"></path>
                <path d="M2.2,28.8 C1.2,28.8 0.4,28 0.4,27 C0.4,26 1.2,25.2 2.2,25.2 C3.2,25.2 4,26 4,27 C4,28 3.1,28.8 2.2,28.8"></path>
                <path d="M32.2,28.8 C31.2,28.8 30.4,28 30.4,27 C30.4,26 31.2,25.2 32.2,25.2 C33.2,25.2 34,26 34,27 C34,28 33.1,28.8 32.2,28.8"></path>
                <path d="M2.2,33.8 C1.2,33.8 0.4,33 0.4,32 C0.4,31 1.2,30.2 2.2,30.2 C3.2,30.2 4,31 4,32 C4,33 3.1,33.8 2.2,33.8"></path>
                <path d="M7.2,33.8 C6.2,33.8 5.4,33 5.4,32 C5.4,31 6.2,30.2 7.2,30.2 C8.2,30.2 9,31 9,32 C9,33 8.1,33.8 7.2,33.8"></path>
                <path d="M12.2,33.8 C11.2,33.8 10.4,33 10.4,32 C10.4,31 11.2,30.2 12.2,30.2 C13.2,30.2 14,31 14,32 C14,33 13.1,33.8 12.2,33.8"></path>
                <path d="M17.2,33.8 C16.2,33.8 15.4,33 15.4,32 C15.4,31 16.2,30.2 17.2,30.2 C18.2,30.2 19,31 19,32 C19,33 18.1,33.8 17.2,33.8"></path>
                <path d="M22.2,33.8 C21.2,33.8 20.4,33 20.4,32 C20.4,31 21.2,30.2 22.2,30.2 C23.2,30.2 24,31 24,32 C24,33 23.1,33.8 22.2,33.8"></path>
                <path d="M27.2,33.8 C26.2,33.8 25.4,33 25.4,32 C25.4,31 26.2,30.2 27.2,30.2 C28.2,30.2 29,31 29,32 C29,33 28.1,33.8 27.2,33.8"></path>
                <path d="M32.2,33.8 C31.2,33.8 30.4,33 30.4,32 C30.4,31 31.2,30.2 32.2,30.2 C33.2,30.2 34,31 34,32 C34,33 33.1,33.8 32.2,33.8"></path>
            </g>
        </g>
    </g>
</svg>