<?xml version="1.0" encoding="UTF-8" standalone="no"?>
<svg width="40px" height="40px" viewBox="0 0 40 40" version="1.1" xmlns="http://www.w3.org/2000/svg" xmlns:xlink="http://www.w3.org/1999/xlink">
    <!-- Generator: Sketch 41.2 (35397) - http://www.bohemiancoding.com/sketch -->
    <title>Brd</title>
    <desc>Created with Sketch.</desc>
    <defs>
        <polygon id="path-1" points="0 40 40 40 40 0 0 0"></polygon>
    </defs>
    <g stroke="none" stroke-width="1" fill="none" fill-rule="evenodd">
        <g>
            <g>
                <g>
                    <g transform="translate(20.000000, 20.000000) scale(1, -1) translate(-20.000000, -20.000000) ">
                        <g>
                            <g>
                                <mask id="mask-2" fill="white">
                                    <use xlink:href="#path-1"></use>
                                </mask>
                                <g></g>
                                <g mask="url(#mask-2)">
                                    <g transform="translate(3.750000, 0.000000)">
                                        <g stroke-width="1" fill="none" transform="translate(2.828625, 0.000000)">
                                            <path d="M26.5,33.75 C26.5,34.77125 26.115,35.69375 25.44125,36.40625 C24.76,37.1225 23.85125,37.4975 22.89375,37.4975 L6.18625,37.4975 C5.21875,37.4975 4.31875,37.1225 3.65,36.40625 C2.96875,35.69375 2.595,34.77125 2.595,33.75 L2.595,6.245 C2.595,4.185 4.2075,2.5025 6.18625,2.5025 L12.18,2.5025 L16.89375,2.5025 L19.31,2.5025 L19.33,2.5025 L19.33,10.18125 L26.5,10.18125 L26.5,33.75 Z M28.88,9.9125 C28.84125,9.2825 28.59375,8.6875 28.18125,8.2375 L21.01375,0.7325 C20.55125,0.26625 19.96,0 19.31,0 L16.89375,0 L12.18,0 L6.18625,0 C2.8675,0 0.20875,2.80125 0.20875,6.245 L0.20875,33.75 C0.20875,35.485 0.885,37.0525 1.9625,38.18375 C3.05,39.29875 4.52875,40 6.18625,40 L22.89375,40 C24.55,40 26.0475,39.29875 27.12125,38.18375 C28.19875,37.0525 28.88,35.485 28.88,33.75 L28.88,10.18125 L28.88,9.9125 Z" fill="#3C3C3C"></path>
                                        </g>
                                        <polygon fill="#2A7F26" points="29.32875 15.205 0.79125 15.205 0.79125 32.705 29.32875 32.705 29.32875 15.205"></polygon>
                                        <g stroke-width="1" fill="none" transform="translate(3.487750, 18.293125)">
                                            <path d="M1.5,1.5 L4.10875,1.5 C5.1525,1.5 5.76125,1.96375 5.76125,3.06625 C5.76125,4.28375 5.42875,4.965 4.10875,4.965 L1.5,4.965 L1.5,1.5 Z M1.5,6.415 L4.10875,6.415 C5.1525,6.415 5.76125,6.87875 5.76125,7.98 C5.76125,9.1975 5.42875,9.87875 4.10875,9.87875 L1.5,9.87875 L1.5,6.415 Z M0.05,11.32875 L4.10875,11.32875 C6.24,11.32875 7.21125,10.02375 7.21125,7.98 C7.21125,7.14 7.0225,6.37125 6.255,5.69 C7.08,4.9075 7.21125,4.13875 7.21125,3.06625 C7.21125,1.16625 5.95,0.05125 4.10875,0.05125 L0.05,0.05125 L0.05,11.32875 L0.05,11.32875 Z" fill="#FFFFFF"></path>
                                        </g>
                                        <g stroke-width="1" fill="none" transform="translate(12.187125, 18.161250)">
                                            <path d="M1.5,7.75 L4.7175,7.75 C5.12375,7.75 5.7625,7.77875 5.7625,8.35875 L5.7625,9.35875 C5.7625,9.93875 5.1675,10.01125 4.7325,10.01125 L1.5,10.01125 L1.5,7.75 Z M1.5,0.9075 C1.5,0.445 1.29625,0.18375 0.775,0.18375 C0.2525,0.18375 0.05,0.445 0.05,0.9075 L0.05,11.46125 L4.92125,11.46125 C6.0675,11.46125 7.2125,10.64875 7.2125,9.35875 L7.2125,8.35875 C7.2125,6.995 6.0825,6.3 4.92125,6.3 L3.5875,6.3 L6.84875,1.63125 C7.0075,1.415 7.2125,1.14 7.2125,0.86375 C7.2125,0.45875 6.8775,0.18375 6.4725,0.18375 C6.1825,0.18375 5.99375,0.35625 5.835,0.58875 L1.83375,6.3 L1.5,6.3 L1.5,0.9075 Z" fill="#FFFFFF"></path>
                                        </g>
                                        <g stroke-width="1" fill="none" transform="translate(19.567875, 18.293125)">
                                            <path d="M3.75,1.5 L4.02625,1.5 C4.63625,1.5 4.78,1.57375 5.04125,2.10875 L6.31625,4.69 C6.4775,5.0225 6.59125,5.27 6.59125,5.6325 C6.59125,6.125 6.4325,6.4 6.23,6.82 L5.02625,9.27 C4.72125,9.89375 4.5925,9.87875 3.92625,9.87875 L3.75,9.87875 L3.75,1.5 Z M2.3025,9.87875 L1.765,9.87875 C1.28625,9.87875 0.88125,10.05375 0.88125,10.60375 C0.88125,11.12625 1.2725,11.32875 1.72125,11.32875 L4.1425,11.32875 C5.27375,11.32875 5.8375,10.865 6.33,9.87875 L7.6075,7.3275 C7.895,6.73375 8.0425,6.31375 8.0425,5.64625 C8.0425,5.0675 7.88375,4.57375 7.6225,4.0525 L6.30125,1.41375 C5.79625,0.38375 5.14125,0.05125 4.01125,0.05125 L1.60625,0.05125 C1.2275,0.05125 0.88125,0.25375 0.88125,0.77625 C0.88125,1.2975 1.2275,1.5 1.60625,1.5 L2.3025,1.5 L2.3025,9.87875 Z" fill="#FFFFFF"></path>
                                        </g>
                                    </g>
                                </g>
                            </g>
                        </g>
                    </g>
                </g>
            </g>
        </g>
    </g>
</svg>