<?xml version="1.0" encoding="UTF-8" standalone="no"?>
<svg width="41px" height="40px" viewBox="0 0 41 40" version="1.1" xmlns="http://www.w3.org/2000/svg" xmlns:xlink="http://www.w3.org/1999/xlink">
    <!-- Generator: Sketch 41.2 (35397) - http://www.bohemiancoding.com/sketch -->
    <title>Cam</title>
    <desc>Created with Sketch.</desc>
    <defs>
        <polygon id="path-1" points="0 40 40 40 40 0 0 0"></polygon>
    </defs>
    <g stroke="none" stroke-width="1" fill="none" fill-rule="evenodd">
        <g transform="translate(-305.000000, -17.000000)">
            <g transform="translate(305.828125, 17.000000)">
                <g>
                    <g transform="translate(20.000000, 20.000000) scale(1, -1) translate(-20.000000, -20.000000) ">
                        <g>
                            <g>
                                <mask id="mask-2" fill="white">
                                    <use xlink:href="#path-1"></use>
                                </mask>
                                <g></g>
                                <g mask="url(#mask-2)">
                                    <g transform="translate(-0.250000, 4.750000)">
                                        <g stroke-width="1" fill="none" transform="translate(7.776875, 5.865250)">
                                            <path d="M0.406455856,21.3069871 C1.13560717,23.363201 3.09040519,24.83875 5.38875,24.83875 L7.0075,24.83875 L25.48375,24.83875 L27.10375,24.83875 C30.03,24.83875 32.4,22.455 32.4,19.525 L32.4,5.895 C32.4,3.2527311 30.464372,1.06067948 27.9318298,0.663094687 C28.1261726,1.21403461 28.231875,1.80654485 28.231875,2.423375 L28.231875,16.055875 C28.231875,18.987125 25.864375,21.369625 22.935625,21.369625 L21.315625,21.369625 L2.839375,21.369625 L1.220625,21.369625 C0.943717779,21.369625 0.671815561,21.3482247 0.406455856,21.3069871 Z" fill="#3C3C3C"></path>
                                        </g>
                                        <g stroke-width="1" fill="none" transform="translate(3.116250, 2.234875)"></g>
                                        <polygon fill="#3FABE2" points="27.04625 1.5 7.515 1.5 7.515 20.7975 27.04625 20.7975 27.04625 1.5"></polygon>
                                        <g stroke-width="1" fill="none" transform="translate(0.029250, 0.130375)">
                                            <path d="M5.25,17.5 C4.18125,17.5 3.31625,18.37 3.31625,19.44375 C3.31625,20.505 4.18125,21.38 5.25,21.38 C6.3225,21.38 7.1875,20.505 7.1875,19.44375 C7.1875,18.37 6.3225,17.5 5.25,17.5 M16.37,4.52125 C12.13,4.52125 8.6675,7.98625 8.6675,12.2375 C8.6675,16.50125 12.13,19.93 16.37,19.93 C20.62125,19.93 24.06875,16.50125 24.06875,12.2375 C24.06875,7.98625 20.62125,4.52125 16.37,4.52125 M27.22375,24.36125 L25.60375,24.36125 L7.1275,24.36125 L5.50875,24.36125 C2.5875,24.36125 0.22125,21.97875 0.22125,19.0475 L0.22125,5.41625 C0.22125,2.49375 2.5875,0.12125 5.52,0.12125 L27.22375,0.12125 C30.15125,0.12125 32.52,2.49375 32.52,5.41625 L32.52,19.0475 C32.52,21.97875 30.15125,24.36125 27.22375,24.36125" fill="#3C3C3C"></path>
                                        </g>
                                        <g stroke-width="1" fill="none" transform="translate(24.014875, 27.234875)">
                                            <path d="M0.25,0 L0.0125,0.0825 L0.25,0 Z" fill="#686767"></path>
                                        </g>
                                    </g>
                                </g>
                            </g>
                        </g>
                    </g>
                </g>
            </g>
        </g>
    </g>
</svg>