<svg id="Layer_1" data-name="Layer 1" xmlns="http://www.w3.org/2000/svg" xmlns:xlink="http://www.w3.org/1999/xlink" width="41" height="41" viewBox="0 0 41 41"><defs><style>.cls-1{fill:#fff;}.cls-2{mask:url(#mask);}.cls-3{fill:#3c3c3c;}</style><mask id="mask" x="0.74" y="0.74" width="39.02" height="39.02" maskUnits="userSpaceOnUse"><g id="mask-2"><rect id="path-1" class="cls-1" x="0.74" y="0.74" width="39.02" height="39.02"/></g></mask></defs><title>Change</title><g class="cls-2"><path class="cls-3" d="M38.26,10.18c.57-.49.92-.28,1,.13.89,4.71-.07,7.19-3.35,10.47a11.36,11.36,0,0,1-12.39,2.46L8.63,38.13a4,4,0,0,1-5.65,0l-.47-.47a4,4,0,0,1,0-5.65L17.4,17.12A11.36,11.36,0,0,1,19.86,4.73C22.8,1.79,27.87.6,31.22,1.8c.71.25.69.68.49,1L24.45,9.59l1,5.44,5.74,1.77ZM7.52,35.4a1.61,1.61,0,1,0-2.32,0A1.64,1.64,0,0,0,7.52,35.4Z"/></g></svg>