<?xml version="1.0" encoding="UTF-8" standalone="no"?>
<svg width="41px" height="41px" viewBox="0 0 41 41" version="1.1" xmlns="http://www.w3.org/2000/svg" xmlns:xlink="http://www.w3.org/1999/xlink">
    <!-- Generator: Sketch 41.2 (35397) - http://www.bohemiancoding.com/sketch -->
    <title>Circle</title>
    <desc>Created with Sketch.</desc>
    <defs>
        <polygon id="path-1" points="0 40.3632812 40 40.3632812 40 0.36328125 0 0.36328125"></polygon>
    </defs>
    <g stroke="none" stroke-width="1" fill="none" fill-rule="evenodd">
        <g transform="translate(-0.007812, -0.576564)">
            <g transform="translate(0.230016, 0.907058)">
                <g transform="translate(20.000000, 20.500000) scale(1, -1) translate(-20.000000, -20.500000) ">
                    <g>
                        <g>
                            <mask id="mask-2" fill="white">
                                <use xlink:href="#path-1"></use>
                            </mask>
                            <g></g>
                            <g mask="url(#mask-2)">
                                <g transform="translate(1.250000, 2.250000)">
                                    <g transform="translate(0.710500, 0.242625)">
                                        <path d="M31.25,17.8632813 C31.25,17.8970313 31.23875,17.9670313 31.23875,18.0132813 C31.2225,17.0945313 31.17375,16.1782813 30.98,15.2832813 C29.75125,10.0032813 25.25,5.82453125 19.90125,5.10078125 C14.3475,4.33578125 8.6625,7.54203125 6.34375,12.6395313 C4.01875,17.7207813 5.3825,24.0520313 9.545,27.7707813 C13.7675,31.5532813 20.35625,32.1082813 25.15375,29.0745313 C28.90625,26.7045313 31.2225,22.4420313 31.23875,18.0132813 C31.25,18.2795313 31.25,18.5320313 31.25,18.8145313 C31.25,18.7432813 31.26625,18.6995313 31.26625,18.6282813 C31.26625,20.8357813 31.26625,19.5832813 31.26625,18.6282813 C31.26625,18.3820313 31.26625,18.1207813 31.25,17.8632813 M28.11125,32.3170313 C23.4225,35.5570313 17.19375,36.2595313 11.89,34.1882813 C10.73625,33.7457813 8.64625,32.5045313 7.575,31.7357813 C7.105,31.3995313 6.67125,30.9782813 6.25125,30.5970313 C4.59375,29.0032813 3.25625,27.1082813 2.32,24.9995313 C1.005,22.0057813 0.57125,18.6507813 1.06,15.3957813 C1.53125,12.3545313 2.82875,9.42453125 4.76,7.01703125 C4.7875,6.98703125 4.80375,6.94828125 4.83125,6.92328125 L4.83125,6.94328125 C4.8125,6.94328125 6.205,5.48328125 6.34375,5.35578125 C6.90625,4.81953125 7.51875,4.32703125 8.17625,3.86953125 C9.4425,2.95078125 10.83125,2.23328125 12.30375,1.68703125 L12.30375,1.66078125 C15.39,0.56078125 18.79875,0.31578125 22.0175,1.04828125 C24.97375,1.74453125 27.78,3.19078125 30.02,5.24953125 C33.49625,8.49453125 35.5625,13.1445313 35.59625,17.8970313 C35.62,23.5432813 32.75625,29.0982813 28.11125,32.3170313" fill="#3C3C3C"></path>
                                    </g>
                                </g>
                            </g>
                        </g>
                    </g>
                </g>
            </g>
        </g>
    </g>
</svg>