<?xml version="1.0" encoding="UTF-8" standalone="no"?>
<svg width="41px" height="41px" viewBox="0 0 41 41" version="1.1" xmlns="http://www.w3.org/2000/svg" xmlns:xlink="http://www.w3.org/1999/xlink">
    <!-- Generator: Sketch 41.2 (35397) - http://www.bohemiancoding.com/sketch -->
    <title>ClearFind</title>
    <desc>Created with Sketch.</desc>
    <defs>
        <polygon id="path-1" points="0 40 40 40 40 0 0 0"></polygon>
    </defs>
    <g stroke="none" stroke-width="1" fill="none" fill-rule="evenodd">
        <g transform="translate(0.452219, 0.237551)">
            <g>
                <g transform="translate(20.000000, 20.000000) scale(1, -1) translate(-20.000000, -20.000000) ">
                    <g transform="translate(0.000000, 3.379625)" fill="#444443">
                        <polygon points="0 32.5 0 1.17125 29.53125 1.17125 40 16.64 29.60875 32.5"></polygon>
                    </g>
                    <g>
                        <g>
                            <mask id="mask-2" fill="white">
                                <use xlink:href="#path-1"></use>
                            </mask>
                            <g></g>
                            <g mask="url(#mask-2)">
                                <g transform="translate(6.250000, 8.750000)">
                                    <g transform="translate(0.988750, 0.378375)">
                                        <path d="M13.75,20 L10.105,16.365 L6.4175,20 C4.9925,21.4375 2.65125,21.4375 1.1875,20 C-0.25625,18.5375 -0.25625,16.22 1.1875,14.75625 L4.8225,11.09875 L1.1875,7.44 C-0.25625,5.98125 -0.25625,3.63875 1.1875,2.1725 C2.65125,0.7375 4.9925,0.7375 6.4175,2.1725 L10.105,5.83 L13.75,2.1725 C15.2,0.7375 17.57125,0.7375 19.0225,2.1725 C20.46625,3.63875 20.46625,5.98125 19.0225,7.44 L15.3525,11.09875 L19.0225,14.75625 C20.46625,16.22 20.46625,18.5375 19.0225,20 C17.57125,21.4375 15.2,21.4375 13.75,20" fill="#FFFFFF"></path>
                                    </g>
                                    <g transform="translate(0.988750, 0.378375)">
                                        <path d="M13.75,20 L10.105,16.365 L6.4175,20 C4.9925,21.4375 2.65125,21.4375 1.1875,20 C-0.25625,18.5375 -0.25625,16.22 1.1875,14.75625 L4.8225,11.09875 L1.1875,7.44 C-0.25625,5.98125 -0.25625,3.63875 1.1875,2.1725 C2.65125,0.7375 4.9925,0.7375 6.4175,2.1725 L10.105,5.83 L13.75,2.1725 C15.2,0.7375 17.57125,0.7375 19.0225,2.1725 C20.46625,3.63875 20.46625,5.98125 19.0225,7.44 L15.3525,11.09875 L19.0225,14.75625 C20.46625,16.22 20.46625,18.5375 19.0225,20 C17.57125,21.4375 15.2,21.4375 13.75,20 Z" stroke="#444443" stroke-width="1.25"></path>
                                    </g>
                                </g>
                            </g>
                        </g>
                    </g>
                </g>
            </g>
        </g>
    </g>
</svg>