<?xml version="1.0" encoding="UTF-8" standalone="no"?>
<svg width="41px" height="41px" viewBox="0 0 41 41" version="1.1" xmlns="http://www.w3.org/2000/svg" xmlns:xlink="http://www.w3.org/1999/xlink">
    <!-- Generator: Sketch 41.2 (35397) - http://www.bohemiancoding.com/sketch -->
    <title>Connect</title>
    <desc>Created with Sketch.</desc>
    <defs>
        <polygon id="path-1" points="0 40 40 40 40 0 0 0"></polygon>
    </defs>
    <g stroke="none" stroke-width="1" fill="none" fill-rule="evenodd">
        <g transform="translate(0.375514, 0.209231)">
            <g transform="translate(0.538352, 0.014160)">
                <g transform="translate(20.000000, 20.000000) scale(1, -1) translate(-20.000000, -20.000000) ">
                    <g>
                        <g>
                            <mask id="mask-2" fill="white">
                                <use xlink:href="#path-1"></use>
                            </mask>
                            <g></g>
                            <g mask="url(#mask-2)">
                                <g transform="translate(-1.250000, 7.500000)">
                                    <g transform="translate(17.628125, 0.528625)">
                                        <path d="M12.5,17.5 C9.51125,17.5 7.14,15.10125 7.14,12.14 C7.14,9.195 9.51125,6.775 12.5,6.775 C15.46,6.775 17.83875,9.195 17.83875,12.14 C17.83875,15.10125 15.46,17.5 12.5,17.5 M12.5,0.91125 C6.23625,0.91125 1.2125,5.98125 1.2125,12.14 C1.2125,18.28 6.23625,23.34375 12.5,23.34375 C18.635,23.34375 23.62125,18.28 23.62125,12.14 C23.62125,5.98125 18.635,0.91125 12.5,0.91125" fill="#444443"></path>
                                    </g>
                                    <g transform="translate(1.160875, 0.153250)">
                                        <path d="M11.25,17.5 C8.24625,17.5 5.8925,15.08375 5.8925,12.13625 C5.8925,9.1775 8.24625,6.84 11.25,6.84 C14.1925,6.84 16.59125,9.1775 16.59125,12.13625 C16.59125,15.08375 14.1925,17.5 11.25,17.5 M11.25,0.975 C5.05,0.975 0.08875,5.97625 0.08875,12.13625 C0.08875,18.2975 5.05,23.36625 11.25,23.36625 C17.49375,23.36625 22.37125,18.2975 22.37125,12.13625 C22.37125,5.97625 17.49375,0.975 11.25,0.975" fill="#444443"></path>
                                    </g>
                                </g>
                            </g>
                        </g>
                    </g>
                </g>
            </g>
        </g>
    </g>
</svg>