<?xml version="1.0" encoding="UTF-8" standalone="no"?>
<svg width="41px" height="41px" viewBox="0 0 41 41" version="1.1" xmlns="http://www.w3.org/2000/svg" xmlns:xlink="http://www.w3.org/1999/xlink">
    <!-- Generator: Sketch 41.2 (35397) - http://www.bohemiancoding.com/sketch -->
    <title>ConnectRouteAll</title>
    <desc>Created with Sketch.</desc>
    <defs>
        <polygon id="path-1" points="0 40 40 40 40 0 0 0"></polygon>
        <polygon id="path-3" points="0 40 40 40 40 0 0 0"></polygon>
    </defs>
    <g stroke="none" stroke-width="1" fill="none" fill-rule="evenodd">
        <g transform="translate(-0.484926, 0.209231)">
            <g transform="translate(0.968572, 0.014160)">
                <g transform="translate(20.000000, 20.000000) scale(1, -1) translate(-20.000000, -20.000000) ">
                    <g transform="translate(7.890750, 25.000500)" fill="#2B74B9">
                        <path d="M0,15 L0,0.39 L0,15 Z"></path>
                    </g>
                    <g>
                        <g>
                            <mask id="mask-2" fill="white">
                                <use xlink:href="#path-1"></use>
                            </mask>
                            <g></g>
                            <g mask="url(#mask-2)">
                                <g transform="translate(7.500000, 25.000000)">
                                    <g transform="translate(0.390625, 0.390625)">
                                        <path d="M0,0 L0,14.61" stroke="#2B74B9" stroke-width="4.375"></path>
                                    </g>
                                </g>
                            </g>
                        </g>
                    </g>
                    <g transform="translate(12.969000, 20.000250)" fill="#2B74B9">
                        <path d="M0,0 L13.98375,0 L0,0 Z"></path>
                    </g>
                    <g transform="translate(12.968750, 20.000000)" stroke-width="4.375" stroke="#2B74B9">
                        <path d="M0,0 L13.985,0"></path>
                    </g>
                    <g>
                        <g>
                            <mask id="mask-4" fill="white">
                                <use xlink:href="#path-3"></use>
                            </mask>
                            <g></g>
                            <g mask="url(#mask-4)">
                                <g transform="translate(-1.250000, 11.250000)">
                                    <g transform="translate(0.570125, 0.795875)">
                                        <path d="M6.25,5 C7.91875,3.82625 10.1975,4.2275 11.3575,5.87625 C12.54,7.5525 12.16875,9.85625 10.50125,11.03375 C8.83375,12.20875 6.54125,11.78125 5.35875,10.1025 C4.1975,8.45625 4.58125,6.17625 6.25,5 M12.77375,14.2575 C16.2125,11.835 17.065,7.06 14.61375,3.57875 C12.1975,0.155 7.4,-0.66625 3.9625,1.75375 C0.51625,4.185 -0.29,8.9575 2.12375,12.38125 C4.5775,15.8625 9.3275,16.69 12.77375,14.2575" fill="#42AB3D"></path>
                                    </g>
                                    <g transform="translate(25.178250, 0.795875)">
                                        <path d="M6.25,5 C7.92,3.82625 10.1975,4.2275 11.3575,5.87625 C12.54125,7.55375 12.17,9.85625 10.5025,11.03375 C8.835,12.20875 6.5425,11.78125 5.35875,10.1025 C4.19875,8.45625 4.5825,6.17625 6.25,5 M12.77625,14.2575 C16.21375,11.835 17.065,7.06 14.61375,3.57875 C12.2,0.155 7.4025,-0.66625 3.9625,1.75375 C0.5175,4.185 -0.29,8.9575 2.12375,12.38125 C4.5775,15.8625 9.32875,16.69 12.77625,14.2575" fill="#42AB3D"></path>
                                    </g>
                                </g>
                            </g>
                        </g>
                    </g>
                </g>
            </g>
        </g>
    </g>
</svg>