<?xml version="1.0" encoding="UTF-8" standalone="no"?>
<svg width="40px" height="40px" viewBox="0 0 40 40" version="1.1" xmlns="http://www.w3.org/2000/svg" xmlns:xlink="http://www.w3.org/1999/xlink">
    <!-- Generator: Sketch 41.2 (35397) - http://www.bohemiancoding.com/sketch -->
    <title>Copy</title>
    <desc>Created with Sketch.</desc>
    <defs>
        <polygon id="path-1" points="0 40 40 40 40 0 0 0"></polygon>
        <polygon id="path-3" points="0 40 40 40 40 0 0 0"></polygon>
    </defs>
    <g stroke="none" stroke-width="1" fill="none" fill-rule="evenodd">
        <g>
            <g>
                <g>
                    <g transform="translate(20.000000, 20.000000) scale(1, -1) translate(-20.000000, -20.000000) ">
                        <g>
                            <g>
                                <mask id="mask-2" fill="white">
                                    <use xlink:href="#path-1"></use>
                                </mask>
                                <g></g>
                                <mask id="mask-4" fill="white">
                                    <use xlink:href="#path-3"></use>
                                </mask>
                                <g></g>
                                <g mask="url(#mask-4)">
                                    <g transform="translate(3.500000, -1.250000)">
                                        <g stroke-width="1" fill="none" transform="translate(0.132875, 0.262500)">
                                            <path d="M23.75,6.25 C23.75,5.39 23.41125,4.61375 22.8175,4.01375 C22.21625,3.41125 21.41625,3.09625 20.57375,3.09625 L5.845,3.09625 C4.99125,3.09625 4.2,3.41125 3.61,4.01375 C3.01,4.61375 2.68125,5.39 2.68125,6.25 L2.68125,29.41375 C2.68125,31.1475 4.1,32.565 5.845,32.565 L11.1275,32.565 L15.28375,32.565 L17.41125,32.565 L17.42875,32.565 L17.42875,26.09875 L23.75,26.09875 L23.75,6.25 Z M25.8475,26.32625 C25.815,26.85625 25.59625,27.3575 25.2325,27.73375 L18.91625,34.055 C18.50875,34.44875 17.9875,34.67125 17.41125,34.67125 L15.28375,34.67125 L11.1275,34.67125 L5.845,34.67125 C2.91875,34.67125 0.57625,32.3125 0.57625,29.41375 L0.57625,6.25 C0.57625,4.79 1.1725,3.47125 2.1225,2.51875 C3.08125,1.57875 4.385,0.9875 5.845,0.9875 L20.57375,0.9875 C22.03125,0.9875 23.3525,1.57875 24.29625,2.51875 C25.24875,3.47125 25.8475,4.79 25.8475,6.25 L25.8475,26.09875 L25.8475,26.32625 Z" fill="#3C3C3C"></path>
                                        </g>
                                        <g stroke-width="1" fill="none" transform="translate(7.031250, 7.649125)">
                                            <path d="M24.6325,26.66875 L18.32125,32.98125 C17.92375,33.375 17.39625,33.60125 16.835,33.60125 L14.69375,33.60125 L10.54375,33.60125 L5.25375,33.60125 C2.6875,33.60125 0.58375,31.79375 0.09375,29.37875 L0.0960111285,26.9517122 L2.2760038,26.8012118 L2.2725,29.37875 C2.71125,30.6125 3.8825,31.49 5.25375,31.49 L10.54375,31.49 L14.69375,31.49 L16.835,31.49 L16.85125,25.01625 L23.13375,25.01625 L23.13375,5.17625 C23.13375,4.3325 22.81375,3.5275 22.2225,2.94875 C21.88875,2.61 21.4975,2.37125 21.04375,2.2 L18.820457,2.20367415 L18.8878087,0.0236509611 L21.04375,0.02375 C22.08125,0.23 23.00125,0.74 23.7,1.45875 C24.66625,2.4125 25.25,3.715 25.25,5.17625 L25.25,25.01625 C25.26,25.10125 25.26,25.1775 25.25,25.25 C25.22125,25.7825 25.00625,26.29625 24.6325,26.66875 Z" fill="#3C3C3C"></path>
                                        </g>
                                        <polygon fill="#8C8C8C" points="16.52375 18 7 18 7 20.0475 16.52375 20.0475"></polygon>
                                        <polygon fill="#8C8C8C" points="16.52375 14 7 14 7 16 16.52375 16"></polygon>
                                        <polygon fill="#8C8C8C" points="16.52375 10 7 10 7 12 16.52375 12"></polygon>
                                    </g>
                                </g>
                            </g>
                        </g>
                    </g>
                </g>
            </g>
        </g>
    </g>
</svg>