<?xml version="1.0" encoding="UTF-8" standalone="no"?>
<svg width="36px" height="39px" viewBox="0 0 36 39" version="1.1" xmlns="http://www.w3.org/2000/svg" xmlns:xlink="http://www.w3.org/1999/xlink">
    <!-- Generator: Sketch 41.2 (35397) - http://www.bohemiancoding.com/sketch -->
    <title>Delete</title>
    <desc>Created with Sketch.</desc>
    <defs></defs>
    <g stroke="none" stroke-width="1" fill="none" fill-rule="evenodd">
        <g transform="translate(-2.000000, -1.000000)" fill="#3C3C3C">
            <g transform="translate(0.000000, -0.500000)">
                <path d="M11.4230993,6.91960215 L3.30192946,6.91960215 C2.74706969,6.91960215 2.29946947,7.36893753 2.29946947,7.92322081 L2.29946947,12.2498417 C2.29946947,12.7979449 2.7482861,13.2534604 3.30192946,13.2534604 L5.4307406,13.2534604 L5.51274695,36.9891084 C5.51844145,38.637306 6.8676138,39.9855488 8.5261561,39.9855488 L31.4738438,39.9855488 C33.1384672,39.9855488 34.4815353,38.6439967 34.4872529,36.9891084 L34.5692593,13.2534604 L36.6980705,13.2534604 C37.2529303,13.2534604 37.7005305,12.804125 37.7005305,12.2498417 L37.7005305,7.92322081 C37.7005305,7.37511761 37.2517139,6.91960215 36.6980705,6.91960215 L28.5769007,6.91960215 L28.5769007,4.40100341 C28.5769007,2.97174602 27.4271243,1.83102142 26.0088033,1.83102142 L13.9911967,1.83102142 C12.5752446,1.83102142 11.4230993,2.98164155 11.4230993,4.40100341 L11.4230993,6.91960215 Z M12.309944,17.1750682 C12.309944,16.3494088 12.9757412,15.6800797 13.809944,15.6800797 C14.6383711,15.6800797 15.309944,16.3555345 15.309944,17.1750682 L15.309944,30.3847551 C15.309944,31.2104144 14.6441467,31.8797436 13.809944,31.8797436 C12.9815169,31.8797436 12.309944,31.2042887 12.309944,30.3847551 L12.309944,17.1750682 Z M18.625,17.1750682 C18.625,16.3494088 19.2907972,15.6800797 20.125,15.6800797 C20.9534271,15.6800797 21.625,16.3555345 21.625,17.1750682 L21.625,30.3847551 C21.625,31.2104144 20.9592028,31.8797436 20.125,31.8797436 C19.2965729,31.8797436 18.625,31.2042887 18.625,30.3847551 L18.625,17.1750682 Z M24.9536258,17.1750682 C24.9536258,16.3494088 25.6194231,15.6800797 26.4536258,15.6800797 C27.282053,15.6800797 27.9536258,16.3555345 27.9536258,17.1750682 L27.9536258,30.3847551 C27.9536258,31.2104144 27.2878286,31.8797436 26.4536258,31.8797436 C25.6251987,31.8797436 24.9536258,31.2042887 24.9536258,30.3847551 L24.9536258,17.1750682 Z M15.2005267,5.68585774 C15.2005267,5.02470652 15.7441106,4.48873756 16.3968316,4.48873756 L23.6031684,4.48873756 C24.2638694,4.48873756 24.7994733,5.02009709 24.7994733,5.68585774 L24.7994733,6.88297793 L15.2005267,6.88297793 L15.2005267,5.68585774 Z"></path>
            </g>
        </g>
    </g>
</svg>