<?xml version="1.0" encoding="UTF-8" standalone="no"?>
<svg width="41px" height="41px" viewBox="0 0 41 41" version="1.1" xmlns="http://www.w3.org/2000/svg" xmlns:xlink="http://www.w3.org/1999/xlink">
    <!-- Generator: Sketch 41.2 (35397) - http://www.bohemiancoding.com/sketch -->
    <title>DimensionAngle</title>
    <desc>Created with Sketch.</desc>
    <defs>
        <polygon id="path-1" points="0 40 40 40 40 0 0 0"></polygon>
    </defs>
    <g stroke="none" stroke-width="1" fill="none" fill-rule="evenodd">
        <g transform="translate(0.452219, -0.762449)">
            <g>
                <g transform="translate(20.000000, 20.000000) scale(1, -1) translate(-20.000000, -20.000000) ">
                    <g>
                        <g>
                            <mask id="mask-2" fill="white">
                                <use xlink:href="#path-1"></use>
                            </mask>
                            <g></g>
                            <g mask="url(#mask-2)">
                                <g transform="translate(1.250000, 1.250000)">
                                    <g transform="translate(19.538625, 25.668375)">
                                        <path d="M7.5,5 L2.4175,6.45 C2.13125,6.54375 1.8275,6.38 1.76,6.08375 L0.3075,0.99875 C0.1725,0.5525 0.66625,0.1625 1.08375,0.39375 L2.4775,1.1675 L6.21,3.245 L7.62,4.03 C8.01625,4.25375 7.94375,4.8775 7.5,5" fill="#444443"></path>
                                    </g>
                                    <g transform="translate(22.395000, 8.658750)">
                                        <path d="M6.25,1.5 L11.335,0.0525 C11.61875,-0.04 11.92375,0.125 11.99125,0.41375 L13.44375,5.50375 C13.57875,5.94375 13.08625,6.33875 12.66875,6.1075 L10.3,4.76375 L2.0725,19.69625 L0.495,18.87125 L8.71625,3.93625 L6.1325,2.47125 C5.73375,2.25 5.80625,1.625 6.25,1.5" fill="#444443"></path>
                                    </g>
                                    <g transform="translate(0.266125, 0.625000)">
                                        <polyline stroke="#8A8A89" stroke-width="3.75" points="15 36.25 0.35875 0 36.60875 0"></polyline>
                                    </g>
                                </g>
                            </g>
                        </g>
                    </g>
                </g>
            </g>
        </g>
    </g>
</svg>