<?xml version="1.0" encoding="UTF-8" standalone="no"?>
<svg width="41px" height="41px" viewBox="0 0 41 41" version="1.1" xmlns="http://www.w3.org/2000/svg" xmlns:xlink="http://www.w3.org/1999/xlink">
    <!-- Generator: Sketch 41.2 (35397) - http://www.bohemiancoding.com/sketch -->
    <title>DimensionParallel</title>
    <desc>Created with Sketch.</desc>
    <defs>
        <polygon id="path-1" points="0 40 40 40 40 0 0 0"></polygon>
    </defs>
    <g stroke="none" stroke-width="1" fill="none" fill-rule="evenodd">
        <g transform="translate(0.452219, 0.237551)">
            <g transform="translate(0.500000, 0.000000)">
                <g transform="translate(20.000000, 20.000000) scale(1, -1) translate(-20.000000, -20.000000) ">
                    <g>
                        <g>
                            <mask id="mask-2" fill="white">
                                <use xlink:href="#path-1"></use>
                            </mask>
                            <g></g>
                            <g mask="url(#mask-2)">
                                <g transform="translate(3.750000, 3.750000)">
                                    <g transform="translate(6.434375, 19.683500)">
                                        <path d="M6.25,6.5 L0.965,6.47375 C0.665,6.485 0.4175,6.24125 0.43625,5.93875 L0.46,0.65 C0.455,0.185 1.0375,-0.0525 1.37375,0.28625 L2.4975,1.41875 L5.50125,4.45375 L6.63625,5.60125 C6.955,5.9275 6.71125,6.505 6.25,6.5" fill="#444443"></path>
                                    </g>
                                    <g transform="translate(8.700000, 6.936000)">
                                        <path d="M11.25,2.39808173e-14 L16.53625,0.02875 C16.835,0.02 17.08125,0.26375 17.06375,0.55875 L17.04125,5.8525 C17.0475,6.31125 16.46375,6.5525 16.12625,6.21375 L14.2275,4.265 L2.16125,16.30875 L0.87625,15.075 L12.9375,3.0275 L10.865,0.90125 C10.545,0.57625 10.78875,-0.005 11.25,2.39808173e-14" fill="#444443"></path>
                                    </g>
                                    <g transform="translate(0.160500, 25.889250)">
                                        <path d="M6.25,6.25 L0.5775,0.5775" stroke="#8A8A89" stroke-width="3.75"></path>
                                    </g>
                                    <g transform="translate(25.719000, 0.332000)">
                                        <path d="M6.25,6.25 C1.96,1.96 2.73125,2.73 0.5775,0.57625" stroke="#8A8A89" stroke-width="3.75"></path>
                                    </g>
                                </g>
                            </g>
                        </g>
                    </g>
                </g>
            </g>
        </g>
    </g>
</svg>