<?xml version="1.0" encoding="UTF-8" standalone="no"?>
<svg width="41px" height="41px" viewBox="0 0 41 41" version="1.1" xmlns="http://www.w3.org/2000/svg" xmlns:xlink="http://www.w3.org/1999/xlink">
    <!-- Generator: Sketch 41.2 (35397) - http://www.bohemiancoding.com/sketch -->
    <title>DimensionLeader</title>
    <desc>Created with Sketch.</desc>
    <defs>
        <polygon id="path-1" points="0 40 40 40 40 0 0 0"></polygon>
    </defs>
    <g stroke="none" stroke-width="1" fill="none" fill-rule="evenodd">
        <g transform="translate(0.452219, 0.237551)">
            <g transform="translate(0.500000, 0.000000)">
                <g transform="translate(20.000000, 20.000000) scale(1, -1) translate(-20.000000, -20.000000) ">
                    <g>
                        <g>
                            <mask id="mask-2" fill="white">
                                <use xlink:href="#path-1"></use>
                            </mask>
                            <g></g>
                            <g mask="url(#mask-2)">
                                <g transform="translate(1.250000, 1.250000)">
                                    <g transform="translate(9.247125, 13.621875)">
                                        <path d="M0.25,6.25 L1.2,1.04625 C1.2425,0.75375 1.52625,0.5525 1.81375,0.61875 L7.02125,1.5675 C7.47625,1.64125 7.61375,2.2575 7.21875,2.5275 L4.96875,4.05875 L14.725,18.04125 L13.28625,19.09125 L3.525,5.115 L1.06875,6.7825 C0.6925,7.04375 0.165,6.70375 0.25,6.25" fill="#444443"></path>
                                    </g>
                                    <g transform="translate(12.883250, 17.453625)">
                                        <polyline stroke="#444443" stroke-width="1.875" points="0 0 10.87875 15.4875 23.03625 15.4875"></polyline>
                                    </g>
                                    <g transform="translate(0.446750, 0.582250)">
                                        <path d="M5,12.5 C8.15125,13.04625 11.17875,10.93625 11.73375,7.74625 C12.275,4.605 10.13625,1.5825 6.985,1.0375 C3.82375,0.48875 0.8225,2.62375 0.28125,5.7625 C-0.27375,8.955 1.83875,11.95375 5,12.5" fill="#8A8A89"></path>
                                    </g>
                                </g>
                            </g>
                        </g>
                    </g>
                </g>
            </g>
        </g>
    </g>
</svg>