<?xml version="1.0" encoding="UTF-8" standalone="no"?>
<svg width="40px" height="40px" viewBox="0 0 40 40" version="1.1" xmlns="http://www.w3.org/2000/svg" xmlns:xlink="http://www.w3.org/1999/xlink">
    <!-- Generator: Sketch 41.2 (35397) - http://www.bohemiancoding.com/sketch -->
    <title>Dimension</title>
    <desc>Created with Sketch.</desc>
    <defs></defs>
    <g stroke="none" stroke-width="1" fill="none" fill-rule="evenodd">
        <g>
            <g transform="translate(-0.727273, 0.000000)">
                <g transform="translate(1.039240, 8.000000)">
                    <rect fill="#AEAAAA" x="0.204839939" y="0.5" width="2.92682927" height="23"></rect>
                    <rect fill="#AEAAAA" x="36.4000015" y="0.5" width="2.92682927" height="23"></rect>
                    <g transform="translate(2.570741, 2.000000)" fill="#3C3C3C">
                        <path d="M9.2537603,19.3043132 L1.13464691,10.901099 C0.654322896,10.442335 0.648864669,9.6674714 1.14283426,9.2170994 L9.34382106,0.886616156 C10.0561197,0.139725952 11.3224285,0.688004903 11.3169703,1.75658939 L11.3060538,5.32319991 L11.2542007,14.8817161 L11.237826,18.4930841 C11.2269095,19.5141138 9.95787165,20.0428113 9.2537603,19.3043132"></path>
                        <path d="M25.131141,19.3043132 L33.2502544,10.901099 C33.7305784,10.442335 33.7360366,9.6674714 33.242067,9.2170994 L25.0410802,0.886616156 C24.3287815,0.139725952 23.0624727,0.688004903 23.067931,1.75658939 L23.0788474,5.32319991 L23.1307006,14.8817161 L23.1470753,18.4930841 C23.1579917,19.5141138 24.4270296,20.0428113 25.131141,19.3043132"></path>
                        <rect x="4.20440922" y="7.59574787" width="25.3658537" height="5"></rect>
                    </g>
                </g>
            </g>
        </g>
    </g>
</svg>