<?xml version="1.0" encoding="UTF-8" standalone="no"?>
<svg width="41px" height="41px" viewBox="0 0 41 41" version="1.1" xmlns="http://www.w3.org/2000/svg" xmlns:xlink="http://www.w3.org/1999/xlink">
    <!-- Generator: Sketch 41.2 (35397) - http://www.bohemiancoding.com/sketch -->
    <title>DimensionRadius</title>
    <desc>Created with Sketch.</desc>
    <defs>
        <polygon id="path-1" points="0 40 40 40 40 0 0 0"></polygon>
    </defs>
    <g stroke="none" stroke-width="1" fill="none" fill-rule="evenodd">
        <g transform="translate(0.452219, 0.237551)">
            <g>
                <g transform="translate(20.000000, 20.000000) scale(1, -1) translate(-20.000000, -20.000000) ">
                    <g>
                        <g>
                            <mask id="mask-2" fill="white">
                                <use xlink:href="#path-1"></use>
                            </mask>
                            <g></g>
                            <g mask="url(#mask-2)">
                                <g transform="translate(1.250000, 1.250000)">
                                    <g transform="translate(14.531500, 14.074750)">
                                        <path d="M12.75,10 L11.925,15.22375 C11.89125,15.5175 11.61125,15.7275 11.32125,15.66375 L6.09375,14.84375 C5.635,14.78125 5.485,14.16875 5.87125,13.88625 L8.2125,12.20875 L0.00625,1.05 L1.32625,0.08 L9.5025,11.21375 L11.9175,9.485 C12.28625,9.21625 12.82375,9.54375 12.75,10" fill="#444443"></path>
                                    </g>
                                    <g transform="translate(0.625000, 0.000000)">
                                        <path d="M36.25,18.75 C36.25,8.74 28.135,0.625 18.125,0.625 C8.115,0.625 0,8.74 0,18.75 C0,28.76 8.115,36.875 18.125,36.875 C28.135,36.875 36.25,28.76 36.25,18.75 Z" stroke="#8A8A89" stroke-width="3.75"></path>
                                    </g>
                                </g>
                            </g>
                        </g>
                    </g>
                </g>
            </g>
        </g>
    </g>
</svg>