<?xml version="1.0" encoding="UTF-8" standalone="no"?>
<svg width="41px" height="41px" viewBox="0 0 41 41" version="1.1" xmlns="http://www.w3.org/2000/svg" xmlns:xlink="http://www.w3.org/1999/xlink">
    <!-- Generator: Sketch 41.2 (35397) - http://www.bohemiancoding.com/sketch -->
    <title>DimensionVertical</title>
    <desc>Created with Sketch.</desc>
    <defs>
        <polygon id="path-1" points="0 40 40 40 40 0 0 0"></polygon>
    </defs>
    <g stroke="none" stroke-width="1" fill="none" fill-rule="evenodd">
        <g transform="translate(0.452219, 0.237551)">
            <g>
                <g transform="translate(20.000000, 20.000000) scale(1, -1) translate(-20.000000, -20.000000) ">
                    <g>
                        <g>
                            <mask id="mask-2" fill="white">
                                <use xlink:href="#path-1"></use>
                            </mask>
                            <g></g>
                            <g mask="url(#mask-2)">
                                <g transform="translate(1.250000, 1.250000)">
                                    <g transform="translate(14.369125, 5.377500)">
                                        <path d="M0.25,4 L4.005,0.28125 C4.21,0.06125 4.55625,0.05875 4.7575,0.285 L8.48,4.04125 C8.81375,4.3675 8.56875,4.9475 8.09125,4.945 L6.4975,4.94 L2.22625,4.91625 L0.6125,4.90875 C0.15625,4.90375 -0.08,4.3225 0.25,4" fill="#444443"></path>
                                    </g>
                                    <g transform="translate(14.342000, 9.375000)">
                                        <path d="M8.75,18.75 L4.99125,22.46875 C4.7875,22.685 4.44,22.6875 4.24375,22.4675 L0.5175,18.7075 C0.18625,18.38625 0.42875,17.8025 0.90625,17.805 L3.6275,17.84 L3.64375,0.79125 L5.425,0.755 L5.41625,17.8025 L8.385,17.84125 C8.84125,17.84375 9.08,18.42625 8.75,18.75" fill="#444443"></path>
                                    </g>
                                    <g transform="translate(14.844375, 0.730000)">
                                        <path d="M0,0 L8.02125,0" stroke="#8A8A89" stroke-width="3.75"></path>
                                    </g>
                                    <g transform="translate(0.834375, 36.875000)">
                                        <path d="M0,0 L35.9375,0" stroke="#8A8A89" stroke-width="3.75"></path>
                                    </g>
                                </g>
                            </g>
                        </g>
                    </g>
                </g>
            </g>
        </g>
    </g>
</svg>