<?xml version="1.0" encoding="UTF-8" standalone="no"?>
<svg width="40px" height="39px" viewBox="0 0 40 39" version="1.1" xmlns="http://www.w3.org/2000/svg" xmlns:xlink="http://www.w3.org/1999/xlink">
    <!-- Generator: Sketch 41.2 (35397) - http://www.bohemiancoding.com/sketch -->
    <title>DRC</title>
    <desc>Created with Sketch.</desc>
    <defs></defs>
    <g stroke="none" stroke-width="1" fill="none" fill-rule="evenodd">
        <g>
            <g>
                <g transform="translate(0.000000, 1.000000)">
                    <g transform="translate(10.731707, 15.649583)" fill="#399435">
                        <rect transform="translate(8.558620, 14.717189) rotate(-45.000000) translate(-8.558620, -14.717189) " x="5.28954555" y="6.97859274" width="6.53814944" height="15.4771921" rx="1"></rect>
                        <rect transform="translate(19.108721, 10.013969) rotate(45.000000) translate(-19.108721, -10.013969) " x="15.4626227" y="0.441338403" width="7.29219733" height="19.145262" rx="1"></rect>
                    </g>
                    <path d="M1.59179095,15.3561545 C1.30312088,15.3561545 1.06136332,15.2610494 0.86651102,15.0708364 C0.671658722,14.8806235 0.574234034,14.6446221 0.574234034,14.3628251 L0.574234034,1.53408194 C0.574234034,1.25228496 0.671658722,1.01628353 0.86651102,0.826070576 C1.06136332,0.635857618 1.30312088,0.540752566 1.59179095,0.540752566 L4.44961037,0.540752566 C6.10946329,0.540752566 7.45897563,1.03388987 8.49818789,2.02017929 C9.00336052,2.49923415 9.3822343,3.06634205 9.63482062,3.72152002 C9.88740693,4.37669799 10.0136982,5.10583672 10.0136982,5.9089581 L10.0136982,9.96681425 C10.0136982,10.7699356 9.88740693,11.5025968 9.63482062,12.1648197 C9.3822343,12.8270426 9.00336052,13.3976729 8.49818789,13.8767277 C7.45897563,14.8630171 6.10946329,15.3561545 4.44961037,15.3561545 L1.59179095,15.3561545 Z M8.49818789,5.9089581 C8.49818789,4.68314126 8.14096404,3.7180011 7.42650561,3.01350866 C6.71204718,2.30901622 5.71975869,1.95677529 4.44961037,1.95677529 L2.08974433,1.95677529 L2.08974433,13.9401317 L4.44961037,13.9401317 C5.71975869,13.9401317 6.71204718,13.5878908 7.42650561,12.8833984 C8.14096404,12.1789059 8.49818789,11.2067209 8.49818789,9.96681425 L8.49818789,5.9089581 Z M15.8159376,8.76213821 L13.2612203,8.76213821 L13.2612203,14.8277878 C13.2612203,15.0250457 13.1854455,15.1976437 13.0338937,15.3455871 C12.8823419,15.4935305 12.7055342,15.5675011 12.5034651,15.5675011 C12.3013961,15.5675011 12.1245883,15.4935305 11.9730365,15.3455871 C11.8214847,15.1976437 11.74571,15.0250457 11.74571,14.8277878 L11.74571,1.53408194 C11.74571,1.25228496 11.8431347,1.01628353 12.037987,0.826070576 C12.2328393,0.635857618 12.4745968,0.540752566 12.7632669,0.540752566 L16.6169931,0.540752566 C17.8727079,0.540752566 18.883038,0.914127957 19.6480137,1.66088994 C20.4418564,2.43583162 20.8387718,3.45733033 20.8387718,4.72541672 C20.8387718,5.81033508 20.5356727,6.70502705 19.9294656,7.40951949 C19.3232584,8.11401193 18.5005611,8.54374587 17.4613488,8.6987342 L20.8171216,14.4896331 C20.8748556,14.588262 20.9037222,14.7009791 20.9037222,14.8277878 C20.9037222,14.9545964 20.8712473,15.0743583 20.8062965,15.1870771 C20.7413458,15.2997959 20.6511377,15.3913785 20.5356697,15.4618278 C20.4202017,15.532277 20.2975187,15.5675011 20.1676172,15.5675011 C19.8933806,15.5675011 19.684098,15.4406944 19.5397629,15.1870771 L15.8159376,8.76213821 Z M16.5736928,7.34611549 C17.439703,7.34611549 18.1180675,7.12068129 18.6088066,6.66980613 C19.0851122,6.23302082 19.3232615,5.5848975 19.3232615,4.72541672 C19.3232615,4.30272126 19.26192,3.91525623 19.1392352,3.56301001 C19.0165504,3.21076379 18.832526,2.91488141 18.5871565,2.67535398 C18.0964173,2.19629912 17.4252695,1.95677529 16.5736928,1.95677529 L13.2612203,1.95677529 L13.2612203,7.34611549 L16.5736928,7.34611549 Z M22.635734,5.42286075 C22.635734,3.88706723 23.1120325,2.65422396 24.0646437,1.72429394 C25.0172549,0.794363926 26.2801676,0.329405891 27.8534194,0.329405891 C28.4018926,0.329405891 28.9323159,0.410421306 29.4447053,0.572454567 C29.9570946,0.734487828 30.465868,0.963444435 30.9710406,1.25933126 C31.1875432,1.3861399 31.2957928,1.58339482 31.2957928,1.85110195 C31.2957928,2.04835983 31.2308431,2.21391307 31.1009415,2.34776663 C30.97104,2.4816202 30.7978405,2.54854597 30.581338,2.54854597 C30.5091705,2.54854597 30.4406124,2.54150116 30.3756616,2.52741131 C30.3107108,2.51332146 30.2421527,2.48514218 30.1699852,2.44287264 C29.7947141,2.20334521 29.4158403,2.02017992 29.0333525,1.89337128 C28.6508646,1.76656264 28.2575575,1.70315928 27.8534194,1.70315928 C26.6987392,1.70315928 25.7894421,2.02722094 25.1255009,2.67535398 C24.4759932,3.33757687 24.1512443,4.23226885 24.1512443,5.35945675 L24.1512443,10.5374503 C24.1512443,11.678728 24.4759932,12.57342 25.1255009,13.221553 C25.7894421,13.8696861 26.6987392,14.1937477 27.8534194,14.1937477 C28.2575575,14.1937477 28.6508646,14.126822 29.0333525,13.9929684 C29.4158403,13.8591148 29.7947141,13.6724271 30.1699852,13.4328997 C30.2421527,13.3906302 30.3107108,13.3624509 30.3756616,13.348361 C30.4406124,13.3342712 30.5091705,13.3272264 30.581338,13.3272264 C30.783407,13.3272264 30.9529982,13.3941522 31.0901164,13.5280057 C31.2272347,13.6618593 31.2957928,13.8344573 31.2957928,14.0458051 C31.2957928,14.3135122 31.1875432,14.5107671 30.9710406,14.6375758 C30.465868,14.9334626 29.9570946,15.1624192 29.4447053,15.3244525 C28.9323159,15.4864857 28.4018926,15.5675011 27.8534194,15.5675011 C26.2801676,15.5675011 25.0172549,15.1025431 24.0646437,14.1726131 C23.1120325,13.2145034 22.635734,11.9816601 22.635734,10.4740463 L22.635734,5.42286075 Z" stroke="#3C3C3C" fill="#3C3C3C"></path>
                </g>
            </g>
        </g>
    </g>
</svg>