<?xml version="1.0" encoding="UTF-8" standalone="no"?>
<svg width="41px" height="41px" viewBox="0 0 41 41" version="1.1" xmlns="http://www.w3.org/2000/svg" xmlns:xlink="http://www.w3.org/1999/xlink">
    <!-- Generator: Sketch 41.2 (35397) - http://www.bohemiancoding.com/sketch -->
    <title>Dru</title>
    <desc>Created with Sketch.</desc>
    <defs></defs>
    <g stroke="none" stroke-width="1" fill="none" fill-rule="evenodd">
        <g transform="translate(0.452219, -0.762449)">
            <g>
                <g transform="translate(20.500000, 20.500000) scale(1, -1) translate(-20.500000, -20.500000) ">
                    <polygon fill="#AEAAAA" points="0.01625 0.0325 39.95875 0.0325 39.95875 40 0.01625 40 0.01625 0.0325"></polygon>
                    <g transform="translate(20.273625, 29.637000)" fill="#444443">
                        <path d="M0,0 L19.72625,0 L0,0 Z"></path>
                    </g>
                    <g transform="translate(0.000000, 5.000000)">
                        <g>
                            <g>
                                <g transform="translate(20.273500, 24.636875)" stroke-width="2.5" stroke="#444443">
                                    <path d="M0,0 L19.72625,0"></path>
                                </g>
                                <g transform="translate(0.059875, 24.636875)" stroke-width="2.5" stroke="#444443">
                                    <path d="M0,0 L8.94375,0"></path>
                                </g>
                                <g transform="translate(33.106750, 7.613500)" stroke-width="2.5" stroke="#444443">
                                    <path d="M0,0 L6.85,0"></path>
                                </g>
                                <g transform="translate(0.027500, 7.613500)" stroke-width="2.5" stroke="#444443">
                                    <path d="M0,0 L23.70875,0"></path>
                                </g>
                                <g transform="translate(7.940625, 17.482875)" fill="#444443">
                                    <path d="M3.75,8.75 C2.59125,7.1 2.9875,4.8475 4.615,3.7 C6.26875,2.53125 8.53875,2.9 9.7025,4.54875 C10.85875,6.195 10.44,8.46125 8.7825,9.63125 C7.1575,10.7775 4.91125,10.39625 3.75,8.75 M11.7875,3.08125 C9.82125,0.2925 5.95125,-0.4 3.125,1.59 C0.345,3.55 -0.31875,7.44 1.64375,10.23 C3.61625,13.025 7.48625,13.67875 10.26625,11.72125 C13.08875,9.73 13.76,5.87625 11.7875,3.08125"></path>
                                </g>
                                <g transform="translate(21.646750, 0.460250)" fill="#444443">
                                    <path d="M3.75,8.75 C2.59125,7.09875 2.98875,4.84875 4.61625,3.7 C6.27375,2.53375 8.54125,2.89625 9.7025,4.54875 C10.85875,6.195 10.4425,8.46 8.78125,9.63125 C7.15875,10.77625 4.9125,10.3975 3.75,8.75 M11.78875,3.08 C9.82375,0.29 5.9525,-0.3975 3.1275,1.58875 C0.3475,3.55 -0.3175,7.44 1.64625,10.23 C3.6175,13.025 7.48625,13.6775 10.2675,11.72125 C13.08625,9.73125 13.76125,5.875 11.78875,3.08"></path>
                                </g>
                            </g>
                        </g>
                    </g>
                </g>
            </g>
        </g>
    </g>
</svg>