<?xml version="1.0" encoding="UTF-8" standalone="no"?>
<svg width="40px" height="40px" viewBox="0 0 40 40" version="1.1" xmlns="http://www.w3.org/2000/svg" xmlns:xlink="http://www.w3.org/1999/xlink">
    <!-- Generator: Sketch 41.2 (35397) - http://www.bohemiancoding.com/sketch -->
    <title>ERC</title>
    <desc>Created with Sketch.</desc>
    <defs>
        <rect id="path-1" x="1.13686838e-13" y="0" width="40" height="40"></rect>
    </defs>
    <g stroke="none" stroke-width="1" fill="none" fill-rule="evenodd">
        <g>
            <g>
                <g transform="translate(0.000000, 0.000000)">
                    <mask id="mask-2" fill="white">
                        <use xlink:href="#path-1"></use>
                    </mask>
                    <g></g>
                    <g mask="url(#mask-2)">
                        <g transform="translate(0.000000, 0.000000)">
                            <g stroke="none" fill="none" transform="translate(11.000000, 16.482062)">
                                <rect fill="#399435" transform="translate(8.772586, 15.124923) rotate(-45.000000) translate(-8.772586, -15.124923) " x="5.42178419" y="6.99939737" width="6.70160318" height="16.2510518" rx="1"></rect>
                                <rect fill="#399435" transform="translate(19.586439, 10.514668) rotate(45.000000) translate(-19.586439, -10.514668) " x="15.8491883" y="0.463405323" width="7.47450227" height="20.1025251" rx="1"></rect>
                            </g>
                            <path d="M1.85585009,16.1774817 C1.55996327,16.1774817 1.31216177,16.0776214 1.11243816,15.8778978 C0.912714558,15.6781742 0.812854253,15.4303727 0.812854253,15.1344859 L0.812854253,1.66430556 C0.812854253,1.36841874 0.912714558,1.12061724 1.11243816,0.920893636 C1.31216177,0.72117003 1.55996327,0.621309725 1.85585009,0.621309725 L8.31354773,0.621309725 C8.52066851,0.621309725 8.69819794,0.695280322 8.84614135,0.843223734 C8.99408477,0.991167145 9.06805536,1.16869658 9.06805536,1.37581735 C9.06805536,1.58293813 8.99408477,1.75676903 8.84614135,1.89731527 C8.69819794,2.03786151 8.52066851,2.10813358 8.31354773,2.10813358 L2.36625231,2.10813358 L2.36625231,7.38968698 L8.02505952,7.38968698 C8.2321803,7.38968698 8.40970973,7.45995905 8.55765314,7.60050529 C8.70559656,7.74105153 8.77956715,7.91488243 8.77956715,8.12200321 C8.77956715,8.32912398 8.70929508,8.50665341 8.56874884,8.65459683 C8.4282026,8.80254024 8.24697464,8.87651083 8.02505952,8.87651083 L2.36625231,8.87651083 L2.36625231,14.6906579 L8.44669614,14.6906579 C8.65381692,14.6906579 8.83134635,14.7609299 8.97928976,14.9014762 C9.12723317,15.0420224 9.20120377,15.2158533 9.20120377,15.4229741 C9.20120377,15.6300949 9.12723317,15.8076243 8.97928976,15.9555677 C8.83134635,16.1035111 8.65381692,16.1774817 8.44669614,16.1774817 L1.85585009,16.1774817 Z M16.1484992,9.25376465 L13.5299139,9.25376465 L13.5299139,15.6226967 C13.5299139,15.8298175 13.4522448,16.0110454 13.2969042,16.166386 C13.1415636,16.3217266 12.9603356,16.3993957 12.7532149,16.3993957 C12.5460941,16.3993957 12.3648661,16.3217266 12.2095255,16.166386 C12.054185,16.0110454 11.9765158,15.8298175 11.9765158,15.6226967 L11.9765158,1.66430556 C11.9765158,1.36841874 12.0763761,1.12061724 12.2760997,0.920893636 C12.4758234,0.72117003 12.7236248,0.621309725 13.0195117,0.621309725 L16.969581,0.621309725 C18.2566887,0.621309725 19.2922771,1.01335389 20.0763771,1.79745397 C20.8900659,2.61114273 21.2969042,3.68371638 21.2969042,5.01520709 C21.2969042,6.15437136 20.9862277,7.09379794 20.3648653,7.833515 C19.743503,8.57323206 18.9002382,9.02445269 17.8350457,9.18719045 L21.2747128,15.2676343 C21.3338901,15.3711947 21.3634784,15.4895476 21.3634784,15.6226967 C21.3634784,15.7558458 21.3301916,15.8815958 21.2636171,15.9999505 C21.1970425,16.1183052 21.1045793,16.214467 20.9862246,16.2884387 C20.8678698,16.3624104 20.7421198,16.3993957 20.6089708,16.3993957 C20.3278783,16.3993957 20.1133635,16.2662486 19.9654201,15.9999505 L16.1484992,9.25376465 Z M16.9251982,7.76694079 C17.8128587,7.76694079 18.5081823,7.53023488 19.0111899,7.05681597 C19.4994032,6.59819139 19.7435061,5.9176619 19.7435061,5.01520709 C19.7435061,4.57137685 19.6806311,4.16453857 19.5548792,3.79468004 C19.4291273,3.42482151 19.2405023,3.11414501 18.9889985,2.86264121 C18.4859909,2.35963361 17.7980643,2.10813358 16.9251982,2.10813358 L13.5299139,2.10813358 L13.5299139,7.76694079 L16.9251982,7.76694079 Z M23.1387905,5.74752332 C23.1387905,4.13494013 23.6269964,2.84045469 24.6034229,1.86402817 C25.5798494,0.887601653 26.8743349,0.399395717 28.4869181,0.399395717 C29.049103,0.399395717 29.5927869,0.484461903 30.117986,0.654596826 C30.6431851,0.82473175 31.1646778,1.06513619 31.6824798,1.37581735 C31.9043949,1.50896642 32.0153508,1.71608409 32.0153508,1.99717658 C32.0153508,2.20429735 31.9487772,2.37812826 31.8156282,2.5186745 C31.6824791,2.65922074 31.5049497,2.7294928 31.2830346,2.7294928 C31.2090629,2.7294928 31.1387908,2.72209574 31.0722162,2.7073014 C31.0056417,2.69250706 30.9353696,2.66291882 30.8613979,2.6185358 C30.4767451,2.367032 30.0883994,2.17470845 29.6963494,2.04155938 C29.3042994,1.90841031 28.9011596,1.84183677 28.4869181,1.84183677 C27.3033708,1.84183677 26.3713412,2.18210151 25.6908015,2.86264121 C25.0250562,3.55797525 24.6921885,4.49740182 24.6921885,5.68094911 L24.6921885,11.1178423 C24.6921885,12.316184 25.0250562,13.2556105 25.6908015,13.9361502 C26.3713412,14.6166899 27.3033708,14.9569547 28.4869181,14.9569547 C28.9011596,14.9569547 29.3042994,14.8866826 29.6963494,14.7461364 C30.0883994,14.6055901 30.4767451,14.409568 30.8613979,14.1580642 C30.9353696,14.1136812 31.0056417,14.084093 31.0722162,14.0692986 C31.1387908,14.0545043 31.2090629,14.0471072 31.2830346,14.0471072 C31.4901553,14.0471072 31.6639862,14.1173793 31.8045325,14.2579255 C31.9450787,14.3984718 32.0153508,14.5796997 32.0153508,14.8016149 C32.0153508,15.0827073 31.9043949,15.289825 31.6824798,15.4229741 C31.1646778,15.7336552 30.6431851,15.9740597 30.117986,16.1441946 C29.5927869,16.3143295 29.049103,16.3993957 28.4869181,16.3993957 C26.8743349,16.3993957 25.5798494,15.9111898 24.6034229,14.9347633 C23.6269964,13.9287481 23.1387905,12.6342626 23.1387905,11.0512681 L23.1387905,5.74752332 Z" stroke="#3C3C3C" fill="#3C3C3C"></path>
                        </g>
                    </g>
                </g>
            </g>
        </g>
    </g>
</svg>