<?xml version="1.0" encoding="UTF-8" standalone="no"?>
<svg width="41px" height="41px" viewBox="0 0 41 41" version="1.1" xmlns="http://www.w3.org/2000/svg" xmlns:xlink="http://www.w3.org/1999/xlink">
    <!-- Generator: Sketch 41.2 (35397) - http://www.bohemiancoding.com/sketch -->
    <title>Error</title>
    <desc>Created with Sketch.</desc>
    <defs>
        <polygon id="path-1" points="0 40 40 40 40 0 0 0"></polygon>
    </defs>
    <g stroke="none" stroke-width="1" fill="none" fill-rule="evenodd">
        <g transform="translate(-0.066247, 0.209231)">
            <g transform="translate(0.759233, 0.014160)">
                <g transform="translate(20.000000, 20.000000) scale(1, -1) translate(-20.000000, -20.000000) ">
                    <g>
                        <g>
                            <mask id="mask-2" fill="white">
                                <use xlink:href="#path-1"></use>
                            </mask>
                            <g></g>
                            <g mask="url(#mask-2)">
                                <g transform="translate(-1.250000, 0.000000)">
                                    <g transform="translate(0.611625, 0.013375)">
                                        <path d="M37.5,0 C40.33875,0 41.49125,2.2575 40.0875,5.0225 L23.27375,37.9225 C21.85125,40.69125 19.53,40.69125 18.12125,37.9225 L1.29,5.0225 C-0.12375,2.2575 1.03,0 3.8775,0 L37.5,0 Z" fill="#DD203C"></path>
                                    </g>
                                    <g transform="translate(18.023625, 2.850375)">
                                        <path d="M3.75,6.25 C5.265,6.25 5.98125,5.49125 5.98125,3.97875 L5.98125,2.94125 C5.98125,1.43 5.265,0.66875 3.75,0.66875 L2.71375,0.66875 C1.19875,0.66875 0.4825,1.43 0.4825,2.94125 L0.4825,3.97875 C0.4825,5.49125 1.19875,6.25 2.71375,6.25 L3.75,6.25 Z M4.26875,28.2225 C5.98125,28.2225 6.06,27.185 5.98125,25.27 L5.265,11.60625 C5.1825,10.21 4.86625,9.0575 3.23125,9.0575 C1.5975,9.0575 1.28,10.21 1.19875,11.60625 L0.4825,25.27 C0.3625,27.185 0.52375,28.2225 2.23625,28.2225 L4.26875,28.2225 Z" fill="#FFFFFF"></path>
                                    </g>
                                </g>
                            </g>
                        </g>
                    </g>
                </g>
            </g>
        </g>
    </g>
</svg>