<?xml version="1.0" encoding="UTF-8" standalone="no"?>
<svg width="41px" height="41px" viewBox="0 0 41 41" version="1.1" xmlns="http://www.w3.org/2000/svg" xmlns:xlink="http://www.w3.org/1999/xlink">
    <!-- Generator: Sketch 41.2 (35397) - http://www.bohemiancoding.com/sketch -->
    <title>Errors</title>
    <desc>Created with Sketch.</desc>
    <defs>
        <polygon id="path-1" points="0 40.625 40 40.625 40 0.625 0 0.625"></polygon>
    </defs>
    <g stroke="none" stroke-width="1" fill="none" fill-rule="evenodd">
        <g transform="translate(0.117188, -0.346096)">
            <g transform="translate(0.667516, 0.791823)">
                <g transform="translate(20.000000, 20.500000) scale(1, -1) translate(-20.000000, -20.500000) ">
                    <g>
                        <g>
                            <mask id="mask-2" fill="white">
                                <use xlink:href="#path-1"></use>
                            </mask>
                            <g></g>
                            <g mask="url(#mask-2)">
                                <g transform="translate(-1.250000, 0.000000)">
                                    <g transform="translate(0.564000, 0.013375)">
                                        <path d="M37.5,0.625 C40.33875,0.625 41.49125,2.8825 40.0875,5.6475 L23.27375,38.5475 C21.85,41.31625 19.53,41.31625 18.12125,38.5475 L1.28875,5.6475 C-0.12375,2.8825 1.02875,0.625 3.87625,0.625 L37.5,0.625 Z" fill="#FFCD00"></path>
                                    </g>
                                    <g transform="translate(18.023625, 3.850375)">
                                        <path d="M3.75,5.875 C5.265,5.875 5.98125,5.11625 5.98125,3.60375 L5.98125,2.56625 C5.98125,1.055 5.265,0.29375 3.75,0.29375 L2.71375,0.29375 C1.19875,0.29375 0.4825,1.055 0.4825,2.56625 L0.4825,3.60375 C0.4825,5.11625 1.19875,5.875 2.71375,5.875 L3.75,5.875 Z M4.26875,27.8475 C5.98125,27.8475 6.06,26.81 5.98125,24.895 L5.265,11.23125 C5.1825,9.835 4.86625,8.6825 3.23125,8.6825 C1.5975,8.6825 1.28,9.835 1.19875,11.23125 L0.4825,24.895 C0.3625,26.81 0.52375,27.8475 2.23625,27.8475 L4.26875,27.8475 Z" fill="#3C3C3C"></path>
                                    </g>
                                </g>
                            </g>
                        </g>
                    </g>
                </g>
            </g>
        </g>
    </g>
</svg>