<?xml version="1.0" encoding="UTF-8" standalone="no"?>
<svg width="41px" height="41px" viewBox="0 0 41 41" version="1.1" xmlns="http://www.w3.org/2000/svg" xmlns:xlink="http://www.w3.org/1999/xlink">
    <!-- Generator: Sketch 41.2 (35397) - http://www.bohemiancoding.com/sketch -->
    <title>Expand</title>
    <desc>Created with Sketch.</desc>
    <defs>
        <polygon id="path-1" points="0 40 40 40 40 0 0 0"></polygon>
    </defs>
    <g stroke="none" stroke-width="1" fill="none" fill-rule="evenodd">
        <g transform="translate(0.452219, 0.237551)">
            <g>
                <g transform="translate(20.000000, 20.000000) scale(1, -1) translate(-20.000000, -20.000000) ">
                    <g transform="translate(0.000000, 0.000500)" fill="#AEAAAA">
                        <polygon points="0 40 0 0.0475 28.35875 0.0475 40 0.0475 40 40"></polygon>
                    </g>
                    <g>
                        <g>
                            <mask id="mask-2" fill="white">
                                <use xlink:href="#path-1"></use>
                            </mask>
                            <g></g>
                            <g mask="url(#mask-2)">
                                <g transform="translate(6.250000, 6.250000)">
                                    <g transform="translate(0.129375, 0.024375)">
                                        <path d="M22.5,17.5 L17.3525,17.50625 L17.3175,22.68375 C17.32375,24.70875 15.66875,26.36375 13.61875,26.3825 C11.5625,26.36875 9.92375,24.73 9.91,22.675 L9.89375,17.51875 L4.7375,17.50125 C2.68375,17.49125 1.0275,15.83375 1.0125,13.77625 C1.0325,11.72625 2.6875,10.07125 4.71125,10.07875 L9.90375,10.05625 L9.895,4.8925 C9.905,2.85375 11.5825,1.17625 13.6225,1.165 C15.68125,1.18125 17.33625,2.8375 17.3475,4.89 L17.33875,10.07125 L22.52125,10.06375 C24.57625,10.07625 26.21625,11.71625 26.2275,13.7725 C26.21875,15.81375 24.5425,17.49125 22.5,17.5" fill="#444443"></path>
                                    </g>
                                    <g transform="translate(0.129375, 0.024375)">
                                        <path d="M22.5,17.5 L17.3525,17.50625 L17.3175,22.68375 C17.32375,24.70875 15.66875,26.36375 13.61875,26.3825 C11.5625,26.36875 9.92375,24.73 9.91,22.675 L9.89375,17.51875 L4.7375,17.50125 C2.68375,17.49125 1.0275,15.83375 1.0125,13.77625 C1.0325,11.72625 2.6875,10.07125 4.71125,10.07875 L9.90375,10.05625 L9.895,4.8925 C9.905,2.85375 11.5825,1.17625 13.6225,1.165 C15.68125,1.18125 17.33625,2.8375 17.3475,4.89 L17.33875,10.07125 L22.52125,10.06375 C24.57625,10.07625 26.21625,11.71625 26.2275,13.7725 C26.21875,15.81375 24.5425,17.49125 22.5,17.5 Z" stroke="#AEAAAA" stroke-width="2.5"></path>
                                    </g>
                                </g>
                            </g>
                        </g>
                    </g>
                </g>
            </g>
        </g>
    </g>
</svg>