<?xml version="1.0" encoding="UTF-8" standalone="no"?>
<svg width="41px" height="41px" viewBox="0 0 41 41" version="1.1" xmlns="http://www.w3.org/2000/svg" xmlns:xlink="http://www.w3.org/1999/xlink">
    <!-- Generator: Sketch 41.2 (35397) - http://www.bohemiancoding.com/sketch -->
    <title>FileOpen</title>
    <desc>Created with Sketch.</desc>
    <defs>
        <polygon id="path-1" points="0 40 40 40 40 0 0 0"></polygon>
        <path d="M12.497927,6.25 L12.497927,1.66375 C12.497927,0.40625 14.019177,-0.32125 15.001677,0.50375 L24.156677,8.13 C24.881677,8.72875 24.881677,9.86375 24.156677,10.47125 L15.001677,18.1025 C14.019177,18.9175 12.497927,18.1975 12.497927,16.92375 L12.497927,12.35625 L0.117927002,12.35625 L0.117927002,6.25 L12.497927,6.25 Z" id="path-3"></path>
        <mask id="mask-4" maskContentUnits="userSpaceOnUse" maskUnits="objectBoundingBox" x="-2" y="-2" width="28.5825" height="22.295541">
            <rect x="-1.882073" y="-1.84730844" width="28.5825" height="22.295541" fill="white"></rect>
            <use xlink:href="#path-3" fill="black"></use>
        </mask>
    </defs>
    <g stroke="none" stroke-width="1" fill="none" fill-rule="evenodd">
        <g transform="translate(-15.000000, -16.000000)">
            <g transform="translate(15.216797, 15.640625)">
                <g transform="translate(0.587402, 0.859375)">
                    <g transform="translate(20.000000, 20.000000) scale(1, -1) translate(-20.000000, -20.000000) ">
                        <g>
                            <g>
                                <mask id="mask-2" fill="white">
                                    <use xlink:href="#path-1"></use>
                                </mask>
                                <g></g>
                                <g mask="url(#mask-2)">
                                    <g transform="translate(5.000000, -1.250000)">
                                        <g transform="translate(0.922875, 0.180625)">
                                            <path d="M2.5,11.25 L9.67,11.25 L9.67,3.57125 L9.69,3.57125 L12.10625,3.57125 L16.82,3.57125 L22.81375,3.57125 C24.7925,3.57125 26.405,5.25375 26.405,7.315 L26.405,34.81875 C26.405,35.84125 26.03125,36.7625 25.35,37.475 C24.68125,38.1925 23.78125,38.5675 22.81375,38.5675 L6.10625,38.5675 C5.14875,38.5675 4.24,38.1925 3.55875,37.475 C2.885,36.7625 2.5,35.84125 2.5,34.81875 L2.5,11.25 Z M0.12,11.25 L0.12,11.25 L0.12,34.81875 C0.12,36.55375 0.80125,38.12125 1.87875,39.2525 C2.9525,40.36875 4.45,41.06875 6.10625,41.06875 L22.81375,41.06875 C24.47125,41.06875 25.95,40.36875 27.0375,39.2525 C28.115,38.12125 28.79125,36.55375 28.79125,34.81875 L28.79125,7.315 C28.79125,3.87125 26.1325,1.06875 22.81375,1.06875 L16.82,1.06875 L12.10625,1.06875 L9.69,1.06875 C9.04,1.06875 8.44875,1.335 7.98625,1.80125 L0.81875,9.30625 C0.40625,9.7575 0.15875,10.35125 0.12,10.98125 L0.12,11.25 L0.12,11.25 Z" fill="#737372"></path>
                                        </g>
                                        <g transform="translate(10.297875, 15.714750)">
                                            <g>
                                                <use fill="#FFFFFF" fill-rule="evenodd" xlink:href="#path-3"></use>
                                                <use stroke="#FFFFFF" mask="url(#mask-4)" stroke-width="4" xlink:href="#path-3"></use>
                                            </g>
                                            <path d="M12.5,6.25 L12.5,1.66375 C12.5,0.40625 14.02125,-0.32125 15.00375,0.50375 L24.15875,8.13 C24.88375,8.72875 24.88375,9.86375 24.15875,10.47125 L15.00375,18.1025 C14.02125,18.9175 12.5,18.1975 12.5,16.92375 L12.5,12.35625 L0.12,12.35625 L0.12,6.25 L12.5,6.25 Z" fill="#3C3C3C"></path>
                                        </g>
                                    </g>
                                </g>
                            </g>
                        </g>
                    </g>
                </g>
            </g>
        </g>
    </g>
</svg>