<?xml version="1.0" encoding="UTF-8" standalone="no"?>
<svg width="41px" height="41px" viewBox="0 0 41 41" version="1.1" xmlns="http://www.w3.org/2000/svg" xmlns:xlink="http://www.w3.org/1999/xlink">
    <!-- Generator: Sketch 41.2 (35397) - http://www.bohemiancoding.com/sketch -->
    <title>FolderOpen</title>
    <desc>Created with Sketch.</desc>
    <defs></defs>
    <g stroke="none" stroke-width="1" fill="none" fill-rule="evenodd">
        <g transform="translate(-18.000000, -16.000000)" fill="#8C8C8C">
            <g transform="translate(17.160156, 15.263055)">
                <g transform="translate(1.274121, 5.878255)">
                    <path d="M18.7921253,4.44972191 L31.0224518,4.44901446 C33.5092624,4.44887062 35.5252207,6.47137021 35.5252207,8.95286632 L35.5252207,12.0920846 C35.2873068,12.050483 35.0403346,12.0289714 34.7850853,12.0289714 L9.59752739,12.0289714 C6.62969302,12.0289714 3.54732637,14.9282148 2.5964665,18.6117252 L0.940811487,25.0255227 C0.796027294,25.5863983 0.708186705,26.1365858 0.672972611,26.6682281 L0.672972611,4.45076999 L0.672972611,2.44041175 C0.672972611,1.33012156 1.56994363,0.433184873 2.67863203,0.437055343 L12.6659226,0.471921326 C13.7736177,0.475788328 15.3155869,1.09952422 16.1131285,1.86808243 L18.7921253,4.44972191 Z"></path>
                    <path d="M10.5070909,14.3487956 L34.4623109,14.3487956 C36.829264,14.3487956 38.1335899,16.7291691 37.3750115,19.6678057 L35.8003618,25.7677988 C35.0420488,28.705407 32.5140547,31.086809 30.1415671,31.086809 L6.18634707,31.086809 C3.81939402,31.086809 2.51506809,28.7064355 3.27364654,25.7677988 L4.84490223,19.6667048 C5.60660918,16.7301975 8.13460334,14.3487956 10.5070909,14.3487956 Z"></path>
                </g>
            </g>
        </g>
    </g>
</svg>