<?xml version="1.0" encoding="UTF-8" standalone="no"?>
<svg width="41px" height="41px" viewBox="0 0 41 41" version="1.1" xmlns="http://www.w3.org/2000/svg" xmlns:xlink="http://www.w3.org/1999/xlink">
    <!-- Generator: Sketch 41.2 (35397) - http://www.bohemiancoding.com/sketch -->
    <title>Frame</title>
    <desc>Created with Sketch.</desc>
    <defs>
        <polygon id="path-1" points="0 40 40 40 40 0 0 0"></polygon>
    </defs>
    <g stroke="none" stroke-width="1" fill="none" fill-rule="evenodd">
        <g transform="translate(0.452219, 0.237551)">
            <g>
                <g transform="translate(20.000000, 20.000000) scale(1, -1) translate(-20.000000, -20.000000) ">
                    <polygon fill="#3C3C3C" points="0 0 13.2025 0 13.2025 40 0 40"></polygon>
                    <polygon fill="#3C3C3C" points="26.79625 0 40 0 40 40 26.79625 40 26.79625 0"></polygon>
                    <polygon fill="#3C3C3C" points="0 26.79625 40 26.79625 40 40 0 40"></polygon>
                    <polygon fill="#3C3C3C" points="0 0 40 0 40 13.2025 0 13.2025"></polygon>
                    <g>
                        <g>
                            <mask id="mask-2" fill="white">
                                <use xlink:href="#path-1"></use>
                            </mask>
                            <g></g>
                            <g mask="url(#mask-2)" stroke-width="3.75" stroke="#AEAAAA">
                                <g transform="translate(1.250000, 1.250000)">
                                    <polygon points="36.875 0.625 0.625 0.625 0.625 36.875 36.875 36.875"></polygon>
                                </g>
                            </g>
                        </g>
                    </g>
                </g>
            </g>
        </g>
    </g>
</svg>