<?xml version="1.0" encoding="UTF-8" standalone="no"?>
<svg width="40px" height="41px" viewBox="0 0 40 41" version="1.1" xmlns="http://www.w3.org/2000/svg" xmlns:xlink="http://www.w3.org/1999/xlink">
    <!-- Generator: Sketch 41.2 (35397) - http://www.bohemiancoding.com/sketch -->
    <title>Gateswap</title>
    <desc>Created with Sketch.</desc>
    <defs></defs>
    <g stroke="none" stroke-width="1" fill="none" fill-rule="evenodd">
        <g transform="translate(-1.000000, 0.000000)">
            <g transform="translate(1.000000, 0.000000)">
                <g transform="translate(3.000000, 0.898104)">
                    <g transform="translate(18.323480, 1.439024)">
                        <g transform="translate(0.759943, 19.865907)">
                            <g transform="translate(0.565774, 1.803469)" fill="#8C8C8C">
                                <g transform="translate(0.000000, 0.584933)">
                                    <path d="M1.29380355,3.0427267 C1.00114237,3.0427267 0.766217071,2.46154915 0.766217071,1.73268664 C0.766217071,0.998511713 1.00114237,0.40670935 1.29380355,0.40670935 L5.66978495,0.40670935 C5.96095296,0.40670935 6.20135321,0.998511713 6.20135321,1.73268664 C6.20135321,2.46154915 5.96095296,3.0427267 5.66978495,3.0427267"></path>
                                    <path d="M1.31360743,11.0426761 C1.01008314,11.0426761 0.766217071,10.4614986 0.766217071,9.73263604 C0.766217071,8.99846112 1.01008314,8.40665875 1.31360743,8.40665875 L6.06166929,8.40665875 C6.36414695,8.40665875 6.08050873,9.07177236 6.08050873,9.8048848 C6.08050873,10.5348098 6.36414695,11.0426761 6.06166929,11.0426761"></path>
                                </g>
                            </g>
                            <g transform="translate(2.479608, 11.823534)"></g>
                            <g transform="translate(7.371737, 0.046124)" stroke-width="3" stroke="#8C8C8C" fill="#8C8C8C">
                                <path d="M-1.10913988e-13,15.7044803 L-1.10913988e-13,0.357868942 C-1.10913988e-13,0.357868942 7.85665803,-0.223651453 7.8385072,7.69354916 C7.81799941,16.6388313 1.50384716,15.7044803 -1.10913988e-13,15.7044803 Z"></path>
                            </g>
                        </g>
                        <g transform="translate(0.784751, 0.396825)">
                            <g transform="translate(0.574187, 1.687999)" fill="#3C3C3C">
                                <g transform="translate(0.000000, 0.547481)">
                                    <path d="M1.34627433,2.84791065 C1.04989177,2.84791065 0.811979234,2.30394404 0.811979234,1.62174826 C0.811979234,0.934580205 1.04989177,0.380669052 1.34627433,0.380669052 L5.77789927,0.380669052 C6.07276967,0.380669052 6.31622678,0.934580205 6.31622678,1.62174826 C6.31622678,2.30394404 6.07276967,2.84791065 5.77789927,2.84791065"></path>
                                    <path d="M1.36633003,10.3356489 C1.05894622,10.3356489 0.811979234,9.7916823 0.811979234,9.10948652 C0.811979234,8.42231846 1.05894622,7.86840731 1.36633003,7.86840731 L6.17476669,7.86840731 C6.48109055,7.86840731 6.19384568,8.49093582 6.19384568,9.17710942 C6.19384568,9.86029966 6.48109055,10.3356489 6.17476669,10.3356489"></path>
                                </g>
                            </g>
                            <g transform="translate(2.475984, 11.066511)"></g>
                            <g transform="translate(7.440852, 0.043171)" stroke-width="3" stroke="#3C3C3C" fill="#3C3C3C">
                                <path d="M-2.21827976e-13,14.6989727 L-2.21827976e-13,0.334955739 C-2.21827976e-13,0.334955739 7.97347549,-0.209331767 7.95505478,7.20095584 C7.93424207,15.5735002 1.52620726,14.6989727 -2.21827976e-13,14.6989727 Z"></path>
                            </g>
                        </g>
                    </g>
                    <g transform="translate(0.750000, 0.440072)">
                        <path d="M11.5898621,6.33846601 C5.47447282,7.60451766 0.878048874,13.0215802 0.878048874,19.5121951 C0.878048874,25.5226554 4.81956999,30.6125241 10.258856,32.338045" stroke="#3C3C3C" stroke-width="4"></path>
                        <path d="M4.18679365,11.671251 C3.73044547,11.647441 3.39952632,11.2286659 3.46757824,10.7538674 L4.50954521,2.6574874 C4.56158491,1.92638175 5.47027822,1.63646054 5.9266264,2.21770354 L7.44778701,4.15611394 L11.5188931,9.36068982 L13.0533973,11.3271119 C13.4883958,11.884545 13.0427224,12.7571098 12.3568658,12.6828787 L4.18679365,11.671251 Z" fill="#3C3C3C" transform="translate(8.342242, 7.297916) scale(1, -1) rotate(-123.000000) translate(-8.342242, -7.297916) "></path>
                        <path d="M4.18679365,35.720266 C3.73044547,35.696456 3.39952632,35.2776809 3.46757824,34.8028824 L4.50954521,26.7065024 C4.56158491,25.9753968 5.47027822,25.6854756 5.9266264,26.2667186 L7.44778701,28.2051289 L11.5188931,33.4097048 L13.0533973,35.3761269 C13.4883958,35.93356 13.0427224,36.8061248 12.3568658,36.7318937 L4.18679365,35.720266 Z" fill="#3C3C3C" transform="translate(8.342242, 31.346931) rotate(-123.000000) translate(-8.342242, -31.346931) "></path>
                    </g>
                </g>
            </g>
        </g>
    </g>
</svg>