<?xml version="1.0" encoding="UTF-8" standalone="no"?>
<svg width="41px" height="41px" viewBox="0 0 41 41" version="1.1" xmlns="http://www.w3.org/2000/svg" xmlns:xlink="http://www.w3.org/1999/xlink">
    <!-- Generator: Sketch 41.2 (35397) - http://www.bohemiancoding.com/sketch -->
    <title>Go_D</title>
    <desc>Created with Sketch.</desc>
    <defs>
        <polygon id="path-1" points="0 40 40 40 40 0 0 0"></polygon>
    </defs>
    <g stroke="none" stroke-width="1" fill="none" fill-rule="evenodd">
        <g transform="translate(0.452219, 0.237551)">
            <g transform="translate(0.500000, 0.000000)">
                <g transform="translate(20.000000, 20.000000) scale(1, -1) translate(-20.000000, -20.000000) ">
                    <g>
                        <g>
                            <mask id="mask-2" fill="white">
                                <use xlink:href="#path-1"></use>
                            </mask>
                            <g></g>
                            <g mask="url(#mask-2)">
                                <g transform="translate(10.000000, -1.250000)">
                                    <g transform="translate(0.053750, 0.053750)">
                                        <path d="M18.75,10 C18.75,5.13375 14.8075,1.19625 9.94625,1.19625 C5.08625,1.19625 1.14375,5.13375 1.14375,10 C1.14375,14.85875 5.08625,18.80125 9.94625,18.80125 C14.8075,18.80125 18.75,14.85875 18.75,10" fill="#5C5C5B"></path>
                                    </g>
                                    <g transform="translate(1.051250, 23.446875)">
                                        <path d="M17.75,9 C17.75,4.14 13.81,0.19625 8.9475,0.19625 C4.0875,0.19625 0.145,4.14 0.145,9 C0.145,13.8625 4.0875,17.8025 8.9475,17.8025 C13.81,17.8025 17.75,13.8625 17.75,9" fill="#AEAAAA"></path>
                                    </g>
                                </g>
                            </g>
                        </g>
                    </g>
                </g>
            </g>
        </g>
    </g>
</svg>