<?xml version="1.0" encoding="UTF-8" standalone="no"?>
<svg width="40px" height="40px" viewBox="0 0 40 40" version="1.1" xmlns="http://www.w3.org/2000/svg" xmlns:xlink="http://www.w3.org/1999/xlink">
    <!-- Generator: Sketch 41.2 (35397) - http://www.bohemiancoding.com/sketch -->
    <title>Group</title>
    <desc>Created with Sketch.</desc>
    <defs></defs>
    <g stroke="none" stroke-width="1" fill="none" fill-rule="evenodd">
        <g>
            <g transform="translate(-0.634726, -0.618376)">
                <rect x="1" y="1" width="40" height="40"></rect>
                <g transform="translate(2.134726, 1.000000)">
                    <g transform="translate(0.500000, 0.730200)" stroke-width="2.56923077" stroke="#221F20">
                        <polyline points="18.4021538 16.0496923 18.4021538 18.0481538 16.4036923 18.0481538"></polyline>
                        <path d="M14.3855385,18.0478462 L4.29169231,18.0478462" stroke-dasharray="3.532307779687083,2.01846160779991"></path>
                        <polyline points="3.28338462 18.0478462 1.28492308 18.0478462 1.28492308 16.0493846"></polyline>
                        <path d="M1.28446154,14.0312308 L1.28446154,3.93738462" stroke-dasharray="3.532307779687083,2.01846160779991"></path>
                        <polyline points="1.28446154 2.92907692 1.28446154 0.930615385 3.28292308 0.930615385"></polyline>
                        <path d="M5.302,0.930923077 L15.3943077,0.930923077" stroke-dasharray="3.532307779687083,2.01846160779991"></path>
                        <polyline points="16.404 0.930923077 18.4024615 0.930923077 18.4024615 2.92938462"></polyline>
                        <path d="M18.4021538,4.94769231 L18.4021538,15.04" stroke-dasharray="3.532307779687083,2.01846160779991"></path>
                    </g>
                    <polygon fill="#020302" points="22.0463 33.9513 26.9873 29.2823 30.8023 38.1853 33.4493 36.9923 29.5133 28.2093 36.4843 27.6313 22.1113 14.1283"></polygon>
                </g>
            </g>
        </g>
    </g>
</svg>