<?xml version="1.0" encoding="UTF-8" standalone="no"?>
<svg width="41px" height="41px" viewBox="0 0 41 41" version="1.1" xmlns="http://www.w3.org/2000/svg" xmlns:xlink="http://www.w3.org/1999/xlink">
    <!-- Generator: Sketch 41.2 (35397) - http://www.bohemiancoding.com/sketch -->
    <title>HasSupply</title>
    <desc>Created with Sketch.</desc>
    <defs>
        <polygon id="path-1" points="0 40 40 40 40 0 0 0"></polygon>
    </defs>
    <g stroke="none" stroke-width="1" fill="none" fill-rule="evenodd">
        <g transform="translate(0.073313, 0.209231)">
            <g transform="translate(0.689453, 0.014160)">
                <g transform="translate(20.000000, 20.000000) scale(1, -1) translate(-20.000000, -20.000000) ">
                    <g>
                        <g>
                            <mask id="mask-2" fill="white">
                                <use xlink:href="#path-1"></use>
                            </mask>
                            <g></g>
                            <g mask="url(#mask-2)">
                                <g transform="translate(3.750000, -1.250000)">
                                    <g stroke-width="1" fill="none" transform="translate(26.049750, 1.091875)">
                                        <path d="M0,33.75 C0,14.85 0.005,9.6475 0.005,0.1575" stroke="#444443" stroke-width="3.75" fill="#737372"></path>
                                    </g>
                                    <g stroke-width="1" fill="none" transform="translate(7.490875, 10.572500)">
                                        <path d="M1.25,0 C1.25,23.1925 1.2475,19.03625 1.245,30.6775" stroke="#444443" stroke-width="3.75"></path>
                                    </g>
                                    <g stroke-width="1" fill="none" transform="translate(18.552250, 23.020625)">
                                        <path d="M7.5,13.75 C11.07375,13.75 13.975,10.85125 13.975,7.27625 C13.975,3.70125 11.07375,0.805 7.5,0.805 C3.92625,0.805 1.0275,3.70125 1.0275,7.27625 C1.0275,10.85125 3.92625,13.75 7.5,13.75" fill="#444443"></path>
                                    </g>
                                    <polygon fill="#444443" points="0.08875 15.87125 17.38875 15.87125 17.38875 8.125 0.08875 8.125 0.08875 15.87125"></polygon>
                                </g>
                            </g>
                        </g>
                    </g>
                </g>
            </g>
        </g>
    </g>
</svg>