<?xml version="1.0" encoding="UTF-8" standalone="no"?>
<svg width="41px" height="41px" viewBox="0 0 41 41" version="1.1" xmlns="http://www.w3.org/2000/svg" xmlns:xlink="http://www.w3.org/1999/xlink">
    <!-- Generator: Sketch 41.2 (35397) - http://www.bohemiancoding.com/sketch -->
    <title>HelpTopic</title>
    <desc>Created with Sketch.</desc>
    <defs>
        <polygon id="path-1" points="0 40 40 40 40 0 0 0"></polygon>
    </defs>
    <g stroke="none" stroke-width="1" fill="none" fill-rule="evenodd">
        <g transform="translate(-0.047781, 0.237551)">
            <g transform="translate(0.750000, 0.000000)">
                <g transform="translate(20.000000, 20.000000) scale(1, -1) translate(-20.000000, -20.000000) ">
                    <polygon fill="#AEAAAA" points="0.01625 0.0325 39.95875 0.0325 39.95875 40 0.01625 40 0.01625 0.0325"></polygon>
                    <g>
                        <g>
                            <mask id="mask-2" fill="white">
                                <use xlink:href="#path-1"></use>
                            </mask>
                            <g></g>
                            <g mask="url(#mask-2)">
                                <g transform="translate(3.750000, 9.750000)">
                                    <g transform="translate(15.048875, 16.353125)">
                                        <path d="M2.5,4 C1.44,4 0.58875,3.1575 0.58875,2.1 C0.58875,1.0375 1.44,0.18 2.5,0.18 L15.58625,0.18 C16.6425,0.18 17.5125,1.0375 17.5125,2.1 C17.5125,3.1575 16.6425,4 15.58625,4" fill="#444443"></path>
                                    </g>
                                    <g transform="translate(15.048875, 8.254375)">
                                        <path d="M2.5,4 C1.44,4 0.58875,3.1575 0.58875,2.09875 C0.58875,1.04 1.44,0.17875 2.5,0.17875 L15.58625,0.17875 C16.6425,0.17875 17.5125,1.04 17.5125,2.09875 C17.5125,3.1575 16.6425,4 15.58625,4" fill="#444443"></path>
                                    </g>
                                    <g transform="translate(15.048875, 0.159875)">
                                        <path d="M2.5,4 C1.44,4 0.58875,3.15375 0.58875,2.0975 C0.58875,1.04 1.44,0.1775 2.5,0.1775 L10.4425,0.1775 C11.49625,0.1775 12.37,1.04 12.37,2.0975 C12.37,3.15375 11.49625,4 10.4425,4" fill="#444443"></path>
                                    </g>
                                    <g transform="translate(0.163625, 7.033500)">
                                        <path d="M3.75,0 C3.64625,1.1 3.6975,2.035 3.91,2.80875 C4.12,3.58 4.41,4.245 4.78,4.805 C5.15125,5.365 5.5725,5.85125 6.04875,6.265 C6.52625,6.67625 6.96875,7.0725 7.38,7.45125 C7.7925,7.8325 8.135,8.22875 8.41125,8.6425 C8.68625,9.055 8.82375,9.54625 8.82375,10.11625 C8.82375,10.85625 8.6175,11.44875 8.20625,11.8925 C7.7925,12.33625 7.0575,12.5575 6.00125,12.5575 C5.66375,12.5575 5.305,12.52 4.9225,12.4475 C4.5425,12.3725 4.1625,12.26625 3.78375,12.13 C3.40125,11.9925 3.0375,11.8325 2.68875,11.65375 C2.34,11.47375 2.02625,11.28875 1.75375,11.09875 L0.1675,14.1425 C0.97,14.6925 1.89625,15.1475 2.9425,15.50625 C3.9875,15.865 5.25125,16.045 6.7325,16.045 C8.7175,16.045 10.27125,15.565 11.3925,14.6025 C12.51125,13.64125 13.0725,12.34625 13.0725,10.71875 C13.0725,9.64 12.92875,8.7475 12.64375,8.04 C12.35875,7.33 12.005,6.7275 11.5825,6.23125 C11.15875,5.73375 10.695,5.295 10.1875,4.9175 C9.67875,4.535 9.215,4.12875 8.7925,3.69625 C8.3675,3.26125 8.01,2.76 7.715,2.1875 C7.41875,1.61875 7.27,0.89 7.27,0 L3.75,0 Z" fill="#444443"></path>
                                    </g>
                                    <g transform="translate(3.558625, 0.337875)">
                                        <path d="M1.5,0 C0.73625,0 0.17625,0.3225 0.17625,1.3225 L0.17625,2.6725 C0.17625,3.66875 0.73625,3.99375 1.5,3.99375 L3.11375,3.99375 C3.8775,3.99375 4.43625,3.66875 4.43625,2.6725 L4.43625,1.3225 C4.43625,0.3225 3.8775,0 3.11375,0" fill="#444443"></path>
                                    </g>
                                </g>
                            </g>
                        </g>
                    </g>
                </g>
            </g>
        </g>
    </g>
</svg>