<?xml version="1.0" encoding="UTF-8" standalone="no"?>
<svg width="41px" height="41px" viewBox="0 0 41 41" version="1.1" xmlns="http://www.w3.org/2000/svg" xmlns:xlink="http://www.w3.org/1999/xlink">
    <!-- Generator: Sketch 41.2 (35397) - http://www.bohemiancoding.com/sketch -->
    <title>Help</title>
    <desc>Created with Sketch.</desc>
    <defs>
        <polygon id="path-1" points="0 40 40 40 40 0 0 0"></polygon>
    </defs>
    <g stroke="none" stroke-width="1" fill="none" fill-rule="evenodd">
        <g transform="translate(0.452219, 0.237551)">
            <g>
                <g transform="translate(20.000000, 20.000000) scale(1, -1) translate(-20.000000, -20.000000) ">
                    <g>
                        <g>
                            <mask id="mask-2" fill="white">
                                <use xlink:href="#path-1"></use>
                            </mask>
                            <g></g>
                            <g mask="url(#mask-2)">
                                <g fill="#3C3C3C">
                                    <path d="M40,20 C40,8.95375 31.04625,0 20,0 C8.955,0 0,8.95375 0,20 C0,31.045 8.955,40 20,40 C31.04625,40 40,31.045 40,20"></path>
                                </g>
                                <g transform="translate(10.278875, 9.980500)" fill="#FFFFFF">
                                    <path d="M6.25,0 C6.09375,1.63875 6.1725,3.03125 6.48625,4.1825 C6.80125,5.3325 7.23375,6.32375 7.78625,7.15875 C8.3375,7.99375 8.9675,8.71875 9.675,9.3325 C10.38625,9.94625 11.04625,10.5375 11.66,11.10375 C12.275,11.67125 12.785,12.26125 13.195,12.87625 C13.605,13.49 13.81,14.2225 13.81,15.0725 C13.81,16.175 13.5025,17.0575 12.89,17.71875 C12.275,18.38 11.17875,18.71125 9.605,18.71125 C9.10125,18.71125 8.5675,18.65625 7.9975,18.545 C7.43125,18.435 6.865,18.2775 6.29875,18.0725 C5.73,17.8675 5.1875,17.63125 4.6675,17.365 C4.1475,17.09625 3.6825,16.82125 3.27375,16.5375 L0.91125,21.07375 C2.10875,21.8925 3.4875,22.57 5.04625,23.105 C6.60375,23.64125 8.48625,23.90875 10.69375,23.90875 C13.65125,23.90875 15.96875,23.19125 17.63875,21.75875 C19.30625,20.325 20.14125,18.39625 20.14125,15.97 C20.14125,14.36375 19.92875,13.0325 19.50375,11.97875 C19.07875,10.9225 18.55125,10.025 17.92125,9.285 C17.29,8.545 16.59875,7.89 15.84125,7.32375 C15.085,6.75625 14.39375,6.15 13.76375,5.505 C13.13125,4.85875 12.5975,4.11125 12.1575,3.26 C11.71625,2.41 11.49625,1.32375 11.49625,0 L6.25,0 Z"></path>
                                </g>
                                <g transform="translate(15.734250, 0.000000)" fill="#FFFFFF">
                                    <path d="M2.5,0 C1.3625,0 0.53,0.48125 0.53,1.96875 L0.53,3.9825 C0.53,5.46875 1.3625,5.95125 2.5,5.95125 L4.90625,5.95125 C6.0425,5.95125 6.875,5.46875 6.875,3.9825 L6.875,1.96875 C6.875,0.48125 6.0425,0 4.90625,0"></path>
                                </g>
                            </g>
                        </g>
                    </g>
                </g>
            </g>
        </g>
    </g>
</svg>