<?xml version="1.0" encoding="UTF-8" standalone="no"?>
<svg width="41px" height="41px" viewBox="0 0 41 41" version="1.1" xmlns="http://www.w3.org/2000/svg" xmlns:xlink="http://www.w3.org/1999/xlink">
    <!-- Generator: Sketch 41.2 (35397) - http://www.bohemiancoding.com/sketch -->
    <title>HelpBookOpen</title>
    <desc>Created with Sketch.</desc>
    <defs>
        <polygon id="path-1" points="0 40 40 40 40 0 0 0"></polygon>
    </defs>
    <g stroke="none" stroke-width="1" fill="none" fill-rule="evenodd">
        <g transform="translate(0.452219, 0.237551)">
            <g>
                <g transform="translate(20.000000, 20.000000) scale(1, -1) translate(-20.000000, -20.000000) ">
                    <g>
                        <g>
                            <mask id="mask-2" fill="white">
                                <use xlink:href="#path-1"></use>
                            </mask>
                            <g></g>
                            <g mask="url(#mask-2)">
                                <g transform="translate(-1.250000, 1.250000)">
                                    <g transform="translate(0.636625, 0.221000)">
                                        <path d="M10,32.5 C6.62125,32.5 3.73625,31.5425 1.76625,30.23375 C0.615,29.46625 0.615,28.56875 0.615,26.9575 C0.615,26.9575 0.61375,10.145 0.61375,5.11125 C0.61375,5.11125 0.47375,2.90125 3.12,3.265 L10,4.3425 C16.08375,5.255 18.25,1.8 19.5,0.54125 L19.36875,27.46625 C19.36875,27.46625 18.585,32.49125 10,32.5" fill="#444443"></path>
                                    </g>
                                    <g transform="translate(21.867625, 0.348500)">
                                        <path d="M10,32.5 C13.36875,32.5 16.24875,31.5425 18.24375,30.23375 C19.3825,29.46625 19.3825,28.56875 19.3825,26.9575 L19.3825,5.0925 C19.3825,5.0925 19.53625,2.85125 16.86375,3.265 L10,4.3425 C3.92,5.25625 2.02625,1.68625 0.78,0.4275 L0.78,27.67125 C0.78,27.67125 1.405,32.49125 10,32.5" fill="#444443"></path>
                                    </g>
                                    <g transform="translate(0.637250, 3.488750)">
                                        <path d="M10,32.5 C6.62125,32.5 3.735,31.54375 1.76625,30.2325 C0.615,29.46625 0.615,28.57 0.615,26.95875 L0.615,5.09125 C0.615,5.09125 0.465,2.85 3.12,3.265 L10,4.3425 C16.08375,5.255 18.245,1.835 19.495,0.575 L19.495,27.46625 C19.495,27.46625 18.58375,32.49125 10,32.5" fill="#9E9E9E"></path>
                                    </g>
                                    <g transform="translate(21.866500, 3.356375)">
                                        <path d="M10,32.5 C13.36875,32.5 16.24875,31.54375 18.24375,30.2325 C19.3825,29.46625 19.3825,28.57 19.3825,26.95875 L19.3825,5.09125 C19.3825,5.09125 19.53625,2.85 16.86375,3.265 L10,4.34125 C3.92,5.255 2.02625,1.68875 0.78,0.42875 L0.78,27.32125 C0.78,27.32125 1.405,32.49125 10,32.5" fill="#9E9E9E"></path>
                                    </g>
                                    <g transform="translate(26.608875, 26.794375)">
                                        <path d="M1.25,2.5 C0.59875,2.5 0.07625,1.98 0.07625,1.33 C0.07625,0.68125 0.59875,0.15125 1.25,0.15125 L10.4625,0.15125 C11.11125,0.15125 11.64625,0.68125 11.64625,1.33 C11.64625,1.98 11.11125,2.5 10.4625,2.5" fill="#444443"></path>
                                    </g>
                                    <g transform="translate(26.608875, 20.466250)">
                                        <path d="M1.25,2.5 C0.59875,2.5 0.07625,1.98 0.07625,1.33 C0.07625,0.68125 0.59875,0.15125 1.25,0.15125 L10.4625,0.15125 C11.11125,0.15125 11.64625,0.68125 11.64625,1.33 C11.64625,1.98 11.11125,2.5 10.4625,2.5" fill="#444443"></path>
                                    </g>
                                    <g transform="translate(26.608875, 13.981875)">
                                        <path d="M1.25,2.5 C0.59875,2.5 0.07625,1.98 0.07625,1.33 C0.07625,0.68125 0.59875,0.15125 1.25,0.15125 L10.4625,0.15125 C11.11125,0.15125 11.64625,0.68125 11.64625,1.33 C11.64625,1.98 11.11125,2.5 10.4625,2.5" fill="#444443"></path>
                                    </g>
                                    <g transform="translate(4.577625, 26.794375)">
                                        <path d="M1.25,2.5 C0.59875,2.5 0.07625,1.98 0.07625,1.33 C0.07625,0.68125 0.59875,0.15125 1.25,0.15125 L10.4625,0.15125 C11.11125,0.15125 11.64625,0.68125 11.64625,1.33 C11.64625,1.98 11.11125,2.5 10.4625,2.5" fill="#444443"></path>
                                    </g>
                                    <g transform="translate(4.577625, 20.466250)">
                                        <path d="M1.25,2.5 C0.59875,2.5 0.07625,1.98 0.07625,1.33 C0.07625,0.68125 0.59875,0.15125 1.25,0.15125 L10.4625,0.15125 C11.11125,0.15125 11.64625,0.68125 11.64625,1.33 C11.64625,1.98 11.11125,2.5 10.4625,2.5" fill="#444443"></path>
                                    </g>
                                    <g transform="translate(4.577625, 13.981875)">
                                        <path d="M1.25,2.5 C0.59875,2.5 0.07625,1.98 0.07625,1.33 C0.07625,0.68125 0.59875,0.15125 1.25,0.15125 L10.4625,0.15125 C11.11125,0.15125 11.64625,0.68125 11.64625,1.33 C11.64625,1.98 11.11125,2.5 10.4625,2.5" fill="#444443"></path>
                                    </g>
                                </g>
                            </g>
                        </g>
                    </g>
                </g>
            </g>
        </g>
    </g>
</svg>