<?xml version="1.0" encoding="UTF-8" standalone="no"?>
<svg width="41px" height="41px" viewBox="0 0 41 41" version="1.1" xmlns="http://www.w3.org/2000/svg" xmlns:xlink="http://www.w3.org/1999/xlink">
    <!-- Generator: Sketch 41.2 (35397) - http://www.bohemiancoding.com/sketch -->
    <title>Hlp</title>
    <desc>Created with Sketch.</desc>
    <defs>
        <polygon id="path-1" points="0 40 40 40 40 0 0 0"></polygon>
    </defs>
    <g stroke="none" stroke-width="1" fill="none" fill-rule="evenodd">
        <g transform="translate(0.452219, 0.237551)">
            <g transform="translate(0.500000, 0.000000)">
                <g transform="translate(20.000000, 20.000000) scale(1, -1) translate(-20.000000, -20.000000) ">
                    <g>
                        <g>
                            <mask id="mask-2" fill="white">
                                <use xlink:href="#path-1"></use>
                            </mask>
                            <g></g>
                            <g mask="url(#mask-2)">
                                <g transform="translate(2.500000, -0.250000)">
                                    <g transform="translate(0.897875, 0.013125)">
                                        <path d="M0,33.75 L0,32.8175 L0,27.79875 L0,22.79125 L0,17.78125 L0,12.76125 L0,7.76875 L0,6.80875 C0,3.72375 2.13,1.13375 5.01125,0.4025 L5.01125,40.13 C2.13,39.4275 0,36.84625 0,33.75" fill="#3C3C3C"></path>
                                    </g>
                                    <g transform="translate(8.872125, 0.095875)">
                                        <path d="M18.75,40.25 L0.2725,40.25 L0.2725,0.145 L18.75,0.145 C22.39,0.145 25.34,3.1125 25.34,6.72625 L25.34,33.6675 C25.34,37.30875 22.39,40.25 18.75,40.25" fill="#3C3C3C"></path>
                                    </g>
                                    <g transform="translate(13.231250, 15.257375)">
                                        <path d="M5,0 C4.875,1.30875 4.9375,2.42 5.18875,3.3375 C5.44125,4.25375 5.785,5.04625 6.225,5.71 C6.665,6.3775 7.16875,6.95625 7.7325,7.44625 C8.3,7.93625 8.82875,8.40625 9.315,8.85875 C9.80875,9.31125 10.21375,9.78125 10.54125,10.2725 C10.8675,10.7625 11.03375,11.3475 11.03375,12.02625 C11.03375,12.90375 10.78625,13.61 10.2975,14.1375 C9.80875,14.66375 8.9325,14.9275 7.6775,14.9275 C7.275,14.9275 6.84875,14.88375 6.39375,14.795 C5.94375,14.7075 5.49125,14.5825 5.03875,14.42 C4.585,14.25625 4.1525,14.0675 3.73875,13.85375 C3.32375,13.64 2.9525,13.42 2.62625,13.195 L0.7425,16.81375 C1.69625,17.465 2.79625,18.00625 4.04,18.43375 C5.2825,18.86 6.78375,19.075 8.545,19.075 C10.9075,19.075 12.75375,18.5025 14.0875,17.36 C15.41625,16.215 16.0825,14.67625 16.0825,12.74125 C16.0825,11.46 15.9125,10.3975 15.57375,9.55625 C15.235,8.715 14.815,7.9975 14.3125,7.4075 C13.8075,6.8175 13.25625,6.29625 12.6525,5.84375 C12.05,5.39125 11.4975,4.90625 10.995,4.39375 C10.49125,3.87625 10.065,3.28125 9.71375,2.60125 C9.36125,1.9225 9.18625,1.0575 9.18625,0 L5,0 Z" fill="#FFFFFF"></path>
                                    </g>
                                    <g transform="translate(17.092250, 7.295875)">
                                        <path d="M2.5,0 C1.59375,0 0.92875,0.38375 0.92875,1.57125 L0.92875,3.17625 C0.92875,4.3625 1.59375,4.7475 2.5,4.7475 L4.42,4.7475 C5.3275,4.7475 5.99125,4.3625 5.99125,3.17625 L5.99125,1.57125 C5.99125,0.38375 5.3275,0 4.42,0" fill="#FFFFFF"></path>
                                    </g>
                                </g>
                            </g>
                        </g>
                    </g>
                </g>
            </g>
        </g>
    </g>
</svg>