<?xml version="1.0" encoding="UTF-8" standalone="no"?>
<svg width="41px" height="41px" viewBox="0 0 41 41" version="1.1" xmlns="http://www.w3.org/2000/svg" xmlns:xlink="http://www.w3.org/1999/xlink">
    <!-- Generator: Sketch 41.2 (35397) - http://www.bohemiancoding.com/sketch -->
    <title>Hole</title>
    <desc>Created with Sketch.</desc>
    <defs>
        <polygon id="path-1" points="0 40 40 40 40 0 0 0"></polygon>
        <path d="M1.67681961,8.27850686 C0.995700148,7.64370366 0.625,6.96085269 0.625,6.25 C0.625,2.89 8.8825,0.16375 19.06,0.16375 C29.25125,0.16375 37.5,2.89 37.5,6.25 C37.5,6.9651886 37.1251614,7.65203284 36.4365722,8.29011761 C33.8542588,5.80753686 27.0828353,4.040875 19.13475,4.040875 C11.1837648,4.040875 4.30844034,5.80203036 1.67681961,8.27850686 Z" id="path-3"></path>
    </defs>
    <g stroke="none" stroke-width="1" fill="none" fill-rule="evenodd">
        <g transform="translate(-0.368094, -56.762449)">
            <g transform="translate(0.287109, 56.935547)">
                <g transform="translate(0.266602, 0.032227)">
                    <g transform="translate(20.000000, 20.000000) scale(1, -1) translate(-20.000000, -20.000000) ">
                        <g>
                            <g>
                                <mask id="mask-2" fill="white">
                                    <use xlink:href="#path-1"></use>
                                </mask>
                                <g></g>
                                <g mask="url(#mask-2)">
                                    <g transform="translate(0.000000, 6.000000)">
                                        <g transform="translate(1.020500, 0.788625)">
                                            <path d="M36.265061,11.3367963 C37.0626235,10.6119151 37.5,9.82394688 37.5,9 C37.5,8.84125 37.44375,6.22125 37.44375,6.22125 C36.76375,2.8575 28.79875,0.21125 19.07125,0.21125 C9.325,0.21125 1.195,2.8575 0.51625,6.22125 C0.51625,6.22125 0.4575,8.84125 0.4575,9 C0.4575,9.82326257 0.902815833,10.6106062 1.71272094,11.3349901 C4.41486444,8.90668871 11.2184245,7.18875 19.07125,7.18875 C26.9109112,7.18875 33.6057945,8.90754065 36.265061,11.3367963 Z" fill="#5C5C5B"></path>
                                        </g>
                                        <g transform="translate(0.957000, 3.936500)">
                                            <g>
                                                <mask id="mask-4" fill="white">
                                                    <use xlink:href="#path-3"></use>
                                                </mask>
                                                <use fill="#8A8A89" xlink:href="#path-3"></use>
                                            </g>
                                        </g>
                                        <g transform="translate(1.020500, 7.766125)"></g>
                                        <g transform="translate(1.020500, 11.516125)">
                                            <path d="M37.5,9 C37.5,12.58 29.24875,15.48 19.07125,15.48 C8.8725,15.48 0.4575,12.58 0.4575,9 C0.4575,8.8425 0.51625,6.22375 0.51625,6.22375 C1.195,2.85875 9.325,0.21125 19.07125,0.21125 C28.79875,0.21125 36.76375,2.85875 37.44375,6.22375 C37.44375,6.22375 37.5,8.8425 37.5,9 Z M28.51075,9.4535 C28.51075,8.0735 24.317,6.9535 19.13325,6.9535 C13.9595,6.9535 9.76075,8.0735 9.76075,9.4535 C9.76075,10.8335 13.9595,11.9535 19.13325,11.9535 C24.317,11.9535 28.51075,10.8335 28.51075,9.4535 Z" fill="#5C5C5B"></path>
                                        </g>
                                        <g transform="translate(0.937500, 14.720250)">
                                            <path d="M37.5,6.25 C37.5,2.89 29.25125,0.16375 19.05875,0.16375 C8.88125,0.16375 0.625,2.89 0.625,6.25 C0.625,9.605 8.88125,12.335 19.05875,12.335 C29.25125,12.335 37.5,9.605 37.5,6.25 Z M28.59375,6.249375 C28.59375,4.869375 24.4,3.749375 19.21625,3.749375 C14.0425,3.749375 9.84375,4.869375 9.84375,6.249375 C9.84375,7.629375 14.0425,8.749375 19.21625,8.749375 C24.4,8.749375 28.59375,7.629375 28.59375,6.249375 Z" fill="#8A8A89"></path>
                                        </g>
                                    </g>
                                </g>
                            </g>
                        </g>
                    </g>
                </g>
            </g>
        </g>
    </g>
</svg>