<?xml version="1.0" encoding="UTF-8" standalone="no"?>
<svg width="40px" height="40px" viewBox="0 0 40 40" version="1.1" xmlns="http://www.w3.org/2000/svg" xmlns:xlink="http://www.w3.org/1999/xlink">
    <!-- Generator: Sketch 41.2 (35397) - http://www.bohemiancoding.com/sketch -->
    <title>Info</title>
    <desc>Created with Sketch.</desc>
    <defs>
        <polygon id="path-1" points="0 40 40 40 40 0 0 0"></polygon>
    </defs>
    <g stroke="none" stroke-width="1" fill="none" fill-rule="evenodd">
        <g>
            <g>
                <g>
                    <g transform="translate(20.000000, 20.000000) scale(1, -1) translate(-20.000000, -20.000000) ">
                        <g>
                            <g>
                                <mask id="mask-2" fill="white">
                                    <use xlink:href="#path-1"></use>
                                </mask>
                                <g></g>
                                <g mask="url(#mask-2)">
                                    <g transform="translate(0.000000, -0.500000)">
                                        <g transform="translate(0.000000, 0.500000)">
                                            <path d="M20,0 C8.955,0 0,8.95375 0,20 C0,31.045 8.955,40 20,40 C31.04625,40 40,31.045 40,20 C40,8.95375 31.04625,0 20,0 Z" fill="#3C3C3C"></path>
                                        </g>
                                        <g transform="translate(20.637409, 22.033898) scale(1, -1) translate(-20.637409, -22.033898) translate(15.637409, 8.533898)">
                                            <path d="M5.25058972,26 C4.26258478,26 3.4139266,26.0189998 2.70458972,26.057 C1.99525284,26.0950002 1.31125968,26.1393331 0.652589724,26.19 C0.601922804,25.9366654 0.576589724,25.6960011 0.576589724,25.468 C0.576589724,25.2906658 0.620922614,25.1703337 0.709589724,25.107 C0.798256834,25.0436664 0.893255884,24.9993335 0.994589724,24.974 C1.80526044,24.8219992 2.3625882,24.6573342 2.66658972,24.48 C2.97059124,24.3026658 3.12258972,24.0240019 3.12258972,23.644 L3.12258972,13.612 C3.12258972,12.8519962 2.99592432,12.2693354 2.74258972,11.864 C2.48925512,11.4586646 1.89392774,11.2180004 0.956589724,11.142 C0.627254744,11.0913331 0.462589724,10.8886684 0.462589724,10.534 L0.462589724,10.249 C0.462589724,10.1349994 0.487922804,10.0273338 0.538589724,9.926 C0.690590484,9.926 0.912254934,9.91966673 1.20358972,9.907 C1.49492451,9.89433327 1.80525474,9.88166673 2.13458972,9.869 C2.4639247,9.85633327 2.79325474,9.83733346 3.12258972,9.812 C3.4519247,9.78666654 3.75592166,9.76133346 4.03458972,9.736 C4.66792622,9.65999962 5.27592014,9.5586673 5.85858972,9.432 C6.4412593,9.3053327 6.83392204,9.242 7.03658972,9.242 C7.44192508,9.242 7.64458972,9.4319981 7.64458972,9.812 C7.64458972,10.0906681 7.6065901,10.4579977 7.53058972,10.914 C7.45458934,11.3700023 7.41658972,12.0033293 7.41658972,12.814 L7.41658972,23.644 C7.41658972,24.0240019 7.58125474,24.3026658 7.91058972,24.48 C8.2399247,24.6573342 8.78458592,24.8219992 9.54458972,24.974 C9.82325778,25.0246669 9.96258972,25.1893319 9.96258972,25.468 L9.96258972,25.848 C9.96258972,25.9746673 9.93725664,26.0886662 9.88658972,26.19 C9.25325322,26.1393331 8.56926006,26.0950002 7.83458972,26.057 C7.09991938,26.0189998 6.23859466,26 5.25058972,26 Z M2.47658972,3.694 C2.47658972,2.88332928 2.73625379,2.21833593 3.25558972,1.699 C3.77492565,1.17966407 4.42725246,0.92 5.21258972,0.92 C6.02326044,0.92 6.68192052,1.17966407 7.18858972,1.699 C7.69525892,2.21833593 7.94858972,2.88332928 7.94858972,3.694 C7.94858972,4.50467072 7.69525892,5.16966407 7.18858972,5.689 C6.68192052,6.20833593 6.02326044,6.468 5.21258972,6.468 C4.42725246,6.468 3.77492565,6.20833593 3.25558972,5.689 C2.73625379,5.16966407 2.47658972,4.50467072 2.47658972,3.694 Z" stroke="#FFFFFF" stroke-width="2" fill="#FFFFFF"></path>
                                        </g>
                                    </g>
                                </g>
                            </g>
                        </g>
                    </g>
                </g>
            </g>
        </g>
    </g>
</svg>