<?xml version="1.0" encoding="UTF-8" standalone="no"?>
<svg width="41px" height="41px" viewBox="0 0 41 41" version="1.1" xmlns="http://www.w3.org/2000/svg" xmlns:xlink="http://www.w3.org/1999/xlink">
    <!-- Generator: Sketch 41.2 (35397) - http://www.bohemiancoding.com/sketch -->
    <title>Invoke</title>
    <desc>Created with Sketch.</desc>
    <defs>
        <polygon id="path-1" points="0 40 40 40 40 0 0 0"></polygon>
    </defs>
    <g stroke="none" stroke-width="1" fill="none" fill-rule="evenodd">
        <g transform="translate(-1.000000, 0.000000)">
            <g transform="translate(0.500000, 0.759766)">
                <g transform="translate(0.750000, 0.120117)">
                    <g transform="translate(20.000000, 20.000000) scale(1, -1) translate(-20.000000, -20.000000) ">
                        <g>
                            <g>
                                <mask id="mask-2" fill="white">
                                    <use xlink:href="#path-1"></use>
                                </mask>
                                <g></g>
                                <g mask="url(#mask-2)">
                                    <g transform="translate(-0.250000, 8.750000)">
                                        <g transform="translate(0.672000, 5.222125)">
                                            <path d="M0.6725,3.07375 C0.3,3.07375 8.8817842e-16,2.39747617 8.8817842e-16,1.54541998 C8.8817842e-16,0.690922359 0.3,0 0.6725,0 L6.24875,0 C6.62,0 6.92625,0.690922359 6.92625,1.54541998 C6.92625,2.39747617 6.62,3.07375 6.24875,3.07375" fill="#000000"></path>
                                        </g>
                                        <g transform="translate(0.663500, 13.727375)">
                                            <path d="M0.66375,3.07375 C0.29625,3.07375 0,2.39503475 0,1.54541998 C0,0.690922359 0.29625,0 0.66375,0 L6.41875,0 C6.785,0 6.4425,0.773930699 6.4425,1.63086974 C6.4425,2.48048451 6.785,3.07375 6.41875,3.07375" fill="#000000"></path>
                                        </g>
                                        <g transform="translate(15.567625, 9.597750)">
                                            <path d="M0.67125,3.07375 C0.29875,3.07375 0,2.39747617 0,1.54541998 C0,0.690922359 0.29875,0 0.67125,0 L4.6975,0 C5.06875,0 5.375,0.690922359 5.375,1.54541998 C5.375,2.39747617 5.06875,3.07375 4.6975,3.07375" fill="#000000"></path>
                                        </g>
                                        <g transform="translate(6.668500, 0.775125)">
                                            <path d="M0,20 L0,0.97125 C0,0.97125 8.81375,1.94375 8.81375,10.0675 C8.81375,19.08625 1.69,20 0,20" fill="#000000"></path>
                                        </g>
                                        <g transform="translate(6.668500, 0.775125)">
                                            <path d="M0,20 L0,0.97125 C0,0.97125 8.81375,1.94375 8.81375,10.0675 C8.81375,19.08625 1.69,20 0,20 Z" stroke="#000000" stroke-width="2.5"></path>
                                        </g>
                                        <g transform="translate(20.401625, 5.222125)">
                                            <path d="M0.6725,3.07375 C0.3,3.07375 8.8817842e-16,2.39747617 8.8817842e-16,1.54541998 C8.8817842e-16,0.690922359 0.3,0 0.6725,0 L6.24875,0 C6.62125,0 6.92625,0.690922359 6.92625,1.54541998 C6.92625,2.39747617 6.62125,3.07375 6.24875,3.07375" fill="#AEAAAA"></path>
                                        </g>
                                        <g transform="translate(20.393125, 13.727375)">
                                            <path d="M0.66375,3.07375 C0.29625,3.07375 0,2.39503475 0,1.54541998 C0,0.690922359 0.29625,0 0.66375,0 L6.41875,0 C6.785,0 6.4425,0.773930699 6.4425,1.63086974 C6.4425,2.48048451 6.785,3.07375 6.41875,3.07375" fill="#AEAAAA"></path>
                                        </g>
                                        <g transform="translate(34.297875, 9.597750)">
                                            <path d="M0.67125,3.07375 C0.2975,3.07375 0,2.39747617 0,1.54541998 C0,0.690922359 0.2975,0 0.67125,0 L4.6975,0 C5.06875,0 5.37375,0.690922359 5.37375,1.54541998 C5.37375,2.39747617 5.06875,3.07375 4.6975,3.07375" fill="#AEAAAA"></path>
                                        </g>
                                        <g transform="translate(26.397500, 0.775125)">
                                            <path d="M0,20 L0,0.97125 C0,0.97125 8.81375,1.94375 8.81375,10.0675 C8.81375,19.08625 1.69125,20 0,20" fill="#AEAAAA"></path>
                                        </g>
                                        <g transform="translate(26.397500, 0.775125)">
                                            <path d="M0,20 L0,0.97125 C0,0.97125 8.81375,1.94375 8.81375,10.0675 C8.81375,19.08625 1.69125,20 0,20 Z" stroke="#AEAAAA" stroke-width="2.5"></path>
                                        </g>
                                    </g>
                                </g>
                            </g>
                        </g>
                    </g>
                </g>
            </g>
        </g>
    </g>
</svg>