<?xml version="1.0" encoding="UTF-8" standalone="no"?>
<!-- Created with Inkscape (http://www.inkscape.org/) -->

<svg
   xmlns:dc="http://purl.org/dc/elements/1.1/"
   xmlns:cc="http://creativecommons.org/ns#"
   xmlns:rdf="http://www.w3.org/1999/02/22-rdf-syntax-ns#"
   xmlns:svg="http://www.w3.org/2000/svg"
   xmlns="http://www.w3.org/2000/svg"
   xmlns:inkscape="http://www.inkscape.org/namespaces/inkscape"
   version="1.1"
   width="40"
   height="40"
   id="svg2"
   xml:space="preserve"><metadata
     id="metadata8"><rdf:RDF><cc:Work
         rdf:about=""><dc:format>image/svg+xml</dc:format><dc:type
           rdf:resource="http://purl.org/dc/dcmitype/StillImage" /></cc:Work></rdf:RDF></metadata><defs
     id="defs6"><clipPath
       id="clipPath16"><path
         d="M 0,32 32,32 32,0 0,0 0,32 z"
         inkscape:connector-curvature="0"
         id="path18" /></clipPath></defs><g
     transform="matrix(1.25,0,0,-1.25,0,40)"
     id="g10"><g
       id="g12"><g
         clip-path="url(#clipPath16)"
         id="g14"><g
           transform="translate(15.4404,18.6699)"
           id="g20"><path
             d="m 0,0 -0.033,0 -1.313,-4.531 2.641,0 L 0,0 z m -0.875,3.111 c 0.134,0.452 0.319,0.855 0.859,0.855 0.553,0 0.756,-0.419 0.873,-0.855 L 4.102,-8.211 C 4.221,-8.61 3.766,-9.047 3.294,-9.047 c -0.52,0 -0.787,0.437 -0.905,0.836 l -0.624,2.008 -3.582,0 -0.639,-2.008 c -0.118,-0.399 -0.387,-0.836 -0.908,-0.836 -0.47,0 -0.925,0.437 -0.807,0.836 l 3.296,11.322 z"
             inkscape:connector-curvature="0"
             id="path22"
             style="fill:#444443;fill-opacity:1;fill-rule:nonzero;stroke:none" /></g><g
           transform="translate(22.124,11.2949)"
           id="g24"><path
             d="m 0,0 3.027,0 c 1.211,0 1.916,0.536 1.916,1.809 0,1.402 -0.386,2.189 -1.916,2.189 L 0,3.998 0,0 z m 0,5.671 3.027,0 c 1.211,0 1.916,0.534 1.916,1.805 0,1.406 -0.386,2.192 -1.916,2.192 L 0,9.668 0,5.671 z m -1.68,5.67 4.707,0 c 2.474,0 3.599,-1.506 3.599,-3.865 0,-0.969 -0.218,-1.854 -1.11,-2.641 0.96,-0.904 1.11,-1.79 1.11,-3.026 0,-2.193 -1.463,-3.481 -3.599,-3.481 l -4.707,0 0,13.013 z"
             inkscape:connector-curvature="0"
             id="path26"
             style="fill:#444443;fill-opacity:1;fill-rule:nonzero;stroke:none" /></g><g
           transform="translate(30.25,4.75)"
           id="g28"><path
             d="m 0,0 -20.701,0.003 -7.725,11.33 8.041,11.143 20.385,0"
             inkscape:connector-curvature="0"
             id="path30"
             style="fill:none;stroke:#42ab3d;stroke-width:3.5;stroke-linecap:round;stroke-linejoin:round;stroke-miterlimit:10;stroke-opacity:1;stroke-dasharray:none" /></g></g></g></g></svg>