<?xml version="1.0" encoding="UTF-8" standalone="no"?>
<svg width="41px" height="41px" viewBox="0 0 41 41" version="1.1" xmlns="http://www.w3.org/2000/svg" xmlns:xlink="http://www.w3.org/1999/xlink">
    <!-- Generator: Sketch 41.2 (35397) - http://www.bohemiancoding.com/sketch -->
    <title>Label</title>
    <desc>Created with Sketch.</desc>
    <defs>
        <polygon id="path-1" points="0 40.625 40 40.625 40 0.625 0 0.625"></polygon>
    </defs>
    <g stroke="none" stroke-width="1" fill="none" fill-rule="evenodd">
        <g transform="translate(-0.507812, -0.170314)">
            <g transform="translate(0.980016, 0.203933)">
                <g transform="translate(20.000000, 20.500000) scale(1, -1) translate(-20.000000, -20.500000) ">
                    <g>
                        <g>
                            <mask id="mask-2" fill="white">
                                <use xlink:href="#path-1"></use>
                            </mask>
                            <g></g>
                            <g mask="url(#mask-2)">
                                <g transform="translate(1.250000, 5.000000)">
                                    <g transform="translate(12.800500, 6.837375)">
                                        <path d="M5.25,12.125 L5.20875,12.125 L3.5675,6.46125 L6.86875,6.46125 L5.25,12.125 Z M4.15625,16.01375 C4.32375,16.57875 4.555,17.0825 5.23,17.0825 C5.92125,17.0825 6.175,16.55875 6.32125,16.01375 L10.3775,1.86125 C10.52625,1.3625 9.9575,0.81625 9.3675,0.81625 C8.7175,0.81625 8.38375,1.3625 8.23625,1.86125 L7.45625,4.37125 L2.97875,4.37125 L2.18,1.86125 C2.0325,1.3625 1.69625,0.81625 1.045,0.81625 C0.4575,0.81625 -0.11125,1.3625 0.03625,1.86125 L4.15625,16.01375 L4.15625,16.01375 Z" fill="#3C3C3C"></path>
                                    </g>
                                    <g transform="translate(23.905000, 7.618625)">
                                        <path d="M2.5,2.125 L6.28375,2.125 C7.7975,2.125 8.67875,2.795 8.67875,4.38625 C8.67875,6.13875 8.19625,7.1225 6.28375,7.1225 L2.5,7.1225 L2.5,2.125 Z M2.5,9.21375 L6.28375,9.21375 C7.7975,9.21375 8.67875,9.88125 8.67875,11.47 C8.67875,13.2275 8.19625,14.21 6.28375,14.21 L2.5,14.21 L2.5,9.21375 Z M0.4,16.30125 L6.28375,16.30125 C9.37625,16.30125 10.7825,14.41875 10.7825,11.47 C10.7825,10.25875 10.51,9.1525 9.395,8.16875 C10.595,7.03875 10.7825,5.93125 10.7825,4.38625 C10.7825,1.645 8.95375,0.035 6.28375,0.035 L0.4,0.035 L0.4,16.30125 L0.4,16.30125 Z" fill="#3C3C3C"></path>
                                    </g>
                                    <g transform="translate(0.312500, 0.937500)">
                                        <polyline stroke="#42AB3D" stroke-width="4.375" points="36.25 0.625 10.37375 0.62875 0.7175 14.79125"></polyline>
                                    </g>
                                </g>
                            </g>
                        </g>
                    </g>
                </g>
            </g>
        </g>
    </g>
</svg>