<?xml version="1.0" encoding="UTF-8" standalone="no"?>
<svg width="41px" height="41px" viewBox="0 0 41 41" version="1.1" xmlns="http://www.w3.org/2000/svg" xmlns:xlink="http://www.w3.org/1999/xlink">
    <!-- Generator: Sketch 41.2 (35397) - http://www.bohemiancoding.com/sketch -->
    <title>Lbr</title>
    <desc>Created with Sketch.</desc>
    <defs>
        <polygon id="path-1" points="0 40 40 40 40 0 0 0"></polygon>
    </defs>
    <g stroke="none" stroke-width="1" fill="none" fill-rule="evenodd">
        <g transform="translate(0.452219, 0.237551)">
            <g transform="translate(0.500000, 0.000000)">
                <g transform="translate(20.000000, 20.000000) scale(1, -1) translate(-20.000000, -20.000000) ">
                    <g>
                        <g>
                            <mask id="mask-2" fill="white">
                                <use xlink:href="#path-1"></use>
                            </mask>
                            <g></g>
                            <g mask="url(#mask-2)">
                                <g transform="translate(2.500000, -0.250000)">
                                    <g stroke-width="1" fill="none" transform="translate(0.897875, 0.013125)">
                                        <path d="M0,33.75 L0,32.8175 L0,27.79875 L0,22.79125 L0,17.78125 L0,12.76125 L0,7.76875 L0,6.80875 C0,3.72375 2.13,1.13375 5.01125,0.4025 L5.01125,40.13 C2.13,39.4275 0,36.84625 0,33.75" fill="#3C3C3C"></path>
                                    </g>
                                    <g stroke-width="1" fill="none" transform="translate(8.872125, 0.095875)">
                                        <path d="M18.75,40.25 L0.2725,40.25 L0.2725,0.145 L18.75,0.145 C22.39,0.145 25.34,3.1125 25.34,6.72625 L25.34,33.6675 C25.34,37.30875 22.39,40.25 18.75,40.25" fill="#3C3C3C"></path>
                                    </g>
                                    <polygon fill="#DEDD00" points="27.8125 20.45875 15.3125 20.45875 15.3125 32.95875 27.8125 32.95875"></polygon>
                                </g>
                            </g>
                        </g>
                    </g>
                </g>
            </g>
        </g>
    </g>
</svg>