<?xml version="1.0" encoding="UTF-8" standalone="no"?>
<svg width="41px" height="41px" viewBox="0 0 41 41" version="1.1" xmlns="http://www.w3.org/2000/svg" xmlns:xlink="http://www.w3.org/1999/xlink">
    <!-- Generator: Sketch 41.2 (35397) - http://www.bohemiancoding.com/sketch -->
    <title>LbrDevice</title>
    <desc>Created with Sketch.</desc>
    <defs>
        <polygon id="path-1" points="0 40 40 40 40 0 0 0"></polygon>
    </defs>
    <g stroke="none" stroke-width="1" fill="none" fill-rule="evenodd">
        <g transform="translate(0.452219, 0.237551)">
            <g>
                <g transform="translate(20.000000, 20.000000) scale(1, -1) translate(-20.000000, -20.000000) ">
                    <g>
                        <g>
                            <mask id="mask-2" fill="white">
                                <use xlink:href="#path-1"></use>
                            </mask>
                            <g></g>
                            <g mask="url(#mask-2)">
                                <g transform="translate(-0.250000, 1.250000)">
                                    <g stroke-width="1" fill="none" transform="translate(0.075125, 8.043250)">
                                        <path d="M1.5,3.75 C0.765,3.75 0.175,3.06625 0.175,2.20875 C0.175,1.345 0.765,0.64875 1.5,0.64875 L10.69125,0.64875 C11.42375,0.64875 12.02625,1.345 12.02625,2.20875 C12.02625,3.06625 11.42375,3.75 10.69125,3.75" fill="#444443"></path>
                                    </g>
                                    <g stroke-width="1" fill="none" transform="translate(0.058000, 24.804125)">
                                        <path d="M1.5,3.75 C0.775,3.75 0.1925,3.06625 0.1925,2.20875 C0.1925,1.345 0.775,0.64875 1.5,0.64875 L11.505,0.64875 C12.2275,0.64875 11.55,1.43125 11.55,2.29375 C11.55,3.1525 12.2275,3.75 11.505,3.75" fill="#444443"></path>
                                    </g>
                                    <g stroke-width="1" fill="none" transform="translate(0.058000, 24.804125)">
                                        <path d="M1.5,3.75 C0.775,3.75 0.1925,3.06625 0.1925,2.20875 C0.1925,1.345 0.775,0.64875 1.5,0.64875 L12.84125,0.64875 C13.56375,0.64875 12.88625,1.43125 12.88625,2.29375 C12.88625,3.1525 13.56375,3.75 12.84125,3.75" fill="#444443"></path>
                                    </g>
                                    <g stroke-width="1" fill="none" transform="translate(12.898875, 0.017750)">
                                        <path d="M0,37.5 L0,0 C0,0 17.37,1.91625 17.37,17.925 C17.37,35.7 3.3325,37.5 0,37.5 Z" stroke="#444443" stroke-width="2.5"></path>
                                    </g>
                                    <g stroke-width="1" fill="none" transform="translate(0.075125, 8.043250)">
                                        <path d="M1.5,3.75 C0.765,3.75 0.175,3.06625 0.175,2.20875 C0.175,1.345 0.765,0.64875 1.5,0.64875 L12.49,0.64875 C13.22125,0.64875 13.825,1.345 13.825,2.20875 C13.825,3.06625 13.22125,3.75 12.49,3.75" fill="#444443"></path>
                                    </g>
                                    <polygon fill="#AEAAAA" points="40.25 8.68375 14.13625 8.68375 14.13625 28.5525 40.25 28.5525 40.25 8.68375"></polygon>
                                    <g stroke-width="1" fill="none" transform="translate(18.696000, 22.838750)">
                                        <path d="M2.5,3.75 C1.62375,3.75 0.9175,3.04875 0.9175,2.17375 C0.9175,1.2975 1.62375,0.58375 2.5,0.58375 L14.92375,0.58375 C15.7975,0.58375 16.52125,1.2975 16.52125,2.17375 C16.52125,3.04875 15.7975,3.75 14.92375,3.75" fill="#444443"></path>
                                    </g>
                                    <g stroke-width="1" fill="none" transform="translate(18.696000, 16.239000)">
                                        <path d="M2.5,3.75 C1.62375,3.75 0.9175,3.04875 0.9175,2.17375 C0.9175,1.29625 1.62375,0.58375 2.5,0.58375 L14.92375,0.58375 C15.7975,0.58375 16.52125,1.29625 16.52125,2.17375 C16.52125,3.04875 15.7975,3.75 14.92375,3.75" fill="#444443"></path>
                                    </g>
                                    <g stroke-width="1" fill="none" transform="translate(18.696000, 9.978000)">
                                        <path d="M2.5,3.75 C1.62375,3.75 0.9175,3.04875 0.9175,2.17375 C0.9175,1.2975 1.62375,0.585 2.5,0.585 L6.48625,0.585 C7.36,0.585 8.08375,1.2975 8.08375,2.17375 C8.08375,3.04875 7.36,3.75 6.48625,3.75" fill="#444443"></path>
                                    </g>
                                </g>
                            </g>
                        </g>
                    </g>
                </g>
            </g>
        </g>
    </g>
</svg>