<?xml version="1.0" encoding="UTF-8" standalone="no"?>
<!-- Created with Inkscape (http://www.inkscape.org/) -->

<svg
   xmlns:dc="http://purl.org/dc/elements/1.1/"
   xmlns:cc="http://creativecommons.org/ns#"
   xmlns:rdf="http://www.w3.org/1999/02/22-rdf-syntax-ns#"
   xmlns:svg="http://www.w3.org/2000/svg"
   xmlns="http://www.w3.org/2000/svg"
   xmlns:inkscape="http://www.inkscape.org/namespaces/inkscape"
   version="1.1"
   width="40"
   height="40"
   id="svg2"
   xml:space="preserve"><metadata
     id="metadata8"><rdf:RDF><cc:Work
         rdf:about=""><dc:format>image/svg+xml</dc:format><dc:type
           rdf:resource="http://purl.org/dc/dcmitype/StillImage" /></cc:Work></rdf:RDF></metadata><defs
     id="defs6"><clipPath
       id="clipPath16"><path
         d="M 0,32 32,32 32,0 0,0 0,32 z"
         inkscape:connector-curvature="0"
         id="path18" /></clipPath></defs><g
     transform="matrix(1.25,0,0,-1.25,0,40)"
     id="g10"><g
       id="g12"><g
         clip-path="url(#clipPath16)"
         id="g14"><g
           transform="translate(5.752,29.5249)"
           id="g20"><path
             d="M 0,0 C 0,-20.451 -0.002,-16.784 -0.004,-27.049"
             inkscape:connector-curvature="0"
             id="path22"
             style="fill:none;stroke:#444443;stroke-width:5;stroke-linecap:round;stroke-linejoin:round;stroke-miterlimit:10;stroke-opacity:1;stroke-dasharray:none" /></g><g
           transform="translate(15.9961,29.5249)"
           id="g24"><path
             d="M 0,0 C 0,-20.451 -0.002,-16.784 -0.004,-27.049"
             inkscape:connector-curvature="0"
             id="path26"
             style="fill:none;stroke:#444443;stroke-width:5;stroke-linecap:round;stroke-linejoin:round;stroke-miterlimit:10;stroke-opacity:1;stroke-dasharray:none" /></g><g
           transform="translate(26.248,29.5249)"
           id="g28"><path
             d="M 0,0 C 0,-20.451 -0.001,-16.784 -0.003,-27.049"
             inkscape:connector-curvature="0"
             id="path30"
             style="fill:none;stroke:#444443;stroke-width:5;stroke-linecap:round;stroke-linejoin:round;stroke-miterlimit:10;stroke-opacity:1;stroke-dasharray:none" /></g><g
           transform="translate(0.002,27.4146)"
           id="g32"><path
             d="m 0,0 0,-22.333 31.992,0 0,22.333"
             inkscape:connector-curvature="0"
             id="path34"
             style="fill:#b4b3b3;fill-opacity:1;fill-rule:nonzero;stroke:none" /></g><g
           transform="translate(7.8408,11.6406)"
           id="g36"><path
             d="M 0,0 2.343,0 C 2.758,0 3.14,-0.225 3.14,-0.799 3.14,-1.373 2.758,-1.596 2.343,-1.596 l -6.281,0 c -0.415,0 -0.797,0.223 -0.797,0.797 0,0.574 0.382,0.799 0.797,0.799 l 2.343,0 0,9.214 -2.343,0 c -0.415,0 -0.797,0.224 -0.797,0.798 0,0.574 0.382,0.797 0.797,0.797 l 6.281,0 c 0.415,0 0.797,-0.223 0.797,-0.797 C 3.14,9.438 2.758,9.214 2.343,9.214 L 0,9.214 0,0 z"
             inkscape:connector-curvature="0"
             id="path38"
             style="fill:#444443;fill-opacity:1;fill-rule:nonzero;stroke:none" /></g><g
           transform="translate(15.4438,10.0449)"
           id="g40"><path
             d="m 0,0 c -1.196,0 -1.881,0.479 -2.391,1.516 l -1.467,2.966 c -0.271,0.541 -0.43,1.05 -0.43,1.673 0,0.701 0.127,1.132 0.446,1.769 l 1.467,2.951 c 0.542,1.099 1.228,1.53 2.456,1.53 l 2.711,0 c 0.35,0 0.796,-0.192 0.796,-0.797 0,-0.574 -0.431,-0.798 -0.796,-0.798 l -2.664,0 c -0.685,0 -0.796,-0.063 -1.1,-0.669 L -2.359,7.367 C -2.566,6.936 -2.693,6.65 -2.693,6.155 c 0,-0.447 0.142,-0.718 0.334,-1.099 L -1.003,2.297 C -0.686,1.645 -0.526,1.596 0.192,1.596 l 2.6,0 c 0.35,0 0.796,-0.19 0.796,-0.799 C 3.588,0.223 3.157,0 2.792,0 L 0,0 z"
             inkscape:connector-curvature="0"
             id="path42"
             style="fill:#444443;fill-opacity:1;fill-rule:nonzero;stroke:none" /></g><g
           transform="translate(27.3301,11.6406)"
           id="g44"><path
             d="m 0,0 0,1.285 c 0,0.463 0.206,0.797 0.797,0.797 0.59,0 0.798,-0.334 0.798,-0.797 l 0,-2.084 c 0,-0.574 -0.384,-0.797 -0.798,-0.797 l -6.281,0 c -0.415,0 -0.797,0.223 -0.797,0.797 0,0.574 0.382,0.799 0.797,0.799 l 2.342,0 0,9.214 -2.342,0 c -0.415,0 -0.797,0.224 -0.797,0.798 0,0.574 0.382,0.797 0.797,0.797 l 3.937,0 L -1.547,0 0,0 z"
             inkscape:connector-curvature="0"
             id="path46"
             style="fill:#444443;fill-opacity:1;fill-rule:nonzero;stroke:none" /></g></g></g></g></svg>