<?xml version="1.0" encoding="UTF-8" standalone="no"?>
<svg width="41px" height="41px" viewBox="0 0 41 41" version="1.1" xmlns="http://www.w3.org/2000/svg" xmlns:xlink="http://www.w3.org/1999/xlink">
    <!-- Generator: Sketch 41.2 (35397) - http://www.bohemiancoding.com/sketch -->
    <title>Lock</title>
    <desc>Created with Sketch.</desc>
    <defs>
        <polygon id="path-1" points="0 40 40 40 40 0 0 0"></polygon>
    </defs>
    <g stroke="none" stroke-width="1" fill="none" fill-rule="evenodd">
        <g transform="translate(0.000000, -1.000000)">
            <g transform="translate(0.000000, 0.550781)">
                <g transform="translate(0.500000, 0.724609)">
                    <g transform="translate(20.000000, 20.000000) scale(1, -1) translate(-20.000000, -20.000000) ">
                        <g>
                            <g>
                                <mask id="mask-2" fill="white">
                                    <use xlink:href="#path-1"></use>
                                </mask>
                                <g></g>
                                <g mask="url(#mask-2)">
                                    <g transform="translate(3.750000, -1.250000)">
                                        <g transform="translate(0.304000, 0.415000)">
                                            <path d="M18.75,12.5 L18.75,8.20625 C18.75,6.7375 17.58375,5.54125 16.1375,5.54125 C14.69125,5.54125 13.52,6.7375 13.52,8.20625 L13.52,12.5 C12.385,13.33125 11.6475,14.68625 11.6475,16.2 C11.6475,18.7 13.66125,20.76875 16.1375,20.76875 C18.6175,20.76875 20.6375,18.70375 20.6375,16.2 C20.6375,14.68625 19.88,13.33125 18.75,12.5 L18.75,12.5 Z M0.94625,26.3 L0.94625,7.00625 C0.94625,3.62 3.65625,0.835 7.00125,0.835 L24.91,0.835 C28.2325,0.835 30.94625,3.62 30.94625,7.00625 L30.94625,26.3 L0.94625,26.3 L0.94625,26.3 Z" fill="#3C3C3C"></path>
                                        </g>
                                        <g transform="translate(3.971500, 7.500000)">
                                            <path d="M12.5,33.75 C5.74,33.75 0.24375,28.14625 0.24375,21.2575 L0.15875,0.65125 L4.78375,0.64375 L4.85375,21.2575 C4.85375,25.56375 8.28375,29.04375 12.5,29.04375 C16.7275,29.04375 20.14875,25.56375 20.14875,21.2575 L20.1625,1.47625 L24.79125,1.47625 L24.77375,21.2575 C24.77375,28.14625 19.26,33.75 12.5,33.75" fill="#3C3C3C"></path>
                                        </g>
                                    </g>
                                </g>
                            </g>
                        </g>
                    </g>
                </g>
            </g>
        </g>
    </g>
</svg>