<?xml version="1.0" encoding="UTF-8" standalone="no"?>
<svg width="40px" height="41px" viewBox="0 0 40 41" version="1.1" xmlns="http://www.w3.org/2000/svg" xmlns:xlink="http://www.w3.org/1999/xlink">
    <!-- Generator: Sketch 41.2 (35397) - http://www.bohemiancoding.com/sketch -->
    <title>LoopRemoveOn</title>
    <desc>Created with Sketch.</desc>
    <defs>
        <rect id="path-1" x="0" y="0" width="40" height="40"></rect>
    </defs>
    <g stroke="none" stroke-width="1" fill="none" fill-rule="evenodd">
        <g transform="translate(-89.000000, -146.000000)">
            <g transform="translate(88.482910, 146.562500)">
                <mask id="mask-2" fill="white">
                    <use xlink:href="#path-1"></use>
                </mask>
                <g></g>
                <g mask="url(#mask-2)">
                    <g transform="translate(1.017090, 0.218750)">
                        <g stroke-width="1" fill="none" transform="translate(5.270270, 6.324324)">
                            <path d="M0.859612542,0.478647593 L19.7126708,0.478647593 L27.4966084,8.68607605 L27.4966084,27.0456784" stroke="#2B74B9" stroke-width="4.5" transform="translate(14.178110, 13.762163) scale(-1, -1) translate(-14.178110, -13.762163) "></path>
                            <path d="M0.859612542,0.478647593 L19.7126708,0.478647593 L27.4966084,8.68607605 L27.4966084,27.0456784" stroke="#2B74B9" stroke-width="4.5" stroke-dasharray="3,4.5"></path>
                        </g>
                        <g stroke-width="1" fill="none">
                            <circle fill="#42AB3D" cx="6.13228879" cy="6.64696362" r="6.12405399"></circle>
                            <ellipse fill="#42AB3D" cx="32.1985103" cy="33.0199313" rx="6.12405399" ry="6.12405399"></ellipse>
                        </g>
                        <path d="M32.1059649,16.1304881 L29.4779649,13.5004881 L26.8519649,16.1274881 C26.1189649,16.8594881 24.9129649,16.8584881 24.1859649,16.1304881 C23.4839649,15.4284881 23.4629649,14.2044881 24.1959649,13.4714881 L26.8219649,10.8424881 L24.1959649,8.21748813 C23.4729649,7.49448813 23.4879649,6.30148813 24.2129649,5.57948813 C24.9279649,4.86148813 26.1119649,4.85448813 26.8349649,5.57748813 L29.4619649,8.20448813 L32.1279649,5.53748813 C32.8309649,4.83448813 34.0609649,4.84948813 34.7619649,5.55248813 C35.4899649,6.27948813 35.4869649,7.49048813 34.7849649,8.19348813 L32.1189649,10.8604881 L34.7469649,13.4894881 C35.4689649,14.2134881 35.4769649,15.4124881 34.7619649,16.1304881 C34.0399649,16.8534881 32.8309649,16.8534881 32.1059649,16.1304881 C32.1059649,16.1304881 32.8379649,16.8594881 32.1059649,16.1304881" fill="#DD1F3C"></path>
                    </g>
                </g>
            </g>
        </g>
    </g>
</svg>