<?xml version="1.0" encoding="UTF-8" standalone="no"?>
<svg width="41px" height="41px" viewBox="0 0 41 41" version="1.1" xmlns="http://www.w3.org/2000/svg" xmlns:xlink="http://www.w3.org/1999/xlink">
    <!-- Generator: Sketch 41.2 (35397) - http://www.bohemiancoding.com/sketch -->
    <title>Mark</title>
    <desc>Created with Sketch.</desc>
    <defs>
        <polygon id="path-1" points="0 40 40 40 40 0 0 0"></polygon>
    </defs>
    <g stroke="none" stroke-width="1" fill="none" fill-rule="evenodd">
        <g transform="translate(0.492188, 0.458592)">
            <g transform="translate(20.500000, 20.500000) scale(1, -1) translate(-20.500000, -20.500000) translate(0.500000, 0.500000)">
                <g>
                    <g>
                        <mask id="mask-2" fill="white">
                            <use xlink:href="#path-1"></use>
                        </mask>
                        <g></g>
                        <g mask="url(#mask-2)">
                            <g transform="translate(1.250000, 1.250000)">
                                <g transform="translate(8.883625, 0.625000)">
                                    <path d="M0,36.25 L0,0" stroke="#8A8A89" stroke-width="3.75"></path>
                                </g>
                                <g transform="translate(14.683875, 14.662500)">
                                    <path d="M13.75,6.25 L10.03125,6.25 L10.03125,2.5375 C10.03125,1.4975 9.1775,0.65 8.15,0.65 C7.15625,0.65 6.27625,1.4975 6.27625,2.5375 L6.27625,6.25 L2.56375,6.25 C1.54125,6.25 0.7075,7.105 0.7075,8.1275 C0.7075,9.14125 1.54125,9.9825 2.56375,9.9825 L6.27625,9.9825 L6.27625,13.75375 C6.27625,14.74625 7.15625,15.605 8.15,15.605 C9.1775,15.605 10.03125,14.74625 10.03125,13.75375 L10.03125,9.9825 L13.75,9.9825 C14.7725,9.9825 15.6275,9.14125 15.6275,8.1275 C15.6275,7.105 14.7725,6.25 13.75,6.25 L13.75,6.25" fill="#3C3C3C"></path>
                                </g>
                                <g transform="translate(0.625000, 8.791500)">
                                    <path d="M0,0 L36.25,0" stroke="#8A8A89" stroke-width="3.75"></path>
                                </g>
                            </g>
                        </g>
                    </g>
                </g>
            </g>
        </g>
    </g>
</svg>