<?xml version="1.0" encoding="UTF-8" standalone="no"?>
<svg width="41px" height="41px" viewBox="0 0 41 41" version="1.1" xmlns="http://www.w3.org/2000/svg" xmlns:xlink="http://www.w3.org/1999/xlink">
    <!-- Generator: Sketch 41.2 (35397) - http://www.bohemiancoding.com/sketch -->
    <title>Meander</title>
    <desc>Created with Sketch.</desc>
    <defs>
        <polygon id="path-1" points="0 40 40 40 40 0 0 0"></polygon>
    </defs>
    <g stroke="none" stroke-width="1" fill="none" fill-rule="evenodd">
        <g transform="translate(0.409250, -0.114012)">
            <g transform="translate(0.521484, 0.675781)">
                <g transform="translate(20.000000, 20.000000) scale(1, -1) translate(-20.000000, -20.000000) ">
                    <g>
                        <g>
                            <mask id="mask-2" fill="white">
                                <use xlink:href="#path-1"></use>
                            </mask>
                            <g></g>
                            <g mask="url(#mask-2)">
                                <g transform="translate(-2.500000, 1.250000)">
                                    <g transform="translate(0.312500, 0.520000)">
                                        <path d="M0,20 L6.48375,20 L6.48375,7.96875 C6.48375,7.96875 5.7025,0.0775 11.32875,0.0775 C16.95375,0.0775 16.5625,7.9175 16.5625,7.9175 L16.25,29.375 C16.25,29.375 16.32875,36.4325 22.34375,36.4325 C28.35875,36.4325 28.59375,29.60875 28.59375,29.60875 L28.59375,8.15125 C28.59375,8.15125 27.96875,0.1825 33.28125,0.1825 C38.4375,0.1825 38.2025,8.015 38.2025,8.015 L38.2025,20 L45.70375,20" stroke="#3C3C3C" stroke-width="3.75"></path>
                                    </g>
                                </g>
                            </g>
                        </g>
                    </g>
                </g>
            </g>
        </g>
    </g>
</svg>