<?xml version="1.0" encoding="UTF-8" standalone="no"?>
<svg width="41px" height="41px" viewBox="0 0 41 41" version="1.1" xmlns="http://www.w3.org/2000/svg" xmlns:xlink="http://www.w3.org/1999/xlink">
    <!-- Generator: Sketch 41.2 (35397) - http://www.bohemiancoding.com/sketch -->
    <title>Modified</title>
    <desc>Created with Sketch.</desc>
    <defs>
        <polygon id="path-1" points="0 40 40 40 40 0 0 0"></polygon>
    </defs>
    <g stroke="none" stroke-width="1" fill="none" fill-rule="evenodd">
        <g transform="translate(-0.205807, 0.209231)">
            <g transform="translate(0.829013, 0.014160)">
                <g transform="translate(20.000000, 20.000000) scale(1, -1) translate(-20.000000, -20.000000) ">
                    <g>
                        <g>
                            <mask id="mask-2" fill="white">
                                <use xlink:href="#path-1"></use>
                            </mask>
                            <g></g>
                            <g mask="url(#mask-2)">
                                <g transform="translate(0.000000, -1.250000)">
                                    <g transform="translate(0.052500, 1.250000)">
                                        <path d="M40,20 C40,8.95375 31.04625,0 20,0 C8.955,0 0,8.95375 0,20 C0,31.045 8.955,40 20,40 C31.04625,40 40,31.045 40,20" fill="#444443"></path>
                                    </g>
                                    <g transform="translate(15.687250, 0.516375)">
                                        <path d="M5,7.5 C6.8375,7.5 7.70625,6.58 7.70625,4.74625 L7.70625,3.4875 C7.70625,1.655 6.8375,0.73375 5,0.73375 L3.745,0.73375 C1.90625,0.73375 1.0375,1.655 1.0375,3.4875 L1.0375,4.74625 C1.0375,6.58 1.90625,7.5 3.745,7.5 L5,7.5 Z M5.62875,34.14625 C7.70625,34.14625 7.80125,32.8875 7.70625,30.56625 L6.8375,13.99625 C6.7375,12.305 6.3525,10.905 4.3725,10.905 C2.39125,10.905 2.00375,12.305 1.90625,13.99625 L1.0375,30.56625 C0.89125,32.8875 1.0875,34.14625 3.16375,34.14625 L5.62875,34.14625 Z" fill="#FFFFFF"></path>
                                    </g>
                                </g>
                            </g>
                        </g>
                    </g>
                </g>
            </g>
        </g>
    </g>
</svg>