<?xml version="1.0" encoding="UTF-8" standalone="no"?>
<svg width="40px" height="40px" viewBox="0 0 40 40" version="1.1" xmlns="http://www.w3.org/2000/svg" xmlns:xlink="http://www.w3.org/1999/xlink">
    <!-- Generator: Sketch 41.2 (35397) - http://www.bohemiancoding.com/sketch -->
    <title>Move</title>
    <desc>Created with Sketch.</desc>
    <defs>
        <polygon id="path-1" points="0 40 40 40 40 0 0 0"></polygon>
    </defs>
    <g stroke="none" stroke-width="1" fill="none" fill-rule="evenodd">
        <g>
            <g>
                <g>
                    <g transform="translate(20.000000, 20.000000) scale(1, -1) translate(-20.000000, -20.000000) ">
                        <g>
                            <g>
                                <mask id="mask-2" fill="white">
                                    <use xlink:href="#path-1"></use>
                                </mask>
                                <g></g>
                                <g mask="url(#mask-2)">
                                    <g transform="translate(-1.250000, -1.250000)">
                                        <g transform="translate(14.707250, 29.378000)">
                                            <path d="M0.25,6.25 L5.6375,11.6425 C5.93625,11.94875 6.43,11.94875 6.73,11.6425 L12.1225,6.25 C12.585,5.78625 12.245,4.95 11.57375,4.95 L8.01125,4.95 L8.01125,0.295 L4.34875,0.295 L4.34875,4.95 L0.78625,4.95 C0.12125,4.95 -0.22625,5.78625 0.25,6.25" fill="#3C3C3C"></path>
                                        </g>
                                        <g transform="translate(14.321250, 0.622500)">
                                            <path d="M12.5,6.25 L7.1125,0.8575 C6.81375,0.55125 6.32,0.55125 6.02,0.8575 L0.6275,6.25 C0.165,6.71375 0.505,7.54875 1.17625,7.54875 L4.73875,7.54875 L4.73875,12.205 L8.40125,12.205 L8.40125,7.54875 L11.9625,7.54875 C12.62875,7.54875 12.97625,6.71375 12.5,6.25" fill="#3C3C3C"></path>
                                        </g>
                                        <g transform="translate(0.622000, 15.484875)">
                                            <path d="M6.25,0.25 L0.8575,5.6375 C0.55125,5.93625 0.55125,6.43 0.8575,6.73 L6.25,12.1225 C6.71375,12.585 7.55,12.245 7.55,11.57375 L7.55,8.01125 L12.205,8.01125 L12.205,4.34875 L7.55,4.34875 L7.55,0.78625 C7.55,0.12125 6.71375,-0.22625 6.25,0.25" fill="#3C3C3C"></path>
                                        </g>
                                        <g transform="translate(29.377500, 15.098875)">
                                            <path d="M6.25,12.5 L11.6425,7.1125 C11.94875,6.81375 11.94875,6.32 11.6425,6.02 L6.25,0.6275 C5.78625,0.165 4.95125,0.505 4.95125,1.17625 L4.95125,4.73875 L0.295,4.73875 L0.295,8.40125 L4.95125,8.40125 L4.95125,11.9625 C4.95125,12.62875 5.78625,12.97625 6.25,12.5" fill="#000000"></path>
                                        </g>
                                    </g>
                                </g>
                            </g>
                        </g>
                    </g>
                </g>
            </g>
        </g>
    </g>
</svg>