<?xml version="1.0" encoding="UTF-8" standalone="no"?>
<svg width="41px" height="41px" viewBox="0 0 41 41" version="1.1" xmlns="http://www.w3.org/2000/svg" xmlns:xlink="http://www.w3.org/1999/xlink">
    <!-- Generator: Sketch 41.2 (35397) - http://www.bohemiancoding.com/sketch -->
    <title>Name</title>
    <desc>Created with Sketch.</desc>
    <defs>
        <polygon id="path-1" points="0 40 40 40 40 0 0 0"></polygon>
    </defs>
    <g stroke="none" stroke-width="1" fill="none" fill-rule="evenodd">
        <g transform="translate(0.000000, -1.000000)">
            <g transform="translate(0.000000, 0.759766)">
                <g transform="translate(0.500000, 0.620117)">
                    <g transform="translate(20.000000, 20.000000) scale(1, -1) translate(-20.000000, -20.000000) ">
                        <g>
                            <g>
                                <mask id="mask-2" fill="white">
                                    <use xlink:href="#path-1"></use>
                                </mask>
                                <g></g>
                                <g mask="url(#mask-2)">
                                    <g transform="translate(3.750000, -1.250000)">
                                        <g transform="translate(0.767875, 26.618000)">
                                            <path d="M2.5,10 L6.51625,10 C7.02375,10 7.82,10.03625 7.82,10.75875 L7.82,12.0075 C7.82,12.73125 7.07875,12.82125 6.535,12.82125 L2.5,12.82125 L2.5,10 Z M2.5,1.4575 C2.5,0.87875 2.24625,0.5525 1.595,0.5525 C0.9425,0.5525 0.69,0.87875 0.69,1.4575 L0.69,14.6325 L6.77,14.6325 C8.2,14.6325 9.63,13.61875 9.63,12.0075 L9.63,10.75875 C9.63,9.05875 8.2175,8.18875 6.77,8.18875 L5.105,8.18875 L9.17625,2.3625 C9.37625,2.09125 9.63,1.74625 9.63,1.40375 C9.63,0.89625 9.21375,0.5525 8.70625,0.5525 C8.34375,0.5525 8.10875,0.77 7.91,1.06 L2.91625,8.18875 L2.5,8.18875 L2.5,1.4575 L2.5,1.4575 Z" fill="#3C3C3C"></path>
                                        </g>
                                        <g transform="translate(11.923875, 26.480750)">
                                            <path d="M2.5,2.5 L8.725,2.5 C9.19375,2.5 9.63,2.24625 9.63,1.595 C9.63,0.94375 9.19375,0.69 8.725,0.69 L0.69,0.69 L0.69,6.58875 C0.69,7.9475 1.37875,8.635 2.735,8.635 L7.82,8.635 L7.82,12.95875 L1.595,12.95875 C1.125,12.95875 0.69,13.2125 0.69,13.865 C0.69,14.515 1.125,14.76875 1.595,14.76875 L7.605,14.76875 C8.2025,14.76875 8.61625,14.67875 9.07,14.2625 C9.57375,13.79125 9.63,13.30375 9.63,12.65125 L9.63,8.9425 C9.63,8.29 9.57375,7.8025 9.07,7.3325 C8.61625,6.915 8.2025,6.825 7.605,6.825 L2.5,6.825 L2.5,2.5 Z" fill="#444443"></path>
                                        </g>
                                        <g transform="translate(10.297875, 1.018125)">
                                            <path d="M2.5,3.75 C2.5,3.35875 2.6375,3.1025 3.18875,2.63 C3.60125,2.27625 3.89625,2.12125 4.48625,2.12125 L5.98,2.12125 C6.56875,2.12125 6.86625,2.27625 7.2775,2.63 C7.8275,3.1025 7.965,3.35875 7.965,3.75 L7.965,11.245 C7.965,11.63875 7.8275,11.8925 7.2775,12.3675 C6.86625,12.71875 6.56875,12.875 5.98,12.875 L4.48625,12.875 C3.89625,12.875 3.60125,12.71875 3.18875,12.3675 C2.6375,11.8925 2.5,11.63875 2.5,11.245 L2.5,3.75 Z M0.6125,11.245 C0.6125,12.5025 0.86875,12.9375 1.8125,13.70125 C2.73625,14.47125 3.17,14.765 4.48625,14.765 L5.98,14.765 C7.3,14.765 7.73,14.47125 8.65375,13.70125 C9.59875,12.9375 9.8525,12.5025 9.8525,11.245 L9.8525,3.75 C9.8525,2.51375 9.53875,2.04 8.55625,1.215 C7.57375,0.39 7.17875,0.2325 5.98,0.2325 L4.48625,0.2325 C3.28625,0.2325 2.89375,0.39 1.91125,1.215 C0.9275,2.04 0.6125,2.51375 0.6125,3.75 L0.6125,11.245 Z" fill="#8C8C8C"></path>
                                        </g>
                                        <g transform="translate(21.679750, 1.080375)">
                                            <path d="M6.25,10 C6.585,10.295 7.0575,10.76625 7.5075,10.76625 C8.0375,10.76625 8.4525,10.3375 8.4525,9.80375 C8.4525,9.35125 8.15625,9.13625 7.8225,8.85875 L4.165,5.83125 L8.61125,2.135 C8.9625,1.84 9.2775,1.62375 9.2775,1.1325 C9.2775,0.60125 8.865,0.17 8.335,0.17 C7.95875,0.17 7.725,0.405 7.44875,0.62125 L2.7075,4.57375 L1.92375,3.8675 L1.92375,1.4675 C1.92375,0.8175 1.7875,0.17 0.98,0.17 C0.17375,0.17 0.035,0.8175 0.035,1.4675 L0.035,13.36 C0.035,14.01125 0.17375,14.66125 0.98,14.66125 C1.7875,14.66125 1.92375,14.01125 1.92375,13.36 L1.92375,6.36125 L6.25,10 Z" fill="#8C8C8C"></path>
                                        </g>
                                        <g transform="translate(3.124375, 21.250625)">
                                            <path d="M0,0 L26.0425,0" stroke="#3C3C3C" stroke-width="3.125" fill="#3C3C3C"></path>
                                        </g>
                                        <g transform="translate(0.550500, 0.445500)">
                                            <path d="M7.5,2.5 L7.5,3.21 C7.5,3.70125 7.7225,4.05875 8.34875,4.05875 C8.97625,4.05875 9.195,3.70125 9.195,3.21 L9.195,1.65125 C9.195,1.0425 8.78875,0.805 8.34875,0.805 L1.67,0.805 C1.2275,0.805 0.8225,1.0425 0.8225,1.65125 C0.8225,2.2625 1.2275,2.5 1.67,2.5 L4.16125,2.5 L5.8575,2.5 L7.5,2.5 Z" fill="#9E9E9E"></path>
                                        </g>
                                        <g transform="translate(1.911625, 2.734375)">
                                            <polyline stroke="#8C8C8C" stroke-width="1.875" points="0 10 3.54125 12.06 3.54125 0.02125"></polyline>
                                        </g>
                                    </g>
                                </g>
                            </g>
                        </g>
                    </g>
                </g>
            </g>
        </g>
    </g>
</svg>