<?xml version="1.0" encoding="UTF-8" standalone="no"?>
<svg width="41px" height="41px" viewBox="0 0 41 41" version="1.1" xmlns="http://www.w3.org/2000/svg" xmlns:xlink="http://www.w3.org/1999/xlink">
    <!-- Generator: Sketch 41.2 (35397) - http://www.bohemiancoding.com/sketch -->
    <title>OpenDev</title>
    <desc>Created with Sketch.</desc>
    <defs>
        <polygon id="path-1" points="0 40 40 40 40 0 0 0"></polygon>
    </defs>
    <g stroke="none" stroke-width="1" fill="none" fill-rule="evenodd">
        <g transform="translate(0.452219, 0.237551)">
            <g transform="translate(0.000000, 0.500000)">
                <g transform="translate(20.000000, 20.000000) scale(1, -1) translate(-20.000000, -20.000000) ">
                    <g>
                        <g>
                            <mask id="mask-2" fill="white">
                                <use xlink:href="#path-1"></use>
                            </mask>
                            <g></g>
                            <g mask="url(#mask-2)">
                                <g transform="translate(-1.250000, -1.250000)">
                                    <g transform="translate(0.672000, 20.966750)">
                                        <path d="M1.25,2.5 C0.8775,2.5 0.5775,2.15375 0.5775,1.7175 C0.5775,1.28 0.8775,0.92625 1.25,0.92625 L6.82625,0.92625 C7.1975,0.92625 7.50375,1.28 7.50375,1.7175 C7.50375,2.15375 7.1975,2.5 6.82625,2.5" fill="#AEAAAA"></path>
                                    </g>
                                    <g transform="translate(0.663500, 29.472000)">
                                        <path d="M1.25,2.5 C0.8825,2.5 0.58625,2.1525 0.58625,1.7175 C0.58625,1.28 0.8825,0.92625 1.25,0.92625 L7.005,0.92625 C7.37125,0.92625 7.02875,1.3225 7.02875,1.76125 C7.02875,2.19625 7.37125,2.5 7.005,2.5" fill="#AEAAAA"></path>
                                    </g>
                                    <g transform="translate(15.567625, 25.342375)">
                                        <path d="M1.25,2.5 C0.8775,2.5 0.57875,2.15375 0.57875,1.7175 C0.57875,1.28 0.8775,0.92625 1.25,0.92625 L5.27625,0.92625 C5.6475,0.92625 5.95375,1.28 5.95375,1.7175 C5.95375,2.15375 5.6475,2.5 5.27625,2.5" fill="#AEAAAA"></path>
                                    </g>
                                    <g transform="translate(7.668500, 16.519750)">
                                        <path d="M0,20 L0,0.97125 C0,0.97125 8.81375,1.94375 8.81375,10.0675 C8.81375,19.08625 1.69,20 0,20" fill="#AEAAAA"></path>
                                    </g>
                                    <g transform="translate(7.668500, 16.519750)">
                                        <path d="M0,20 L0,0.97125 C0,0.97125 8.81375,1.94375 8.81375,10.0675 C8.81375,19.08625 1.69,20 0,20 Z" stroke="#AEAAAA" stroke-width="2.5"></path>
                                    </g>
                                    <g transform="translate(20.401625, 20.966750)">
                                        <path d="M1.25,2.5 C0.8775,2.5 0.5775,2.15375 0.5775,1.7175 C0.5775,1.28 0.8775,0.92625 1.25,0.92625 L6.82625,0.92625 C7.19875,0.92625 7.50375,1.28 7.50375,1.7175 C7.50375,2.15375 7.19875,2.5 6.82625,2.5" fill="#AEAAAA"></path>
                                    </g>
                                    <g transform="translate(20.393125, 29.472000)">
                                        <path d="M1.25,2.5 C0.8825,2.5 0.58625,2.1525 0.58625,1.7175 C0.58625,1.28 0.8825,0.92625 1.25,0.92625 L7.005,0.92625 C7.37125,0.92625 7.02875,1.3225 7.02875,1.76125 C7.02875,2.19625 7.37125,2.5 7.005,2.5" fill="#AEAAAA"></path>
                                    </g>
                                    <g transform="translate(35.297875, 25.342375)">
                                        <path d="M1.25,2.5 C0.87625,2.5 0.57875,2.15375 0.57875,1.7175 C0.57875,1.28 0.87625,0.92625 1.25,0.92625 L5.27625,0.92625 C5.6475,0.92625 5.9525,1.28 5.9525,1.7175 C5.9525,2.15375 5.6475,2.5 5.27625,2.5" fill="#AEAAAA"></path>
                                    </g>
                                    <g transform="translate(27.397500, 16.519750)">
                                        <path d="M0,20 L0,0.97125 C0,0.97125 8.81375,1.94375 8.81375,10.0675 C8.81375,19.08625 1.69125,20 0,20" fill="#AEAAAA"></path>
                                    </g>
                                    <g transform="translate(27.397500, 16.519750)">
                                        <path d="M0,20 L0,0.97125 C0,0.97125 8.81375,1.94375 8.81375,10.0675 C8.81375,19.08625 1.69125,20 0,20 Z" stroke="#AEAAAA" stroke-width="2.5"></path>
                                    </g>
                                    <g transform="translate(11.706500, 2.912625)">
                                        <path d="M12.5,6.25 L12.5,1.6625 C12.5,0.405 14.02125,-0.3225 15.00375,0.5025 L24.15875,8.13 C24.88375,8.7275 24.88375,9.86375 24.15875,10.47125 L15.00375,18.1025 C14.02125,18.91625 12.5,18.19625 12.5,16.92375 L12.5,12.35625 L0.12,12.35625 L0.12,6.25 L12.5,6.25 Z" fill="#FFFFFF"></path>
                                    </g>
                                    <g transform="translate(11.927500, 0.904500)">
                                        <path d="M12.5,6.25 L12.5,1.80875 C12.5,0.59125 13.9725,-0.11375 14.9225,0.68625 L23.7875,8.07125 C24.49,8.65 24.49,9.74875 23.7875,10.3375 L14.9225,17.725 C13.9725,18.515 12.5,17.8175 12.5,16.585 L12.5,12.16125 L0.5125,12.16125 L0.5125,6.25 L12.5,6.25 Z" fill="#444443"></path>
                                    </g>
                                </g>
                            </g>
                        </g>
                    </g>
                </g>
            </g>
        </g>
    </g>
</svg>