<?xml version="1.0" encoding="UTF-8" standalone="no"?>
<svg width="41px" height="41px" viewBox="0 0 41 41" version="1.1" xmlns="http://www.w3.org/2000/svg" xmlns:xlink="http://www.w3.org/1999/xlink">
    <!-- Generator: Sketch 41.2 (35397) - http://www.bohemiancoding.com/sketch -->
    <title>OpenSym</title>
    <desc>Created with Sketch.</desc>
    <defs>
        <polygon id="path-1" points="0 40 40 40 40 0 0 0"></polygon>
    </defs>
    <g stroke="none" stroke-width="1" fill="none" fill-rule="evenodd">
        <g transform="translate(0.452219, 0.237551)">
            <g>
                <g transform="translate(20.000000, 20.000000) scale(1, -1) translate(-20.000000, -20.000000) ">
                    <g>
                        <g>
                            <mask id="mask-2" fill="white">
                                <use xlink:href="#path-1"></use>
                            </mask>
                            <g></g>
                            <g mask="url(#mask-2)">
                                <g transform="translate(-1.250000, 1.250000)">
                                    <g transform="translate(0.075125, 8.043250)">
                                        <path d="M2.5,3.75 C1.765,3.75 1.175,3.06625 1.175,2.20875 C1.175,1.345 1.765,0.64875 2.5,0.64875 L13.49,0.64875 C14.22125,0.64875 14.825,1.345 14.825,2.20875 C14.825,3.06625 14.22125,3.75 13.49,3.75" fill="#737372"></path>
                                    </g>
                                    <g transform="translate(0.058000, 24.804125)">
                                        <path d="M2.5,3.75 C1.775,3.75 1.1925,3.06625 1.1925,2.20875 C1.1925,1.345 1.775,0.64875 2.5,0.64875 L13.84125,0.64875 C14.56375,0.64875 13.88625,1.43125 13.88625,2.29375 C13.88625,3.1525 14.56375,3.75 13.84125,3.75" fill="#737372"></path>
                                    </g>
                                    <g transform="translate(13.898875, 0.017750)">
                                        <path d="M0,37.5 L0,0 C0,0 17.37,1.91625 17.37,17.925 C17.37,35.7 3.3325,37.5 0,37.5 Z" stroke="#737372" stroke-width="2.5"></path>
                                    </g>
                                    <g transform="translate(16.373250, 13.129875)">
                                        <path d="M10,6.25 L10,1.6625 C10,0.405 11.52125,-0.3225 12.50375,0.5025 L21.65875,8.13 C22.38375,8.7275 22.38375,9.86375 21.65875,10.47125 L12.50375,18.10125 C11.52125,18.915 10,18.195 10,16.92375 L10,12.35625 L0.085,12.35625 L0.085,6.25 L10,6.25 Z" fill="#FFFFFF"></path>
                                    </g>
                                    <g transform="translate(16.019250, 7.465875)">
                                        <path d="M11.25,6.25 L11.25,1.6625 C11.25,0.405 12.77125,-0.3225 13.75375,0.5025 L22.90875,8.13 C23.63375,8.7275 23.63375,9.86375 22.90875,10.47125 L13.75375,18.1 C12.77125,18.91625 11.25,18.19625 11.25,16.92375 L11.25,12.35625 L0.6475,12.35625 L0.6475,6.25 L11.25,6.25 Z" fill="#FFFFFF"></path>
                                    </g>
                                    <g transform="translate(18.156750, 10.349125)">
                                        <path d="M10,6.25 L10,1.80875 C10,0.59125 11.4725,-0.11375 12.4225,0.68625 L21.2875,8.07125 C21.99,8.64875 21.99,9.74875 21.2875,10.3375 L12.4225,17.725 C11.4725,18.515 10,17.81625 10,16.585 L10,12.16125 L0.28125,12.16125 L0.28125,6.25 L10,6.25 Z" fill="#444443"></path>
                                    </g>
                                </g>
                            </g>
                        </g>
                    </g>
                </g>
            </g>
        </g>
    </g>
</svg>