<?xml version="1.0" encoding="UTF-8" standalone="no"?>
<svg width="41px" height="41px" viewBox="0 0 41 41" version="1.1" xmlns="http://www.w3.org/2000/svg" xmlns:xlink="http://www.w3.org/1999/xlink">
    <!-- Generator: Sketch 41.2 (35397) - http://www.bohemiancoding.com/sketch -->
    <title>OpenPac</title>
    <desc>Created with Sketch.</desc>
    <defs>
        <polygon id="path-1" points="0 40 40 40 40 0 0 0"></polygon>
    </defs>
    <g stroke="none" stroke-width="1" fill="none" fill-rule="evenodd">
        <g transform="translate(0.452219, 0.237551)">
            <g transform="translate(0.000000, 0.500000)">
                <g transform="translate(20.000000, 20.000000) scale(1, -1) translate(-20.000000, -20.000000) ">
                    <g>
                        <g>
                            <mask id="mask-2" fill="white">
                                <use xlink:href="#path-1"></use>
                            </mask>
                            <g></g>
                            <g mask="url(#mask-2)">
                                <g transform="translate(5.940000, 10.656125)" stroke-width="6.25" stroke="#444443">
                                    <path d="M1.25,26.25 C1.25,7.08875 1.2475,10.525 1.245,0.90625"></path>
                                </g>
                                <g transform="translate(18.745125, 10.656125)" stroke-width="6.25" stroke="#444443">
                                    <path d="M1.25,26.25 C1.25,7.08875 1.2475,10.525 1.245,0.90625"></path>
                                </g>
                                <g transform="translate(31.560000, 10.656125)" stroke-width="6.25" stroke="#444443">
                                    <path d="M1.25,26.25 C1.25,7.08875 1.24875,10.525 1.24625,0.90625"></path>
                                </g>
                                <g transform="translate(0.002500, 5.365000)" fill="#AEAAAA">
                                    <polyline points="0 28.75 0 0.8325 39.99 0.8325 39.99 28.75"></polyline>
                                </g>
                                <polygon fill="#FFFFFF" points="40 4.16625 28.33375 4.16625 28.33375 10.52125 40 10.52125"></polygon>
                                <g transform="translate(12.796625, 0.937500)" fill="#FFFFFF">
                                    <path d="M15,5 L15,2.2825 C15,1.025 16.52125,0.2975 17.50375,1.1225 L26.65875,8.75 C27.38375,9.34875 27.38375,11.8925 26.65875,12.5 L17.50375,19.79125 C16.52125,20.60625 12.82875,20.65125 12.82875,17.3175 L12.82875,13.33375 L0.745,13.33375 L0.745,5 L15,5 Z"></path>
                                </g>
                                <g transform="translate(15.686000, 0.000000)" fill="#444443">
                                    <path d="M12.5,6.25 L12.5,1.46375 C12.5,0.245 13.9725,-0.45875 14.9225,0.34 L23.7875,7.72625 C24.49,8.305 24.49,9.4025 23.7875,9.99125 L14.9225,17.37875 C13.9725,18.16875 12.5,17.4725 12.5,16.23875 L12.5,11.81625 L0.5125,11.81625 L0.5125,6.25 L12.5,6.25 Z"></path>
                                </g>
                            </g>
                        </g>
                    </g>
                </g>
            </g>
        </g>
    </g>
</svg>