<?xml version="1.0" encoding="UTF-8" standalone="no"?>
<svg width="41px" height="41px" viewBox="0 0 41 41" version="1.1" xmlns="http://www.w3.org/2000/svg" xmlns:xlink="http://www.w3.org/1999/xlink">
    <!-- Generator: Sketch 41.2 (35397) - http://www.bohemiancoding.com/sketch -->
    <title>Optimize</title>
    <desc>Created with Sketch.</desc>
    <defs>
        <polygon id="path-1" points="0 40 40 40 40 0 0 0"></polygon>
    </defs>
    <g stroke="none" stroke-width="1" fill="none" fill-rule="evenodd">
        <g transform="translate(-0.507812, -0.541408)">
            <g transform="translate(0.980016, 0.889480)">
                <g transform="translate(20.000000, 20.000000) scale(1, -1) translate(-20.000000, -20.000000) ">
                    <g>
                        <g>
                            <mask id="mask-2" fill="white">
                                <use xlink:href="#path-1"></use>
                            </mask>
                            <g></g>
                            <g mask="url(#mask-2)">
                                <g transform="translate(1.250000, 4.750000)">
                                    <g transform="translate(0.504750, 20.529750)">
                                        <path d="M15,0.25 C4.065,0.25 6.02625,0.2475 0.5375,0.245" stroke="#AEAAAA" stroke-width="3.75" fill="#AEAAAA"></path>
                                    </g>
                                    <g transform="translate(21.666250, 20.677500)">
                                        <path d="M15,0.25 C4.06875,0.24875 6.02625,0.24625 0.54,0.24625" stroke="#AEAAAA" stroke-width="3.75" fill="#AEAAAA"></path>
                                    </g>
                                    <g transform="translate(10.504125, 0.070500)">
                                        <path d="M13.75,6.25 L10.03125,6.25 L10.03125,2.53625 C10.03125,1.4975 9.17875,0.65 8.15125,0.65 C7.1575,0.65 6.2775,1.4975 6.2775,2.53625 L6.2775,6.25 L2.565,6.25 C1.54125,6.25 0.7075,7.105 0.7075,8.1275 C0.7075,9.14125 1.54125,9.9825 2.565,9.9825 L6.2775,9.9825 L6.2775,13.75375 C6.2775,14.74625 7.1575,15.605 8.15125,15.605 C9.17875,15.605 10.03125,14.74625 10.03125,13.75375 L10.03125,9.9825 L13.75,9.9825 C14.77375,9.9825 15.62875,9.14125 15.62875,8.1275 C15.62875,7.105 14.77375,6.25 13.75,6.25 L13.75,6.25" fill="#3C3C3C"></path>
                                    </g>
                                </g>
                            </g>
                        </g>
                    </g>
                </g>
            </g>
        </g>
    </g>
</svg>