<?xml version="1.0" encoding="UTF-8" standalone="no"?>
<svg width="41px" height="41px" viewBox="0 0 41 41" version="1.1" xmlns="http://www.w3.org/2000/svg" xmlns:xlink="http://www.w3.org/1999/xlink">
    <!-- Generator: Sketch 41.2 (35397) - http://www.bohemiancoding.com/sketch -->
    <title>Pad</title>
    <desc>Created with Sketch.</desc>
    <defs>
        <polygon id="path-1" points="0 40 40 40 40 0 0 0"></polygon>
    </defs>
    <g stroke="none" stroke-width="1" fill="none" fill-rule="evenodd">
        <g transform="translate(-111.000000, -1290.000000)">
            <g transform="translate(110.732813, 1290.635888)">
                <g transform="translate(0.500000, 0.000000)">
                    <g transform="translate(20.000000, 20.000000) scale(1, -1) translate(-20.000000, -20.000000) ">
                        <g>
                            <g>
                                <mask id="mask-2" fill="white">
                                    <use xlink:href="#path-1"></use>
                                </mask>
                                <g></g>
                                <g mask="url(#mask-2)">
                                    <g transform="translate(1.000000, 7.000000)">
                                        <g transform="translate(0.300000, 0.202375)">
                                            <path d="M36.2656097,11.3369773 C37.0628241,10.6120629 37.5,9.82404565 37.5,9 C37.5,8.8425 37.44375,6.2225 37.44375,6.2225 C36.76375,2.85875 28.79875,0.21125 19.07125,0.21125 C9.325,0.21125 1.195,2.85875 0.51625,6.2225 C0.51625,6.2225 0.4575,8.8425 0.4575,9 C0.4575,9.82353983 0.902804708,10.6110954 1.71269059,11.3356423 C4.41481349,8.90732658 11.2183951,7.189375 19.07125,7.189375 C26.9114504,7.189375 33.6067155,8.90677808 36.2656097,11.3369773 Z" fill="#008C40"></path>
                                        </g>
                                        <g transform="translate(0.236625, 3.351500)">
                                            <path d="M1.67650031,8.27806472 C0.995584295,7.64343414 0.625,6.9607416 0.625,6.25 C0.625,2.89 8.8825,0.16375 19.06,0.16375 C29.25125,0.16375 37.5,2.89 37.5,6.25 C37.5,6.96495493 37.1254063,7.65152724 36.4372471,8.28934604 C33.8555323,5.80560738 27.0835311,4.04025 19.134625,4.04025 C11.1834441,4.04025 4.3079769,5.80149206 1.67650031,8.27806472 Z" fill="#42AB3D"></path>
                                        </g>
                                        <g transform="translate(0.300000, 7.180500)"></g>
                                        <g transform="translate(0.300000, 10.930500)">
                                            <path d="M37.5,9 C37.5,12.58 29.24875,15.48 19.07125,15.48 C8.8725,15.48 0.4575,12.58 0.4575,9 C0.4575,8.8425 0.51625,6.22375 0.51625,6.22375 C1.195,2.85875 9.325,0.21125 19.07125,0.21125 C28.79875,0.21125 36.76375,2.85875 37.44375,6.22375 C37.44375,6.22375 37.5,8.8425 37.5,9" fill="#008C40"></path>
                                        </g>
                                        <g transform="translate(0.236625, 14.079750)">
                                            <path d="M37.5,6.25 C37.5,2.89 29.25125,0.16375 19.06,0.16375 C8.8825,0.16375 0.625,2.89 0.625,6.25 C0.625,9.605 8.8825,12.335 19.06,12.335 C29.25125,12.335 37.5,9.605 37.5,6.25" fill="#42AB3D"></path>
                                        </g>
                                        <g transform="translate(15.934875, 18.746125)">
                                            <path d="M6.25,1.5 C6.25,0.765 4.88,0.1675 3.18875,0.1675 C1.49875,0.1675 0.12875,0.765 0.12875,1.5 C0.12875,2.23625 1.49875,2.8325 3.18875,2.8325 C4.88,2.8325 6.25,2.23625 6.25,1.5" fill="#FFFFFF"></path>
                                        </g>
                                    </g>
                                </g>
                            </g>
                        </g>
                    </g>
                </g>
            </g>
        </g>
    </g>
</svg>