<?xml version="1.0" encoding="UTF-8" standalone="no"?>
<svg width="41px" height="41px" viewBox="0 0 41 41" version="1.1" xmlns="http://www.w3.org/2000/svg" xmlns:xlink="http://www.w3.org/1999/xlink">
    <!-- Generator: Sketch 41.2 (35397) - http://www.bohemiancoding.com/sketch -->
    <title>Paste</title>
    <desc>Created with Sketch.</desc>
    <defs>
        <rect id="path-1" x="-5.68434189e-14" y="0" width="40" height="40"></rect>
    </defs>
    <g stroke="none" stroke-width="1" fill="none" fill-rule="evenodd">
        <g>
            <g transform="translate(0.749364, -0.616506)">
                <g transform="translate(0.125318, 0.808253)">
                    <mask id="mask-2" fill="white">
                        <use xlink:href="#path-1"></use>
                    </mask>
                    <g></g>
                    <g mask="url(#mask-2)">
                        <g transform="translate(1.000000, 0.000000)">
                            <path d="M26.8322553,10.5052025 L26.8322553,3.48068858 C26.8322553,1.8404587 25.4891556,0.488590776 23.8323582,0.488590776 L2.99989707,0.488590776 C1.34900423,0.488590776 -5.68434189e-14,1.82819859 -5.68434189e-14,3.48068858 L-5.68434189e-14,29.9188015 C-5.68434189e-14,31.5590314 1.34309967,32.9108993 2.99989707,32.9108993 L13.9653325,32.9108993 L13.9653325,13.7637097 C13.9653325,11.9640859 15.4252558,10.5052025 17.2090231,10.5052025 L26.8322553,10.5052025 Z M5.59005319,5.5694928 C5.59005319,5.02083426 6.04161145,4.57605863 6.59297595,4.57605863 L20.2392794,4.57605863 C20.7931783,4.57605863 21.2422021,5.02162039 21.2422021,5.5694928 L21.2422021,5.89350887 C21.2422021,6.44216741 20.7906439,6.88694304 20.2392794,6.88694304 L6.59297595,6.88694304 C6.039077,6.88694304 5.59005319,6.44138128 5.59005319,5.89350887 L5.59005319,5.5694928 Z" fill="#3C3C3C"></path>
                            <g stroke-width="1" fill="none" transform="translate(11.727399, 6.925463)">
                                <g>
                                    <g transform="translate(12.500000, 17.321927) scale(1, -1) translate(-12.500000, -17.321927) translate(0.000000, 0.821927)">
                                        <g transform="translate(0.000000, 0.000000)">
                                            <g transform="translate(0.000000, 0.000000)">
                                                <g transform="translate(0.817569, 0.035979)">
                                                    <g transform="translate(0.118164, 0.234226)" fill="#3C3C3C">
                                                        <path d="M21.120536,5.57681294 C21.120536,4.80944348 20.8192905,4.11680332 20.2912771,3.58142927 C19.756594,3.0438245 19.0451655,2.76275313 18.2959422,2.76275313 L5.19787508,2.76275313 C4.43864739,2.76275313 3.73500006,3.0438245 3.21032148,3.58142927 C2.67675004,4.11680332 2.38439736,4.80944348 2.38439736,5.57681294 L2.38439736,26.2455971 C2.38439736,27.792605 3.64607148,29.0574262 5.19787508,29.0574262 L9.89552693,29.0574262 L13.5916207,29.0574262 L15.4835761,29.0574262 L15.4991386,29.0574262 L15.4991386,23.2876555 L21.120536,23.2876555 L21.120536,5.57681294 Z M22.9858128,23.4906515 C22.9569111,23.9635652 22.7623798,24.4108256 22.4389021,24.7465498 L16.8219511,30.3869384 C16.4595672,30.7382776 15.996027,30.9368121 15.4835761,30.9368121 L13.5916207,30.9368121 L9.89552693,30.9368121 L5.19787508,30.9368121 C2.59560272,30.9368121 0.5124509,28.8321229 0.5124509,26.2455971 L0.5124509,5.57681294 C0.5124509,4.27406944 1.04268752,3.09736191 1.88750896,2.24745562 C2.74011165,1.40870295 3.89951791,0.881136445 5.19787508,0.881136445 L18.2959422,0.881136445 C19.5920762,0.881136445 20.7670449,1.40870295 21.6063084,2.24745562 C22.453353,3.09736191 22.9858128,4.27406944 22.9858128,5.57681294 L22.9858128,23.2876555 L22.9858128,23.4906515 Z"></path>
                                                    </g>
                                                    <polygon fill="#8C8C8C" points="14.694335 16.0612213 6.22500009 16.0612213 6.22500009 17.8881852 14.694335 17.8881852"></polygon>
                                                    <polygon fill="#8C8C8C" points="14.694335 12.492061 6.22500009 12.492061 6.22500009 14.2766411 14.694335 14.2766411"></polygon>
                                                    <polygon fill="#8C8C8C" points="14.694335 8.92290071 6.22500009 8.92290071 6.22500009 10.7074809 14.694335 10.7074809"></polygon>
                                                </g>
                                            </g>
                                        </g>
                                    </g>
                                </g>
                            </g>
                        </g>
                    </g>
                </g>
            </g>
        </g>
    </g>
</svg>