<?xml version="1.0" encoding="UTF-8" standalone="no"?>
<svg width="40px" height="40px" viewBox="0 0 40 40" version="1.1" xmlns="http://www.w3.org/2000/svg" xmlns:xlink="http://www.w3.org/1999/xlink">
    <!-- Generator: Sketch 41.2 (35397) - http://www.bohemiancoding.com/sketch -->
    <title>DBL-Add</title>
    <desc>Created with Sketch.</desc>
    <defs>
        <rect id="path-1" x="0" y="0" width="40" height="40"></rect>
    </defs>
    <g stroke="none" stroke-width="1" fill="none" fill-rule="evenodd">
        <g>
            <g>
                <g>
                    <mask id="mask-2" fill="white">
                        <use xlink:href="#path-1"></use>
                    </mask>
                    <g></g>
                    <g mask="url(#mask-2)">
                        <g transform="translate(-3.000000, -1.000000)">
                            <g transform="translate(22.179688, 21.500000) rotate(90.000000) translate(-22.179688, -21.500000) translate(0.679688, 0.000000)">
                                <g>
                                    <g>
                                        <g transform="translate(0.478320, 0.444580)">
                                            <rect x="0.569370133" y="0.381068638" width="40.6473214" height="40.6473214"></rect>
                                            <g>
                                                <path d="M0.353158339,13.5395228 L27.4381476,13.5395228 L27.4381476,40.6245119 L0.353158339,40.6245119 L0.353158339,13.5395228 Z M13.895653,13.5395228 L27.4381476,13.5395228 L27.4381476,27.0820174 L13.895653,27.0820174 L13.895653,13.5395228 Z" fill="#BF272F"></path>
                                                <path d="M13.8626322,0.123162501 L40.9439097,0.123162501 L40.9439097,27.2044401 L13.8626322,27.2044401 L13.8626322,0.123162501 Z M13.8626322,13.6638013 L27.4032709,13.6638013 L27.4032709,27.2044401 L13.8626322,27.2044401 L13.8626322,13.6638013 Z" fill="#2A7F26"></path>
                                            </g>
                                        </g>
                                    </g>
                                </g>
                            </g>
                            <g transform="translate(15.122550, 10.669922)">
                                <polygon fill="#3C3C3C" points="27.9852166 0.5139844 0.903939048 0.5139844 0.903939048 20.7042711 27.9852166 20.7042711 27.9852166 0.5139844"></polygon>
                                <path d="M7.10210324,12.2179995 C6.21167285,12.2179995 5.49399358,11.5054012 5.49399358,10.616241 C5.49399358,9.72581064 6.21167285,9.00051 7.10210324,9.00051 L19.7269072,9.00051 C20.6147972,9.00051 21.3502596,9.72581064 21.3502596,10.616241 C21.3502596,11.5054012 20.6147972,12.2179995 19.7269072,12.2179995" fill="#FFFFFF"></path>
                                <path d="M11.8121116,4.29024758 C11.8121116,3.39727674 12.52471,2.6808677 13.4151403,2.6808677 C14.3030303,2.6808677 15.0308714,3.39727674 15.0308714,4.29024758 L15.0308714,16.9137813 C15.0308714,17.8029415 14.3030303,18.5371337 13.4151403,18.5371337 C12.52471,18.5371337 11.8121116,17.8029415 11.8121116,16.9137813" fill="#FFFFFF"></path>
                            </g>
                        </g>
                    </g>
                </g>
            </g>
        </g>
    </g>
</svg>