<?xml version="1.0" encoding="UTF-8" standalone="no"?>
<svg width="41px" height="41px" viewBox="0 0 41 41" version="1.1" xmlns="http://www.w3.org/2000/svg" xmlns:xlink="http://www.w3.org/1999/xlink">
    <!-- Generator: Sketch 41.2 (35397) - http://www.bohemiancoding.com/sketch -->
    <title>PinFunctionDotClk</title>
    <desc>Created with Sketch.</desc>
    <defs>
        <polygon id="path-1" points="0 40 40 40 40 0 0 0"></polygon>
    </defs>
    <g stroke="none" stroke-width="1" fill="none" fill-rule="evenodd">
        <g transform="translate(0.118886, 0.237551)">
            <g transform="translate(0.666667, 0.000000)">
                <g transform="translate(20.000000, 20.000000) scale(1, -1) translate(-20.000000, -20.000000) ">
                    <g>
                        <g>
                            <mask id="mask-2" fill="white">
                                <use xlink:href="#path-1"></use>
                            </mask>
                            <g></g>
                            <g mask="url(#mask-2)">
                                <g transform="translate(31.568875, 19.747500)" stroke-width="6.25" stroke="#444443">
                                    <path d="M5.25,0.25 C1.4,0.25 2.09125,0.2475 0.1575,0.245"></path>
                                </g>
                                <polygon fill="#AEAAAA" points="16.875 0 0 0 0 39.99 16.875 39.99"></polygon>
                                <g transform="translate(4.270625, 9.750000)" stroke-width="2.5" stroke="#444443">
                                    <polyline points="11.25 20.25 0.71625 10.04125 11.25 0.04125"></polyline>
                                </g>
                                <g transform="translate(16.090125, 11.940875)" fill="#444443">
                                    <path d="M6.25,5 C7.91875,3.82625 10.1975,4.22875 11.3575,5.87625 C12.54,7.55375 12.16875,9.85625 10.50125,11.035 C8.83375,12.20875 6.54125,11.78125 5.35875,10.10375 C4.1975,8.45625 4.58125,6.17625 6.25,5 M12.775,14.25875 C16.2125,11.835 17.065,7.06 14.61375,3.57875 C12.19875,0.15625 7.40125,-0.66625 3.9625,1.755 C0.51625,4.185 -0.29,8.9575 2.1225,12.3825 C4.57625,15.86375 9.3275,16.69 12.775,14.25875"></path>
                                </g>
                            </g>
                        </g>
                    </g>
                </g>
            </g>
        </g>
    </g>
</svg>