<?xml version="1.0" encoding="UTF-8" standalone="no"?>
<svg width="41px" height="41px" viewBox="0 0 41 41" version="1.1" xmlns="http://www.w3.org/2000/svg" xmlns:xlink="http://www.w3.org/1999/xlink">
    <!-- Generator: Sketch 41.2 (35397) - http://www.bohemiancoding.com/sketch -->
    <title>PinVisiblePin</title>
    <desc>Created with Sketch.</desc>
    <defs>
        <polygon id="path-1" points="0 40 40 40 40 0 0 0"></polygon>
    </defs>
    <g stroke="none" stroke-width="1" fill="none" fill-rule="evenodd">
        <g transform="translate(0.452219, 0.237551)">
            <g>
                <g transform="translate(20.500000, 20.500000) scale(1, -1) translate(-20.500000, -20.500000) ">
                    <polygon fill="#444443" points="19.995 0 40.00125 0 40.00125 40 19.995 40 19.995 0"></polygon>
                    <polygon fill="#AEAAAA" points="0 0.03875 20 0.03875 20 40.00125 0 40.00125 0 0.03875"></polygon>
                    <g>
                        <g>
                            <mask id="mask-2" fill="white">
                                <use xlink:href="#path-1"></use>
                            </mask>
                            <g></g>
                            <g mask="url(#mask-2)">
                                <g transform="translate(2.500000, 10.000000)">
                                    <g transform="translate(1.004000, 1.200000)">
                                        <path d="M11.25,2.5 C11.8775,2.5 12.4575,2.16125 12.4575,1.29375 C12.4575,0.42375 11.8775,0.08625 11.25,0.08625 L0.535,0.08625 L0.535,18.86375 L11.25,18.86375 C11.8775,18.86375 12.4575,18.52625 12.4575,17.65625 C12.4575,16.78875 11.8775,16.45 11.25,16.45 L2.9475,16.45 L2.9475,10.6825 L6.49625,10.6825 C7.12375,10.6825 7.70375,10.34375 7.70375,9.475 C7.70375,8.605 7.12375,8.26875 6.49625,8.26875 L2.9475,8.26875 L2.9475,2.5 L11.25,2.5 Z" fill="#444443"></path>
                                    </g>
                                </g>
                            </g>
                        </g>
                    </g>
                </g>
            </g>
        </g>
    </g>
</svg>