<?xml version="1.0" encoding="UTF-8" standalone="no"?>
<svg width="41px" height="41px" viewBox="0 0 41 41" version="1.1" xmlns="http://www.w3.org/2000/svg" xmlns:xlink="http://www.w3.org/1999/xlink">
    <!-- Generator: Sketch 41.2 (35397) - http://www.bohemiancoding.com/sketch -->
    <title>PolygonThermalsOn</title>
    <desc>Created with Sketch.</desc>
    <defs>
        <polygon id="path-1" points="0 40 40 40 40 0 0 0"></polygon>
    </defs>
    <g stroke="none" stroke-width="1" fill="none" fill-rule="evenodd">
        <g transform="translate(-0.404924, 0.237551)">
            <g transform="translate(0.428571, 0.000000)">
                <g transform="translate(20.000000, 20.500000) scale(1, -1) translate(-20.000000, -20.500000) ">
                    <g transform="translate(5.213625, 0.000500)" fill="#AEAAAA">
                        <polygon points="16.5 40 16.5 34.9725 5.08 23.78625 0.05375 23.78625 0.05375 15.96875 0.05375 0 29.54625 0 29.54625 40"></polygon>
                    </g>
                    <g>
                        <g>
                            <mask id="mask-2" fill="white">
                                <use xlink:href="#path-1"></use>
                            </mask>
                            <g></g>
                            <g mask="url(#mask-2)">
                                <g transform="translate(5.000000, 0.000000)">
                                    <g transform="translate(8.960000, 6.501500)">
                                        <path d="M12.5,6.25 C12.5,2.875 9.76375,0.1375 6.3875,0.1375 C3.0125,0.1375 0.27625,2.875 0.27625,6.25 C0.27625,9.625 3.0125,12.36125 6.3875,12.36125 C9.76375,12.36125 12.5,9.625 12.5,6.25" fill="#3C3C3C"></path>
                                    </g>
                                    <g transform="translate(0.266750, 12.973625)">
                                        <path d="M0,0 L29.49375,0" stroke="#444443" stroke-width="2.5" fill="#3C3C3C"></path>
                                    </g>
                                    <g transform="translate(15.437625, 0.044000)">
                                        <path d="M0,0 L0,35.14625 L0,0 Z" fill="#444443"></path>
                                    </g>
                                    <g transform="translate(15.437625, 0.044000)">
                                        <path d="M0,0 L0,35.14625 L0,0 Z" stroke="#3C3C3C" stroke-width="2.5"></path>
                                    </g>
                                </g>
                            </g>
                        </g>
                    </g>
                </g>
            </g>
        </g>
    </g>
</svg>