<?xml version="1.0" encoding="UTF-8" standalone="no"?>
<svg width="41px" height="41px" viewBox="0 0 41 41" version="1.1" xmlns="http://www.w3.org/2000/svg" xmlns:xlink="http://www.w3.org/1999/xlink">
    <!-- Generator: Sketch 41.2 (35397) - http://www.bohemiancoding.com/sketch -->
    <title>PolygonThermalsOff</title>
    <desc>Created with Sketch.</desc>
    <defs>
        <polygon id="path-1" points="0 40 40 40 40 0 0 0"></polygon>
    </defs>
    <g stroke="none" stroke-width="1" fill="none" fill-rule="evenodd">
        <g transform="translate(0.166505, 0.237551)">
            <g transform="translate(0.642857, 0.000000)">
                <g transform="translate(20.000000, 20.500000) scale(1, -1) translate(-20.000000, -20.500000) ">
                    <g transform="translate(5.348625, 0.000500)" fill="#AEAAAA">
                        <polygon points="16.5 40 16.5 34.9725 5.07875 23.78625 0.05125 23.78625 0.05125 15.96875 0.05125 0 29.545 0 29.545 40"></polygon>
                    </g>
                    <g>
                        <g>
                            <mask id="mask-2" fill="white">
                                <use xlink:href="#path-1"></use>
                            </mask>
                            <g></g>
                            <g mask="url(#mask-2)">
                                <g transform="translate(13.750000, 6.250000)">
                                    <g transform="translate(0.030500, 0.273375)">
                                        <path d="M12.5,6.25 C12.5,2.8625 9.75375,0.11625 6.36625,0.11625 C2.97875,0.11625 0.23375,2.8625 0.23375,6.25 C0.23375,9.6375 2.97875,12.38375 6.36625,12.38375 C9.75375,12.38375 12.5,9.6375 12.5,6.25" fill="#3C3C3C"></path>
                                    </g>
                                </g>
                            </g>
                        </g>
                    </g>
                </g>
            </g>
        </g>
    </g>
</svg>