<?xml version="1.0" encoding="UTF-8" standalone="no"?>
<svg width="41px" height="41px" viewBox="0 0 41 41" version="1.1" xmlns="http://www.w3.org/2000/svg" xmlns:xlink="http://www.w3.org/1999/xlink">
    <!-- Generator: Sketch 41.2 (35397) - http://www.bohemiancoding.com/sketch -->
    <title>PolygonPourHatch</title>
    <desc>Created with Sketch.</desc>
    <defs></defs>
    <g stroke="none" stroke-width="1" fill="none" fill-rule="evenodd">
        <g transform="translate(0.309362, 0.237551)">
            <g transform="translate(4.571429, 0.000000)">
                <g transform="translate(16.250000, 20.500000) scale(1, -1) translate(-16.250000, -20.500000) translate(0.750000, 0.000000)">
                    <g transform="translate(0.450125, 0.000500)" fill="#3C3C3C">
                        <polygon points="16.5 40 16.5 34.9725 5.08 23.78625 0.05375 23.78625 0.05375 15.96875 0.05375 0 29.545 0 29.545 40"></polygon>
                    </g>
                    <polygon fill="#FFFFFF" points="6.96 15.11375 3.21 15.11375 3.21 18.86375 6.96 18.86375"></polygon>
                    <polygon fill="#FFFFFF" points="6.91875 8.62375 3.16875 8.62375 3.16875 12.3725 6.91875 12.3725 6.91875 8.62375"></polygon>
                    <polygon fill="#FFFFFF" points="6.875 2.44625 3.125 2.44625 3.125 6.195 6.875 6.195 6.875 2.44625"></polygon>
                    <polygon fill="#FFFFFF" points="13.61 15.12 9.86 15.12 9.86 18.87 13.61 18.87"></polygon>
                    <polygon fill="#FFFFFF" points="13.57 8.63125 9.82 8.63125 9.82 12.37875 13.57 12.37875"></polygon>
                    <polygon fill="#FFFFFF" points="13.52625 2.4525 9.77625 2.4525 9.77625 6.2025 13.52625 6.2025 13.52625 2.4525"></polygon>
                    <polygon fill="#FFFFFF" points="20.3375 15.1275 16.5875 15.1275 16.5875 18.8775 20.3375 18.8775"></polygon>
                    <polygon fill="#FFFFFF" points="20.29875 8.63875 16.54875 8.63875 16.54875 12.38625 20.29875 12.38625 20.29875 8.63875"></polygon>
                    <polygon fill="#FFFFFF" points="20.25375 2.46 16.50375 2.46 16.50375 6.21 20.25375 6.21"></polygon>
                    <polygon fill="#FFFFFF" points="27.08 15.045 23.33125 15.045 23.33125 18.795 27.08 18.795"></polygon>
                    <polygon fill="#FFFFFF" points="27.04125 8.5575 23.29 8.5575 23.29 12.305 27.04125 12.305 27.04125 8.5575"></polygon>
                    <polygon fill="#FFFFFF" points="26.995 2.3775 23.245 2.3775 23.245 6.1275 26.995 6.1275 26.995 2.3775"></polygon>
                    <polygon fill="#FFFFFF" points="13.57 21.2575 9.82 21.2575 9.82 25.005 13.57 25.005"></polygon>
                    <polygon fill="#FFFFFF" points="20.3375 27.75375 16.5875 27.75375 16.5875 31.50375 20.3375 31.50375"></polygon>
                    <polygon fill="#FFFFFF" points="20.29875 21.265 16.54875 21.265 16.54875 25.0125 20.29875 25.0125"></polygon>
                    <polygon fill="#FFFFFF" points="27.08 27.67125 23.33125 27.67125 23.33125 31.42125 27.08 31.42125"></polygon>
                    <polygon fill="#FFFFFF" points="27.04125 21.18375 23.29 21.18375 23.29 24.93125 27.04125 24.93125"></polygon>
                    <polygon fill="#FFFFFF" points="27.11375 33.95625 23.365 33.95625 23.365 37.70625 27.11375 37.70625"></polygon>
                </g>
            </g>
        </g>
    </g>
</svg>