<?xml version="1.0" encoding="UTF-8" standalone="no"?>
<!-- Created with Inkscape (http://www.inkscape.org/) -->

<svg
   xmlns:dc="http://purl.org/dc/elements/1.1/"
   xmlns:cc="http://creativecommons.org/ns#"
   xmlns:rdf="http://www.w3.org/1999/02/22-rdf-syntax-ns#"
   xmlns:svg="http://www.w3.org/2000/svg"
   xmlns="http://www.w3.org/2000/svg"
   xmlns:inkscape="http://www.inkscape.org/namespaces/inkscape"
   version="1.1"
   width="40"
   height="40"
   id="svg2"
   xml:space="preserve"><metadata
     id="metadata8"><rdf:RDF><cc:Work
         rdf:about=""><dc:format>image/svg+xml</dc:format><dc:type
           rdf:resource="http://purl.org/dc/dcmitype/StillImage" /></cc:Work></rdf:RDF></metadata><defs
     id="defs6"><clipPath
       id="clipPath16"><path
         d="M 0,32 32,32 32,0 0,0 0,32 z"
         inkscape:connector-curvature="0"
         id="path18" /></clipPath></defs><g
     transform="matrix(1.25,0,0,-1.25,0,40)"
     id="g10"><g
       id="g12"><g
         clip-path="url(#clipPath16)"
         id="g14"><g
           transform="translate(7.6064,8.4551)"
           id="g20"><path
             d="m 0,0 3.766,0 c 0.666,0 1.28,-0.359 1.28,-1.283 0,-0.922 -0.614,-1.28 -1.28,-1.28 l -10.092,0 c -0.665,0 -1.28,0.358 -1.28,1.28 0,0.924 0.615,1.283 1.28,1.283 l 3.765,0 0,14.803 -3.765,0 c -0.665,0 -1.28,0.359 -1.28,1.28 0,0.923 0.615,1.281 1.28,1.281 l 10.092,0 c 0.666,0 1.28,-0.358 1.28,-1.281 0,-0.921 -0.614,-1.28 -1.28,-1.28 L 0,14.803 0,0 z"
             inkscape:connector-curvature="0"
             id="path22"
             style="fill:#444443;fill-opacity:1;fill-rule:nonzero;stroke:none" /></g><g
           transform="translate(20.2373,5.8926)"
           id="g24"><path
             d="m 0,0 c -1.921,0 -3.021,0.766 -3.841,2.434 l -2.356,4.761 c -0.436,0.871 -0.692,1.692 -0.692,2.691 0,1.127 0.205,1.818 0.718,2.843 l 2.355,4.739 c 0.873,1.767 1.973,2.459 3.945,2.459 l 4.355,0 c 0.563,0 1.278,-0.307 1.278,-1.281 0,-0.922 -0.69,-1.281 -1.278,-1.281 l -4.278,0 c -1.102,0 -1.28,-0.102 -1.767,-1.076 L -3.79,11.833 c -0.333,-0.692 -0.539,-1.152 -0.539,-1.947 0,-0.717 0.232,-1.154 0.539,-1.767 l 2.177,-4.43 C -1.101,2.637 -0.845,2.563 0.309,2.563 l 4.175,0 C 5.047,2.563 5.762,2.254 5.762,1.279 5.762,0.357 5.072,0 4.484,0 L 0,0 z"
             inkscape:connector-curvature="0"
             id="path26"
             style="fill:#444443;fill-opacity:1;fill-rule:nonzero;stroke:none" /></g><g
           transform="translate(28.6846,1.916)"
           id="g28"><path
             d="m 0,0 c 0,-1.11 0.731,-1.999 1.648,-1.999 0.922,0 1.667,0.889 1.667,1.999 l 0,27.985 c 0,1.105 -0.745,2.016 -1.667,2.016 C 0.731,30.001 0,29.09 0,27.985"
             inkscape:connector-curvature="0"
             id="path30"
             style="fill:#8a8a89;fill-opacity:1;fill-rule:nonzero;stroke:none" /></g></g></g></g></svg>