<?xml version="1.0" encoding="UTF-8" standalone="no"?>
<svg width="41px" height="41px" viewBox="0 0 41 41" version="1.1" xmlns="http://www.w3.org/2000/svg" xmlns:xlink="http://www.w3.org/1999/xlink">
    <!-- Generator: Sketch 41.2 (35397) - http://www.bohemiancoding.com/sketch -->
    <title>Print</title>
    <desc>Created with Sketch.</desc>
    <defs>
        <polygon id="path-1" points="0 40 40 40 40 0 0 0"></polygon>
    </defs>
    <g stroke="none" stroke-width="1" fill="none" fill-rule="evenodd">
        <g transform="translate(0.452219, 0.237551)">
            <g>
                <g transform="translate(20.000000, 20.000000) scale(1, -1) translate(-20.000000, -20.000000) ">
                    <g>
                        <g>
                            <mask id="mask-2" fill="white">
                                <use xlink:href="#path-1"></use>
                            </mask>
                            <g></g>
                            <g mask="url(#mask-2)">
                                <g transform="translate(-1.250000, -0.250000)">
                                    <g transform="translate(0.631125, 5.122375)">
                                        <path d="M35,20 L35,15.19625 L6.41625,15.19625 L6.41625,20 C3.135,19.3 0.7025,16.7225 0.7025,13.65875 L0.7025,6.8075 C0.7025,3.7325 3.135,1.1425 6.41625,0.46875 L6.41625,5.2475 L35,5.2475 L35,0.46875 C38.2725,1.1425 40.7025,3.7325 40.7025,6.8075 L40.7025,13.65875 C40.7025,16.7225 38.2725,19.3 35,20" fill="#3C3C3C"></path>
                                    </g>
                                    <g transform="translate(11.359875, 0.236625)">
                                        <path d="M0,5 L0,2.5 C0,1.14 1.41375,0.01375 3.1325,0.01375 L16.82125,0.01375 C18.5425,0.01375 19.93375,1.14 19.93375,2.5 L19.93375,5 L0,5 Z" fill="#3C3C3C"></path>
                                    </g>
                                    <g transform="translate(10.681125, 25.250000)">
                                        <path d="M17.5,15 L3.81125,15 C2.0925,15 0.67875,13.60125 0.67875,11.89125 L0.67875,2.54625 L0.67875,0.06375 L20.6125,0.06375 L20.6125,2.54625 L20.6125,11.89125 C20.6125,13.60125 19.22125,15 17.5,15" fill="#AEAAAA"></path>
                                    </g>
                                    <g transform="translate(13.408250, 33.331625)">
                                        <path d="M1.25,2.5 C0.72125,2.5 0.29875,2.08125 0.29875,1.555 C0.29875,1.02625 0.72125,0.59875 1.25,0.59875 L14.54625,0.59875 C15.07125,0.59875 15.5025,1.02625 15.5025,1.555 C15.5025,2.08125 15.07125,2.5 14.54625,2.5" fill="#3C3C3C"></path>
                                    </g>
                                    <g transform="translate(13.408250, 28.262125)">
                                        <path d="M1.25,2.5 C0.72125,2.5 0.29875,2.08125 0.29875,1.555 C0.29875,1.0275 0.72125,0.6 1.25,0.6 L14.54625,0.6 C15.07125,0.6 15.5025,1.0275 15.5025,1.555 C15.5025,2.08125 15.07125,2.5 14.54625,2.5" fill="#3C3C3C"></path>
                                    </g>
                                </g>
                            </g>
                        </g>
                    </g>
                </g>
            </g>
        </g>
    </g>
</svg>