<?xml version="1.0" encoding="UTF-8" standalone="no"?>
<svg width="41px" height="41px" viewBox="0 0 41 41" version="1.1" xmlns="http://www.w3.org/2000/svg" xmlns:xlink="http://www.w3.org/1999/xlink">
    <!-- Generator: Sketch 41.2 (35397) - http://www.bohemiancoding.com/sketch -->
    <title>ProjectOpen</title>
    <desc>Created with Sketch.</desc>
    <defs></defs>
    <g stroke="none" stroke-width="1" fill="none" fill-rule="evenodd">
        <g transform="translate(-108.000000, -16.000000)" fill="#DC7F24">
            <g transform="translate(107.802491, 15.263055)">
                <g transform="translate(7.801205, 1.858753)">
                    <g>
                        <path d="M23.4732229,2.50920658 C19.9117684,-1.45695866 0,0.485652887 0,0.485652887 L0,0.485652887 L0,0.485652887 L0,0.485652887 L0.323768591,37.1524458 L0.323768591,37.1524458 C0.323768591,37.1524458 5.26123961,37.233388 12.7888594,37.233388 C17.5644461,37.233388 20.7211898,36.666793 22.4209749,36.0192558 L22.4209749,36.0192558 C23.3922807,35.6954872 23.8779336,35.4526607 23.8779336,35.4526607 L24.2017022,29.1391732 C24.2017022,29.1391732 15.7027767,29.4629418 11.8175536,28.7344625 C8.25609908,28.0869253 8.41798337,22.8256857 11.5747271,22.8256857 C22.0162642,22.8256857 22.0162642,19.183289 21.4496692,15.7837188 L21.4496692,15.7027767 C17.3216196,15.4599502 12.8698015,15.2980659 10.8462478,14.6505288 C8.66080981,14.0029916 8.74175196,9.95588418 11.8175536,9.47023129 C13.9220494,9.1464627 24.2017022,10.0368263 24.5254708,8.57986767 L24.5254708,8.41798337 C24.3635865,7.20385115 23.4732229,2.50920658 23.4732229,2.50920658 Z"></path>
                    </g>
                </g>
            </g>
        </g>
    </g>
</svg>