<?xml version="1.0" encoding="UTF-8" standalone="no"?>
<!-- Created with Inkscape (http://www.inkscape.org/) -->

<svg
   xmlns:dc="http://purl.org/dc/elements/1.1/"
   xmlns:cc="http://creativecommons.org/ns#"
   xmlns:rdf="http://www.w3.org/1999/02/22-rdf-syntax-ns#"
   xmlns:svg="http://www.w3.org/2000/svg"
   xmlns="http://www.w3.org/2000/svg"
   xmlns:inkscape="http://www.inkscape.org/namespaces/inkscape"
   version="1.1"
   width="40"
   height="40"
   id="svg2"
   xml:space="preserve"><metadata
     id="metadata8"><rdf:RDF><cc:Work
         rdf:about=""><dc:format>image/svg+xml</dc:format><dc:type
           rdf:resource="http://purl.org/dc/dcmitype/StillImage" /></cc:Work></rdf:RDF></metadata><defs
     id="defs6"><clipPath
       id="clipPath20"><path
         d="M 0,32 32,32 32,0 0,0 0,32 z"
         inkscape:connector-curvature="0"
         id="path22" /></clipPath><clipPath
       id="clipPath36"><path
         d="M 0,32 32,32 32,0 0,0 0,32 z"
         inkscape:connector-curvature="0"
         id="path38" /></clipPath><clipPath
       id="clipPath52"><path
         d="M 0,32 32,32 32,0 0,0 0,32 z"
         inkscape:connector-curvature="0"
         id="path54" /></clipPath><clipPath
       id="clipPath68"><path
         d="M 0,32 32,32 32,0 0,0 0,32 z"
         inkscape:connector-curvature="0"
         id="path70" /></clipPath><clipPath
       id="clipPath84"><path
         d="M 0,32 32,32 32,0 0,0 0,32 z"
         inkscape:connector-curvature="0"
         id="path86" /></clipPath></defs><g
     transform="matrix(1.25,0,0,-1.25,0,40)"
     id="g10"><g
       transform="translate(14.875,17)"
       id="g12"><path
         d="M 0,0 -8.064,-8.701"
         inkscape:connector-curvature="0"
         id="path14"
         style="fill:#8a8a89;fill-opacity:1;fill-rule:nonzero;stroke:none" /></g><g
       id="g16"><g
         clip-path="url(#clipPath20)"
         id="g18"><g
           transform="translate(14.875,17)"
           id="g24"><path
             d="M 0,0 -8.064,-8.701"
             inkscape:connector-curvature="0"
             id="path26"
             style="fill:none;stroke:#b4b3b3;stroke-width:3.5;stroke-linecap:butt;stroke-linejoin:miter;stroke-miterlimit:10;stroke-opacity:1;stroke-dasharray:none" /></g></g></g><g
       transform="translate(14.875,17)"
       id="g28"><path
         d="M 0,0 5.189,-13.076"
         inkscape:connector-curvature="0"
         id="path30"
         style="fill:#8a8a89;fill-opacity:1;fill-rule:nonzero;stroke:none" /></g><g
       id="g32"><g
         clip-path="url(#clipPath36)"
         id="g34"><g
           transform="translate(14.875,17)"
           id="g40"><path
             d="M 0,0 5.189,-13.076"
             inkscape:connector-curvature="0"
             id="path42"
             style="fill:none;stroke:#b4b3b3;stroke-width:3.5;stroke-linecap:butt;stroke-linejoin:miter;stroke-miterlimit:10;stroke-opacity:1;stroke-dasharray:none" /></g></g></g><g
       transform="translate(20.5801,28.0762)"
       id="g44"><path
         d="M 0,0 -5.985,-10.764"
         inkscape:connector-curvature="0"
         id="path46"
         style="fill:#8a8a89;fill-opacity:1;fill-rule:nonzero;stroke:none" /></g><g
       id="g48"><g
         clip-path="url(#clipPath52)"
         id="g50"><g
           transform="translate(20.5801,28.0762)"
           id="g56"><path
             d="M 0,0 -5.985,-10.764"
             inkscape:connector-curvature="0"
             id="path58"
             style="fill:none;stroke:#b4b3b3;stroke-width:3.5;stroke-linecap:butt;stroke-linejoin:miter;stroke-miterlimit:10;stroke-opacity:1;stroke-dasharray:none" /></g></g></g><g
       transform="translate(26.5645,14.75)"
       id="g60"><path
         d="M 0,0 -11.97,2.563"
         inkscape:connector-curvature="0"
         id="path62"
         style="fill:#8a8a89;fill-opacity:1;fill-rule:nonzero;stroke:none" /></g><g
       id="g64"><g
         clip-path="url(#clipPath68)"
         id="g66"><g
           transform="translate(26.5645,14.75)"
           id="g72"><path
             d="M 0,0 -11.97,2.563"
             inkscape:connector-curvature="0"
             id="path74"
             style="fill:none;stroke:#b4b3b3;stroke-width:3.5;stroke-linecap:butt;stroke-linejoin:miter;stroke-miterlimit:10;stroke-opacity:1;stroke-dasharray:none" /></g></g></g><g
       transform="translate(14.875,17)"
       id="g76"><path
         d="M 0,0 -10.94,7.951"
         inkscape:connector-curvature="0"
         id="path78"
         style="fill:#8a8a89;fill-opacity:1;fill-rule:nonzero;stroke:none" /></g><g
       id="g80"><g
         clip-path="url(#clipPath84)"
         id="g82"><g
           transform="translate(14.875,17)"
           id="g88"><path
             d="M 0,0 -10.94,7.951"
             inkscape:connector-curvature="0"
             id="path90"
             style="fill:none;stroke:#b4b3b3;stroke-width:3.5;stroke-linecap:butt;stroke-linejoin:miter;stroke-miterlimit:10;stroke-opacity:1;stroke-dasharray:none" /></g><g
           transform="translate(10.7466,8.2842)"
           id="g92"><path
             d="m 0,0 c 0,-2.183 -1.764,-3.909 -3.922,-3.909 -2.169,0 -3.95,1.726 -3.95,3.909 0,2.199 1.781,3.938 3.95,3.938 C -1.764,3.938 0,2.199 0,0"
             inkscape:connector-curvature="0"
             id="path94"
             style="fill:#444443;fill-opacity:1;fill-rule:nonzero;stroke:none" /></g><g
           transform="translate(7.8701,24.937)"
           id="g96"><path
             d="m 0,0 c 0,-2.184 -1.763,-3.909 -3.921,-3.909 -2.169,0 -3.949,1.725 -3.949,3.909 0,2.199 1.78,3.938 3.949,3.938 C -1.763,3.938 0,2.199 0,0"
             inkscape:connector-curvature="0"
             id="path98"
             style="fill:#444443;fill-opacity:1;fill-rule:nonzero;stroke:none" /></g><g
           transform="translate(18.8105,16.9858)"
           id="g100"><path
             d="m 0,0 c 0,-2.183 -1.764,-3.91 -3.922,-3.91 -2.169,0 -3.949,1.727 -3.949,3.91 0,2.198 1.78,3.938 3.949,3.938 C -1.764,3.938 0,2.198 0,0"
             inkscape:connector-curvature="0"
             id="path102"
             style="fill:#444443;fill-opacity:1;fill-rule:nonzero;stroke:none" /></g><g
           transform="translate(31.8711,14.7363)"
           id="g104"><path
             d="m 0,0 c 0,-2.184 -1.764,-3.909 -3.922,-3.909 -2.17,0 -3.949,1.725 -3.949,3.909 0,2.198 1.779,3.938 3.949,3.938 C -1.764,3.938 0,2.198 0,0"
             inkscape:connector-curvature="0"
             id="path106"
             style="fill:#444443;fill-opacity:1;fill-rule:nonzero;stroke:none" /></g><g
           transform="translate(24,3.9111)"
           id="g108"><path
             d="m 0,0 c 0,-2.186 -1.764,-3.911 -3.922,-3.911 -2.169,0 -3.949,1.725 -3.949,3.911 0,2.197 1.78,3.938 3.949,3.938 C -1.764,3.938 0,2.197 0,0"
             inkscape:connector-curvature="0"
             id="path110"
             style="fill:#444443;fill-opacity:1;fill-rule:nonzero;stroke:none" /></g><g
           transform="translate(24.374,28.062)"
           id="g112"><path
             d="m 0,0 c 0,-2.183 -1.765,-3.909 -3.922,-3.909 -2.17,0 -3.949,1.726 -3.949,3.909 0,2.199 1.779,3.938 3.949,3.938 C -1.765,3.938 0,2.199 0,0"
             inkscape:connector-curvature="0"
             id="path114"
             style="fill:#444443;fill-opacity:1;fill-rule:nonzero;stroke:none" /></g></g></g></g></svg>