<?xml version="1.0" encoding="UTF-8" standalone="no"?>
<svg width="41px" height="41px" viewBox="0 0 41 41" version="1.1" xmlns="http://www.w3.org/2000/svg" xmlns:xlink="http://www.w3.org/1999/xlink">
    <!-- Generator: Sketch 41.2 (35397) - http://www.bohemiancoding.com/sketch -->
    <title>Redo_D</title>
    <desc>Created with Sketch.</desc>
    <defs>
        <polygon id="path-1" points="0 40 40 40 40 0 0 0"></polygon>
    </defs>
    <g stroke="none" stroke-width="1" fill="none" fill-rule="evenodd">
        <g transform="translate(0.452219, 0.237551)">
            <g transform="translate(0.000000, 0.500000)">
                <g transform="translate(20.000000, 20.000000) scale(1, -1) translate(-20.000000, -20.000000) ">
                    <g>
                        <g>
                            <mask id="mask-2" fill="white">
                                <use xlink:href="#path-1"></use>
                            </mask>
                            <g></g>
                            <g mask="url(#mask-2)">
                                <g transform="translate(-0.250000, 7.250000)">
                                    <g transform="translate(0.057375, 0.040250)">
                                        <path d="M0.25,9 C2.94125,15.71 10.76875,18.61625 17.845,15.8275 C20.83,14.65375 23.26,12.5675 24.8,9.98375 L19.89375,7.9775 C18.76875,7.52625 18.79875,5.94375 19.9775,5.48125 L26.77875,2.7675 L33.1725,0.24375 C33.47625,0.12625 33.85125,0.12 34.16625,0.235 C34.5275,0.35625 34.8525,0.5875 35.01125,0.95375 L35.0875,1.145 L35.785,2.88 L40.1025,13.54 C40.53625,14.62625 39.31875,15.7875 38.19,15.3475 L33.21375,13.28125 C32.535,14.54 31.73375,15.71 30.8325,16.8425 C29.63875,18.33125 28.27625,19.655 26.7425,20.8225 C25.04125,22.11 23.1425,23.16 21.11,23.9625 C9.31125,28.61 4.67625,20.19125 0.1925,9.025 L0.25,9 Z" fill="#AEAAAA"></path>
                                    </g>
                                </g>
                            </g>
                        </g>
                    </g>
                </g>
            </g>
        </g>
    </g>
</svg>