<?xml version="1.0" encoding="UTF-8" standalone="no"?>
<svg width="40px" height="40px" viewBox="0 0 40 40" version="1.1" xmlns="http://www.w3.org/2000/svg" xmlns:xlink="http://www.w3.org/1999/xlink">
    <!-- Generator: Sketch 41.2 (35397) - http://www.bohemiancoding.com/sketch -->
    <title>Replace</title>
    <desc>Created with Sketch.</desc>
    <defs></defs>
    <g stroke="none" stroke-width="1" fill="none" fill-rule="evenodd">
        <g>
            <g>
                <g transform="translate(2.000000, 3.000000)">
                    <g transform="translate(19.123535, 9.011475) rotate(90.000000) translate(-19.123535, -9.011475) translate(10.623535, -6.988525)">
                        <path d="M11.8780461,7.52349759 C5.60977204,8.68818667 0.8984375,13.6715486 0.8984375,19.6425121 C0.8984375,25.1717632 4.93849664,29.854127 10.5137648,31.4414993 C11.3259278,31.6727357 12.1706686,31.838295 13.0402442,31.9312277" stroke="#3C3C3C" stroke-width="4"></path>
                        <path d="M5.38195386,11.9734099 C4.91419698,11.9490047 4.57500485,11.5197602 4.64475807,11.0330917 L5.71277421,2.73430222 C5.76611491,1.98491892 6.69752555,1.68774969 7.16528244,2.28352376 L8.72447205,4.27039442 L12.8973558,9.6050847 L14.4702226,11.6206674 C14.9160961,12.1920362 14.4592809,13.0864151 13.7562778,13.0103283 L5.38195386,11.9734099 Z" fill="#3C3C3C" transform="translate(9.641289, 7.490742) scale(1, -1) rotate(-115.000000) translate(-9.641289, -7.490742) "></path>
                    </g>
                    <path d="M13.7581131,18 C14.8600114,18 15.7532765,18.8919152 15.7532765,19.9947484 L15.7532765,31.7552516 C15.7532765,32.8569207 14.8611757,33.75 13.7581131,33.75 L1.99516335,33.75 C0.893265059,33.75 0,32.8580848 0,31.7552516 L0,19.9947484 C0,18.8930793 0.892100777,18 1.99516335,18 L13.7581131,18 Z" fill="#3C3C3C"></path>
                    <circle fill="#8C8C8C" cx="27.875" cy="25.875" r="7.875"></circle>
                </g>
            </g>
        </g>
    </g>
</svg>