<?xml version="1.0" encoding="UTF-8" standalone="no"?>
<svg width="40px" height="40px" viewBox="0 0 40 40" version="1.1" xmlns="http://www.w3.org/2000/svg" xmlns:xlink="http://www.w3.org/1999/xlink">
    <!-- Generator: Sketch 41.2 (35397) - http://www.bohemiancoding.com/sketch -->
    <title>Rotate</title>
    <desc>Created with Sketch.</desc>
    <defs>
        <rect id="path-1" x="0.487804878" y="0" width="39.0243902" height="40"></rect>
    </defs>
    <g stroke="none" stroke-width="1" fill="none" fill-rule="evenodd">
        <g transform="translate(0.000000, -1.000000)">
            <g transform="translate(0.000000, 1.000000)">
                <g>
                    <mask id="mask-2" fill="white">
                        <use xlink:href="#path-1"></use>
                    </mask>
                    <g></g>
                    <g mask="url(#mask-2)">
                        <g transform="translate(-0.487805, 1.500000)">
                            <g>
                                <path d="M21.7149265,36.25 C30.8859418,36.25 38.3275261,28.307258 38.3275261,18.5 C38.3275261,8.692742 30.8859418,0.75 21.7149265,0.75 C12.5439112,0.75 5.10232689,8.692742 5.10232689,18.5 L9.28351155,18.5 C9.28351155,11.1864308 14.8453755,5.25 21.7149265,5.25 C28.5844776,5.25 34.1463415,11.1864308 34.1463415,18.5 C34.1463415,25.8135692 28.5844776,31.75 21.7149265,31.75 L21.7149265,36.25 Z" fill="#3C3C3C"></path>
                                <path d="M3.21794113,22.8393204 C2.80701966,22.8175188 2.50904153,22.4340687 2.57031929,21.9993208 L3.26600212,14.4046986 C3.31286158,13.7352639 4.13109994,13.4697983 4.5420214,14.0020118 L5.91175962,15.7769117 L9.57761163,20.5424666 L10.9593651,22.3430153 C11.3510622,22.8534272 10.9497529,23.6523887 10.3321692,23.5844192 L3.21794113,22.8393204 Z" fill="#3C3C3C" transform="translate(6.838459, 18.653694) rotate(-53.000000) translate(-6.838459, -18.653694) "></path>
                            </g>
                        </g>
                    </g>
                </g>
            </g>
        </g>
    </g>
</svg>