<?xml version="1.0" encoding="UTF-8" standalone="no"?>
<svg width="41px" height="41px" viewBox="0 0 41 41" version="1.1" xmlns="http://www.w3.org/2000/svg" xmlns:xlink="http://www.w3.org/1999/xlink">
    <!-- Generator: Sketch 41.2 (35397) - http://www.bohemiancoding.com/sketch -->
    <title>Route</title>
    <desc>Created with Sketch.</desc>
    <defs>
        <polygon id="path-1" points="0.373705682 12 11.9990866 12 11.9990866 0.365491357 0.373705682 0.365491357 0.373705682 12"></polygon>
    </defs>
    <g stroke="none" stroke-width="1" fill="none" fill-rule="evenodd">
        <g transform="translate(-0.172610, 0.503176)">
            <g transform="translate(0.878906, 0.000000)">
                <path d="M4.4064,5.7065 L21.4454,5.7065 L4.4064,5.7065 Z" fill="#8A8A89"></path>
                <path d="M4.4067,5.7066 L21.4457,5.7066" stroke="#2B74B9" stroke-width="4.5" stroke-linecap="round"></path>
                <path d="M21.5091,17.4227 L21.5011,6.3147 L21.5091,17.4227 Z" fill="#2B74B9"></path>
                <path d="M21.502,6.315 L21.509,17.422" stroke="#2B74B9" stroke-width="4.5" stroke-linecap="round"></path>
                <path d="M21.6016,17.7735 L34.0626,33.7905" fill="#8A8A89"></path>
                <g transform="translate(0.000000, 0.000100)">
                    <path d="M21.6016,17.7734 L34.0626,33.7904" stroke="#2B74B9" stroke-width="4.5" stroke-linecap="round"></path>
                    <g transform="translate(28.000000, 28.000000)">
                        <mask id="mask-2" fill="white">
                            <use xlink:href="#path-1"></use>
                        </mask>
                        <g></g>
                        <path d="M5.1836,0.4521 C8.3346,-0.0959 11.3616,2.0121 11.9156,5.2051 C12.4556,8.3451 10.3186,11.3671 7.1666,11.9151 C4.0046,12.4611 1.0046,10.3301 0.4616,7.1851 C-0.0914,3.9961 2.0226,0.9971 5.1836,0.4521" fill="#42AB3D" mask="url(#mask-2)"></path>
                    </g>
                    <path d="M4.8096,0.0864 C7.9606,-0.4606 10.9876,1.6464 11.5416,4.8394 C12.0816,7.9794 9.9446,11.0014 6.7936,11.5494 C3.6306,12.0954 0.6306,9.9644 0.0886,6.8204 C-0.4654,3.6304 1.6486,0.6314 4.8096,0.0864" fill="#42AB3D"></path>
                </g>
            </g>
        </g>
    </g>
</svg>