<?xml version="1.0" encoding="UTF-8" standalone="no"?>
<svg width="41px" height="41px" viewBox="0 0 41 41" version="1.1" xmlns="http://www.w3.org/2000/svg" xmlns:xlink="http://www.w3.org/1999/xlink">
    <!-- Generator: Sketch 41.2 (35397) - http://www.bohemiancoding.com/sketch -->
    <title>Run</title>
    <desc>Created with Sketch.</desc>
    <defs>
        <polygon id="path-1" points="0 40 40 40 40 0 0 0"></polygon>
    </defs>
    <g stroke="none" stroke-width="1" fill="none" fill-rule="evenodd">
        <g transform="translate(0.452219, 0.237551)">
            <g>
                <g transform="translate(20.000000, 20.000000) scale(1, -1) translate(-20.000000, -20.000000) ">
                    <polygon fill="#F39415" points="0.01625 0.0325 39.95875 0.0325 39.95875 40 0.01625 40 0.01625 0.0325"></polygon>
                    <g>
                        <g>
                            <mask id="mask-2" fill="white">
                                <use xlink:href="#path-1"></use>
                            </mask>
                            <g></g>
                            <g mask="url(#mask-2)">
                                <g transform="translate(2.500000, 11.250000)">
                                    <g transform="translate(1.103500, 1.770000)">
                                        <path d="M3.75,0 C2.78,0 2.02375,0.23375 1.34375,0.99125 C0.7025,1.7075 0.60625,2.40625 0.60625,3.3 L0.60625,14.12875 C0.60625,14.75 0.87875,15.09875 1.57625,15.09875 C2.275,15.09875 2.5475,14.75 2.5475,14.12875 L2.5475,3.3 C2.5475,2.2125 2.87625,1.94 3.75,1.94 L7.05,1.94 C7.9225,1.94 8.2525,2.2125 8.2525,3.3 L8.2525,14.12875 C8.2525,14.75 8.525,15.09875 9.2225,15.09875 C9.9225,15.09875 10.1925,14.75 10.1925,14.12875 L10.1925,3.3 C10.1925,2.40625 10.09625,1.7075 9.45625,0.99125 C8.77625,0.23375 8.02,0 7.05,0 L3.75,0 Z" fill="#FFFFFF"></path>
                                    </g>
                                    <g transform="translate(13.353250, 1.209750)">
                                        <path d="M8.75,2.5 C9.25375,2.5 9.72,2.22875 9.72,1.53125 C9.72,0.8325 9.25375,0.56 8.75,0.56 L0.1325,0.56 L0.1325,14.68875 C0.1325,15.31 0.405,15.65875 1.10375,15.65875 C1.8025,15.65875 2.07375,15.31 2.07375,14.68875 L2.07375,2.5 L8.75,2.5 Z" fill="#FFFFFF"></path>
                                    </g>
                                    <g transform="translate(23.870875, 0.666500)">
                                        <path d="M2.5,8.75 L6.80625,8.75 C7.9525,8.75 8.205,9.04125 8.205,10.1475 L8.205,12.865 C8.205,13.97 7.9525,14.26125 6.80625,14.26125 L2.5,14.26125 L2.5,8.75 Z M2.5,2.07375 C2.5,1.4525 2.2275,1.10375 1.53,1.10375 C0.83125,1.10375 0.55875,1.4525 0.55875,2.07375 L0.55875,16.2025 L7.0025,16.2025 C7.8925,16.2025 8.53375,16.06625 9.235,15.4075 C10.06875,14.63 10.14625,13.9125 10.14625,12.865 L10.14625,10.22375 C10.14625,9.235 10.06875,8.53625 9.34875,7.74125 C8.5925,6.88625 7.7975,6.80875 6.75,6.80875 L2.5,6.80875 L2.5,2.07375 L2.5,2.07375 Z" fill="#FFFFFF"></path>
                                    </g>
                                </g>
                            </g>
                        </g>
                    </g>
                </g>
            </g>
        </g>
    </g>
</svg>