<?xml version="1.0" encoding="UTF-8" standalone="no"?>
<svg width="40px" height="40px" viewBox="0 0 40 40" version="1.1" xmlns="http://www.w3.org/2000/svg" xmlns:xlink="http://www.w3.org/1999/xlink">
    <!-- Generator: Sketch 41.2 (35397) - http://www.bohemiancoding.com/sketch -->
    <title>Sch</title>
    <desc>Created with Sketch.</desc>
    <defs>
        <polygon id="path-1" points="0 40 40 40 40 0 0 0"></polygon>
    </defs>
    <g stroke="none" stroke-width="1" fill="none" fill-rule="evenodd">
        <g>
            <g>
                <g>
                    <g transform="translate(20.000000, 20.000000) scale(1, -1) translate(-20.000000, -20.000000) ">
                        <g>
                            <g>
                                <mask id="mask-2" fill="white">
                                    <use xlink:href="#path-1"></use>
                                </mask>
                                <g></g>
                                <g mask="url(#mask-2)">
                                    <g transform="translate(3.750000, 0.000000)">
                                        <g stroke-width="1" fill="none" transform="translate(2.828625, 0.000000)">
                                            <path d="M26.5,33.75 C26.5,34.77125 26.115,35.69375 25.44125,36.40625 C24.76,37.1225 23.85125,37.4975 22.89375,37.4975 L6.18625,37.4975 C5.21875,37.4975 4.31875,37.1225 3.65,36.40625 C2.96875,35.69375 2.595,34.77125 2.595,33.75 L2.595,6.245 C2.595,4.185 4.2075,2.5025 6.18625,2.5025 L12.18,2.5025 L16.89375,2.5025 L19.31,2.5025 L19.33,2.5025 L19.33,10.18125 L26.5,10.18125 L26.5,33.75 Z M28.88,9.9125 C28.84125,9.2825 28.59375,8.6875 28.18125,8.2375 L21.01375,0.7325 C20.55125,0.26625 19.96,0 19.31,0 L16.89375,0 L12.18,0 L6.18625,0 C2.8675,0 0.20875,2.80125 0.20875,6.245 L0.20875,33.75 C0.20875,35.485 0.885,37.0525 1.9625,38.18375 C3.05,39.29875 4.52875,40 6.18625,40 L22.89375,40 C24.55,40 26.0475,39.29875 27.12125,38.18375 C28.19875,37.0525 28.88,35.485 28.88,33.75 L28.88,10.18125 L28.88,9.9125 Z" fill="#3C3C3C"></path>
                                        </g>
                                        <polygon fill="#BF272F" points="29.32375 15.17875 0.785 15.17875 0.785 32.67875 29.32375 32.67875"></polygon>
                                        <g stroke-width="1" fill="none" transform="translate(2.445125, 17.438375)">
                                            <path d="M7.5,3.75 C7.78625,3.3775 8.00125,3.0475 8.00125,2.55875 C8.00125,1.48375 7.18375,0.9375 6.195,0.9375 L3.03875,0.9375 C2.4925,0.9375 2.02,1.03875 1.58875,1.3975 C1.20125,1.7125 0.915,2.22875 0.915,2.73125 C0.915,3.19 1.1725,3.5925 1.675,3.5925 C2.09125,3.5925 2.34875,3.24875 2.34875,2.86125 C2.34875,2.43 2.57875,2.3725 2.98125,2.3725 L6.09375,2.3725 C6.20875,2.3725 6.56625,2.32875 6.56625,2.54625 C6.56625,2.66 6.36625,2.875 6.30875,2.96125 L1.3875,9.2875 C1.08625,9.675 0.915,9.9625 0.915,10.465 C0.915,11.03875 1.1875,11.52625 1.675,11.84125 C2.07625,12.1 2.40625,12.1 2.865,12.1 L5.9075,12.1 C6.4525,12.1 6.91125,11.985 7.3275,11.62625 C7.70125,11.29625 8.00125,10.765 8.00125,10.26375 C8.00125,9.80375 7.7725,9.43125 7.25625,9.43125 C6.825,9.43125 6.56625,9.70375 6.56625,10.105 C6.56625,10.59375 6.32375,10.665 5.87875,10.665 L2.8375,10.665 C2.68,10.665 2.34875,10.7075 2.34875,10.465 C2.34875,10.335 2.5075,10.1625 2.56375,10.07625 L7.5,3.75 Z" fill="#FFFFFF"></path>
                                        </g>
                                        <g stroke-width="1" fill="none" transform="translate(10.877375, 18.376500)">
                                            <path d="M4,0 C2.92375,0 2.3075,0.43 1.8475,1.36375 L0.52875,4.03125 C0.28375,4.51875 0.14125,4.9775 0.14125,5.5375 C0.14125,6.16875 0.255,6.55625 0.5425,7.13 L1.8625,9.785 C2.35,10.77375 2.9675,11.16125 4.07125,11.16125 L6.51,11.16125 C6.825,11.16125 7.22875,10.99 7.22875,10.44375 C7.22875,9.9275 6.84,9.72625 6.51,9.72625 L4.115,9.72625 C3.4975,9.72625 3.3975,9.66875 3.125,9.12375 L1.87625,6.6275 C1.69,6.24125 1.575,5.9825 1.575,5.5375 C1.575,5.135 1.705,4.8925 1.87625,4.5475 L3.095,2.06625 C3.3825,1.4775 3.5275,1.43375 4.17125,1.43375 L6.51,1.43375 C6.825,1.43375 7.22875,1.2625 7.22875,0.7175 C7.22875,0.20125 6.84,0 6.51,0 L4,0 Z" fill="#FFFFFF"></path>
                                        </g>
                                        <g stroke-width="1" fill="none" transform="translate(19.547375, 18.239750)">
                                            <path d="M1.5,5 L1.5,0.85375 C1.5,0.39375 1.3,0.13625 0.78375,0.13625 C0.2675,0.13625 0.06625,0.39375 0.06625,0.85375 L0.06625,10.58125 C0.06625,11.04 0.2675,11.29875 0.78375,11.29875 C1.3,11.29875 1.5,11.04 1.5,10.58125 L1.5,6.435 L5.71875,6.435 L5.71875,10.58125 C5.71875,11.04 5.91875,11.29875 6.435,11.29875 C6.95125,11.29875 7.1525,11.04 7.1525,10.58125 L7.1525,0.85375 C7.1525,0.39375 6.95125,0.13625 6.435,0.13625 C5.91875,0.13625 5.71875,0.39375 5.71875,0.85375 L5.71875,5 L1.5,5 Z" fill="#FFFFFF"></path>
                                        </g>
                                    </g>
                                </g>
                            </g>
                        </g>
                    </g>
                </g>
            </g>
        </g>
    </g>
</svg>