<?xml version="1.0" encoding="UTF-8" standalone="no"?>
<svg width="40px" height="40px" viewBox="0 0 40 40" version="1.1" xmlns="http://www.w3.org/2000/svg" xmlns:xlink="http://www.w3.org/1999/xlink">
    <!-- Generator: Sketch 41.2 (35397) - http://www.bohemiancoding.com/sketch -->
    <title>Scr</title>
    <desc>Created with Sketch.</desc>
    <defs>
        <polygon id="path-1" points="0 40 40 40 40 0 0 0"></polygon>
    </defs>
    <g stroke="none" stroke-width="1" fill="none" fill-rule="evenodd">
        <g>
            <g>
                <g>
                    <g transform="translate(20.000000, 20.000000) scale(1, -1) translate(-20.000000, -20.000000) ">
                        <g>
                            <g>
                                <mask id="mask-2" fill="white">
                                    <use xlink:href="#path-1"></use>
                                </mask>
                                <g></g>
                                <g mask="url(#mask-2)">
                                    <g transform="translate(3.750000, 0.000000)">
                                        <g stroke-width="1" fill="none" transform="translate(2.828625, 0.000000)">
                                            <path d="M26.5,33.75 C26.5,34.77125 26.115,35.69375 25.44125,36.40625 C24.76,37.1225 23.85125,37.4975 22.89375,37.4975 L6.18625,37.4975 C5.21875,37.4975 4.31875,37.1225 3.65,36.40625 C2.96875,35.69375 2.595,34.77125 2.595,33.75 L2.595,6.245 C2.595,4.185 4.2075,2.5025 6.18625,2.5025 L12.18,2.5025 L16.89375,2.5025 L19.31,2.5025 L19.33,2.5025 L19.33,10.18125 L26.5,10.18125 L26.5,33.75 Z M28.88,9.9125 C28.84125,9.2825 28.59375,8.6875 28.18125,8.2375 L21.01375,0.7325 C20.55125,0.26625 19.96,0 19.31,0 L16.89375,0 L12.18,0 L6.18625,0 C2.8675,0 0.20875,2.80125 0.20875,6.245 L0.20875,33.75 C0.20875,35.485 0.885,37.0525 1.9625,38.18375 C3.05,39.29875 4.52875,40 6.18625,40 L22.89375,40 C24.55,40 26.0475,39.29875 27.12125,38.18375 C28.19875,37.0525 28.88,35.485 28.88,33.75 L28.88,10.18125 L28.88,9.9125 Z" fill="#3C3C3C"></path>
                                        </g>
                                        <polygon fill="#2B74B9" points="29.32875 15.205 0.79125 15.205 0.79125 32.705 29.32875 32.705 29.32875 15.205"></polygon>
                                        <g stroke-width="1" fill="none" transform="translate(3.853375, 17.501875)">
                                            <path d="M6.5,3.75 C6.78,3.37875 6.99,3.0475 6.99,2.55875 C6.99,1.485 6.19,0.94125 5.22375,0.94125 L2.1375,0.94125 C1.60375,0.94125 1.14125,1.0425 0.72125,1.39875 C0.3425,1.71625 0.06125,2.23 0.06125,2.73125 C0.06125,3.19125 0.31375,3.5925 0.805,3.5925 C1.21125,3.5925 1.46375,3.24625 1.46375,2.86 C1.46375,2.43125 1.6875,2.3725 2.0825,2.3725 L5.125,2.3725 C5.23875,2.3725 5.58875,2.3325 5.58875,2.545 C5.58875,2.66 5.39125,2.87625 5.33625,2.9625 L0.52375,9.275 C0.22875,9.6625 0.06125,9.94875 0.06125,10.45 C0.06125,11.0225 0.32875,11.51 0.805,11.82625 C1.1975,12.08375 1.51875,12.08375 1.97,12.08375 L4.94125,12.08375 C5.47625,12.08375 5.925,11.96875 6.33,11.61 C6.695,11.28 6.99,10.75125 6.99,10.25 C6.99,9.79125 6.765,9.42125 6.26125,9.42125 C5.84125,9.42125 5.58875,9.69125 5.58875,10.09375 C5.58875,10.57875 5.35,10.6525 4.915,10.6525 L1.94125,10.6525 C1.78625,10.6525 1.46375,10.69625 1.46375,10.45 C1.46375,10.3225 1.61875,10.15 1.675,10.06375 L6.5,3.75 Z" fill="#FFFFFF"></path>
                                        </g>
                                        <g stroke-width="1" fill="none" transform="translate(10.878500, 18.404500)">
                                            <path d="M4,0 C2.9475,0 2.345,0.43 1.89625,1.35875 L0.60625,4.02375 C0.3675,4.51125 0.22625,4.9675 0.22625,5.52625 C0.22625,6.15625 0.34,6.5425 0.61875,7.115 L1.91125,9.765 C2.38625,10.755 2.98875,11.14125 4.07125,11.14125 L6.45375,11.14125 C6.765,11.14125 7.15375,10.97 7.15375,10.425 C7.15375,9.9075 6.7775,9.71 6.45375,9.71 L4.1125,9.71 C3.50875,9.71 3.41125,9.65 3.145,9.1075 L1.92375,6.615 C1.74,6.22875 1.62875,5.97125 1.62875,5.52625 C1.62875,5.125 1.755,4.88375 1.92375,4.54125 L3.115,2.06125 C3.39625,1.47375 3.5375,1.43 4.1675,1.43 L6.45375,1.43 C6.765,1.43 7.15375,1.26125 7.15375,0.715 C7.15375,0.20125 6.7775,0 6.45375,0 L4,0 Z" fill="#FFFFFF"></path>
                                        </g>
                                        <g stroke-width="1" fill="none" transform="translate(19.341125, 18.379500)">
                                            <path d="M1.5,7.5 L4.61375,7.5 C5.00375,7.5 5.62125,7.53 5.62125,8.10125 L5.62125,9.08875 C5.62125,9.66125 5.04875,9.735 4.625,9.735 L1.5,9.735 L1.5,7.5 Z M1.5,0.74 C1.5,0.2825 1.3025,0.025 0.7975,0.025 C0.2925,0.025 0.09625,0.2825 0.09625,0.74 L0.09625,11.16625 L4.80875,11.16625 C5.91875,11.16625 7.025,10.3625 7.025,9.08875 L7.025,8.10125 C7.025,6.7575 5.93125,6.065 4.80875,6.065 L3.51875,6.065 L6.675,1.455 C6.82875,1.24125 7.025,0.96875 7.025,0.69625 C7.025,0.295 6.70375,0.025 6.31125,0.025 C6.03,0.025 5.8475,0.195 5.6925,0.42625 L1.82125,6.065 L1.5,6.065 L1.5,0.74 L1.5,0.74 Z" fill="#FFFFFF"></path>
                                        </g>
                                    </g>
                                </g>
                            </g>
                        </g>
                    </g>
                </g>
            </g>
        </g>
    </g>
</svg>