<?xml version="1.0" encoding="UTF-8" standalone="no"?>
<svg width="41px" height="41px" viewBox="0 0 41 41" version="1.1" xmlns="http://www.w3.org/2000/svg" xmlns:xlink="http://www.w3.org/1999/xlink">
    <!-- Generator: Sketch 41.2 (35397) - http://www.bohemiancoding.com/sketch -->
    <title>Script</title>
    <desc>Created with Sketch.</desc>
    <defs>
        <polygon id="path-1" points="0 40 40 40 40 0 0 0"></polygon>
    </defs>
    <g stroke="none" stroke-width="1" fill="none" fill-rule="evenodd">
        <g transform="translate(0.452219, 0.237551)">
            <g>
                <g transform="translate(20.000000, 20.000000) scale(1, -1) translate(-20.000000, -20.000000) ">
                    <polygon fill="#2B74B9" points="0.01625 0.0325 39.95875 0.0325 39.95875 40 0.01625 40 0.01625 0.0325"></polygon>
                    <g>
                        <g>
                            <mask id="mask-2" fill="white">
                                <use xlink:href="#path-1"></use>
                            </mask>
                            <g></g>
                            <g mask="url(#mask-2)">
                                <g transform="translate(3.500000, 12.250000)">
                                    <g transform="translate(0.861250, 0.493125)">
                                        <path d="M9,4 C9.3825,3.49 9.67125,3.03625 9.67125,2.36625 C9.67125,0.8975 8.57625,0.1525 7.2525,0.1525 L3.025,0.1525 C2.29375,0.1525 1.66,0.29125 1.085,0.78 C0.56625,1.2125 0.18125,1.915 0.18125,2.60125 C0.18125,3.23375 0.5275,3.7825 1.2,3.7825 C1.75625,3.7825 2.1025,3.30875 2.1025,2.77875 C2.1025,2.19375 2.41,2.1125 2.95,2.1125 L7.1175,2.1125 C7.2725,2.1125 7.7525,2.05625 7.7525,2.3475 C7.7525,2.50375 7.48125,2.80125 7.40625,2.91875 L0.815,11.565 C0.41,12.09625 0.18125,12.4875 0.18125,13.17375 C0.18125,13.9575 0.5475,14.625 1.2,15.05875 C1.7375,15.41125 2.1775,15.41125 2.79625,15.41125 L6.865,15.41125 C7.59625,15.41125 8.21125,15.25375 8.7675,14.76125 C9.26625,14.31125 9.67125,13.58625 9.67125,12.89875 C9.67125,12.2725 9.36375,11.765 8.6725,11.765 C8.09625,11.765 7.7525,12.135 7.7525,12.685 C7.7525,13.35 7.42375,13.45125 6.82875,13.45125 L2.755,13.45125 C2.545,13.45125 2.1025,13.51 2.1025,13.17375 C2.1025,12.99875 2.315,12.7625 2.39125,12.645 L9,4 Z" fill="#FFFFFF"></path>
                                    </g>
                                    <g transform="translate(9.808125, 0.591750)">
                                        <path d="M6.25,0 C4.80875,0 3.985,0.58875 3.36875,1.86 L1.60125,5.5125 C1.275,6.17625 1.0825,6.80125 1.0825,7.56875 C1.0825,8.43 1.2375,8.95875 1.62,9.74375 L3.39,13.37375 C4.04125,14.72875 4.86625,15.25875 6.34875,15.25875 L9.61,15.25875 C10.0375,15.25875 10.56875,15.02375 10.56875,14.2775 C10.56875,13.56875 10.055,13.2975 9.61,13.2975 L6.40375,13.2975 C5.5775,13.2975 5.44375,13.215 5.07875,12.47375 L3.40625,9.05875 C3.155,8.53 3.0025,8.1775 3.0025,7.56875 C3.0025,7.0175 3.17625,6.68875 3.40625,6.21875 L5.03875,2.825 C5.42375,2.01875 5.61625,1.9575 6.48,1.9575 L9.61,1.9575 C10.0375,1.9575 10.56875,1.72625 10.56875,0.97875 C10.56875,0.27625 10.055,0 9.61,0 L6.25,0 Z" fill="#FFFFFF"></path>
                                    </g>
                                    <g transform="translate(21.725875, 0.578625)">
                                        <path d="M2.5,10.25 L6.7625,10.25 C7.2975,10.25 8.14375,10.29125 8.14375,11.07375 L8.14375,12.425 C8.14375,13.21125 7.3575,13.31 6.78,13.31 L2.5,13.31 L2.5,10.25 Z M2.5,0.9925 C2.5,0.365 2.22875,0.01375 1.53625,0.01375 C0.845,0.01375 0.57625,0.365 0.57625,0.9925 L0.57625,15.27125 L7.03,15.27125 C8.55125,15.27125 10.06625,14.17 10.06625,12.425 L10.06625,11.07375 C10.06625,9.23375 8.5675,8.285 7.03,8.285 L5.265,8.285 L9.585,1.97125 C9.795,1.68125 10.06625,1.305 10.06625,0.93375 C10.06625,0.38125 9.625,0.01375 9.0875,0.01375 C8.7025,0.01375 8.45125,0.245 8.24125,0.5625 L2.9375,8.285 L2.5,8.285 L2.5,0.9925 L2.5,0.9925 Z" fill="#FFFFFF"></path>
                                    </g>
                                </g>
                            </g>
                        </g>
                    </g>
                </g>
            </g>
        </g>
    </g>
</svg>