<?xml version="1.0" encoding="UTF-8" standalone="no"?>
<svg width="41px" height="41px" viewBox="0 0 41 41" version="1.1" xmlns="http://www.w3.org/2000/svg" xmlns:xlink="http://www.w3.org/1999/xlink">
    <!-- Generator: Sketch 41.2 (35397) - http://www.bohemiancoding.com/sketch -->
    <title>ShapeRound</title>
    <desc>Created with Sketch.</desc>
    <defs>
        <polygon id="path-1" points="0 40 40 40 40 0 0 0"></polygon>
    </defs>
    <g stroke="none" stroke-width="1" fill="none" fill-rule="evenodd">
        <g transform="translate(0.452219, 0.237551)">
            <g transform="translate(0.500000, 0.500000)">
                <g transform="translate(20.000000, 20.000000) scale(1, -1) translate(-20.000000, -20.000000) ">
                    <g>
                        <g>
                            <mask id="mask-2" fill="white">
                                <use xlink:href="#path-1"></use>
                            </mask>
                            <g></g>
                            <g mask="url(#mask-2)">
                                <g transform="translate(1.250000, 2.500000)">
                                    <g transform="translate(0.749500, 0.000625)">
                                        <path d="M35,17.5 C35,8.11125 27.39,0.5 18,0.5 C8.6125,0.5 1,8.11125 1,17.5 C1,26.8875 8.6125,34.5 18,34.5 C27.39,34.5 35,26.8875 35,17.5" fill="#42AB3D"></path>
                                    </g>
                                    <g transform="translate(14.480000, 13.837875)">
                                        <path d="M7.5,3.75 C7.5,1.95125 6.0375,0.48875 4.2375,0.48875 C2.43625,0.48875 0.97625,1.95125 0.97625,3.75 C0.97625,5.55125 2.43625,7.01125 4.2375,7.01125 C6.0375,7.01125 7.5,5.55125 7.5,3.75" fill="#FFFFFF"></path>
                                    </g>
                                </g>
                            </g>
                        </g>
                    </g>
                </g>
            </g>
        </g>
    </g>
</svg>