<?xml version="1.0" encoding="UTF-8" standalone="no"?>
<svg width="41px" height="41px" viewBox="0 0 41 41" version="1.1" xmlns="http://www.w3.org/2000/svg" xmlns:xlink="http://www.w3.org/1999/xlink">
    <!-- Generator: Sketch 41.2 (35397) - http://www.bohemiancoding.com/sketch -->
    <title>SheetRemove_D</title>
    <desc>Created with Sketch.</desc>
    <defs>
        <polygon id="path-1" points="5.68434189e-14 40 40 40 40 0 5.68434189e-14 0"></polygon>
    </defs>
    <g stroke="none" stroke-width="1" fill="none" fill-rule="evenodd">
        <g transform="translate(0.118886, 0.237551)">
            <g transform="translate(1.000000, 0.000000)">
                <g transform="translate(20.000000, 20.000000) scale(1, -1) translate(-20.000000, -20.000000) translate(0.000000, 0.000000)">
                    <g transform="translate(0.000000, 0.000000)">
                        <g transform="translate(0.000000, 0.000000)">
                            <mask id="mask-2" fill="white">
                                <use xlink:href="#path-1"></use>
                            </mask>
                            <g></g>
                            <g mask="url(#mask-2)">
                                <g transform="translate(0.000000, -1.250000)">
                                    <g stroke="none" stroke-width="1" fill="none" fill-rule="evenodd" transform="translate(2.042500, 1.250000)">
                                        <path d="M26.5,33.75 C26.5,34.77125 26.11625,35.69375 25.4425,36.40625 C24.76125,37.1225 23.85125,37.4975 22.89375,37.4975 L6.1875,37.4975 C5.21875,37.4975 4.31875,37.1225 3.65,36.40625 C2.96875,35.69375 2.595,34.77125 2.595,33.75 L2.595,6.245 C2.595,4.185 4.20875,2.5025 6.1875,2.5025 L12.18,2.5025 L16.895,2.5025 L19.31,2.5025 L19.33,2.5025 L23.1775,6.3325 L26.5,10.18125 L26.5,33.75 Z M28.88,9.9125 C28.84125,9.2825 28.595,8.6875 28.1825,8.2375 L21.01375,0.7325 C20.5525,0.26625 19.96,0 19.31,0 L16.895,0 L12.18,0 L6.1875,0 C2.8675,0 0.20875,2.80125 0.20875,6.245 L0.20875,33.75 C0.20875,35.485 0.885,37.0525 1.96375,38.18375 C3.05125,39.29875 4.52875,40 6.1875,40 L22.89375,40 C24.55125,40 26.04875,39.29875 27.1225,38.18375 C28.19875,37.0525 28.88,35.485 28.88,33.75 L28.88,10.18125 L28.88,9.9125 Z" fill="#737372"></path>
                                    </g>
                                    <polygon stroke="none" fill="#AEAAAA" fill-rule="evenodd" points="28.5375 16.42875 0 16.42875 0 33.92875 28.5375 33.92875"></polygon>
                                    <polygon stroke="none" fill="#FFFFFF" fill-rule="evenodd" points="33.42375 9.67375 24.74 9.67375 24.74 16.41 33.42375 16.41"></polygon>
                                    <g stroke="none" stroke-width="1" fill="none" fill-rule="evenodd" transform="translate(28.046875, 0.545625)">
                                        <path d="M8.75,1.25 L6.12125,3.88 L3.49625,1.25375 C2.7625,0.52 1.5575,0.52375 0.83,1.25 C0.12875,1.9525 0.1075,3.17625 0.84,3.90875 L3.46625,6.53625 L0.84,9.16 C0.1175,9.88375 0.1325,11.07625 0.8575,11.79875 C1.5725,12.5175 2.75625,12.525 3.48,11.8 L6.10625,9.175 L8.7725,11.84125 C9.475,12.54375 10.70375,12.52875 11.40625,11.82625 C12.13375,11.1 12.13,9.8875 11.42875,9.185 L8.7625,6.51875 L11.39,3.89 C12.11375,3.16625 12.12125,1.9675 11.40625,1.25 C10.6825,0.5275 9.47375,0.5275 8.75,1.25 C8.75,1.25 9.48125,0.52 8.75,1.25" fill="#AEAAAA"></path>
                                    </g>
                                    <polygon stroke="#737372" stroke-width="1.875" fill="none" points="22.9325 20.42125 5.60625 20.42125 5.60625 29.9925 22.9325 29.9925"></polygon>
                                </g>
                            </g>
                        </g>
                    </g>
                </g>
            </g>
        </g>
    </g>
</svg>