<?xml version="1.0" encoding="UTF-8" standalone="no"?>
<svg width="41px" height="41px" viewBox="0 0 41 41" version="1.1" xmlns="http://www.w3.org/2000/svg" xmlns:xlink="http://www.w3.org/1999/xlink">
    <!-- Generator: Sketch 41.2 (35397) - http://www.bohemiancoding.com/sketch -->
    <title>SheetNew</title>
    <desc>Created with Sketch.</desc>
    <defs>
        <polygon id="path-1" points="1.13686838e-13 40 40 40 40 0 1.13686838e-13 0"></polygon>
    </defs>
    <g stroke="none" stroke-width="1" fill="none" fill-rule="evenodd">
        <g transform="translate(-0.214448, 0.237551)">
            <g transform="translate(1.000000, 0.000000)">
                <g transform="translate(20.000000, 20.000000) scale(1, -1) translate(-20.000000, -20.000000) translate(0.000000, 0.000000)">
                    <g transform="translate(0.000000, 0.000000)">
                        <g transform="translate(0.000000, 0.000000)">
                            <mask id="mask-2" fill="white">
                                <use xlink:href="#path-1"></use>
                            </mask>
                            <g></g>
                            <g mask="url(#mask-2)">
                                <g transform="translate(0.000000, -1.250000)">
                                    <g stroke="none" stroke-width="1" fill="none" fill-rule="evenodd" transform="translate(2.042500, 1.250000)">
                                        <path d="M26.5,33.75 C26.5,34.77125 26.11625,35.69375 25.4425,36.40625 C24.76125,37.1225 23.85125,37.4975 22.89375,37.4975 L6.1875,37.4975 C5.21875,37.4975 4.31875,37.1225 3.65,36.40625 C2.96875,35.69375 2.595,34.77125 2.595,33.75 L2.595,6.245 C2.595,4.185 4.20875,2.5025 6.1875,2.5025 L12.18,2.5025 L16.895,2.5025 L19.31,2.5025 L19.33,2.5025 L23.1775,6.3325 L26.5,10.18125 L26.5,33.75 Z M28.88,9.9125 C28.84125,9.2825 28.595,8.6875 28.1825,8.2375 L21.01375,0.7325 C20.5525,0.26625 19.96,0 19.31,0 L16.895,0 L12.18,0 L6.1875,0 C2.8675,0 0.20875,2.80125 0.20875,6.245 L0.20875,33.75 C0.20875,35.485 0.885,37.0525 1.96375,38.18375 C3.05125,39.29875 4.52875,40 6.1875,40 L22.89375,40 C24.55125,40 26.04875,39.29875 27.1225,38.18375 C28.19875,37.0525 28.88,35.485 28.88,33.75 L28.88,10.18125 L28.88,9.9125 Z" fill="#444443"></path>
                                    </g>
                                    <polygon stroke="none" fill="#AEAAAA" fill-rule="evenodd" points="28.5375 16.4575 0 16.4575 0 33.95625 28.5375 33.95625 28.5375 16.4575"></polygon>
                                    <polygon stroke="none" fill="#FFFFFF" fill-rule="evenodd" points="33.42375 9.67375 24.74 9.67375 24.74 16.41 33.42375 16.41"></polygon>
                                    <g stroke="none" stroke-width="1" fill="none" fill-rule="evenodd" transform="translate(24.372500, 0.600625)">
                                        <path d="M13.75,6.25 L10.03125,6.25 L10.03125,2.53625 C10.03125,1.49875 9.1775,0.65 8.15,0.65 C7.15625,0.65 6.27625,1.49875 6.27625,2.53625 L6.27625,6.25 L2.56375,6.25 C1.54,6.25 0.7075,7.105 0.7075,8.1275 C0.7075,9.14125 1.54,9.9825 2.56375,9.9825 L6.27625,9.9825 L6.27625,13.75375 C6.27625,14.7475 7.15625,15.60625 8.15,15.60625 C9.1775,15.60625 10.03125,14.7475 10.03125,13.75375 L10.03125,9.9825 L13.75,9.9825 C14.7725,9.9825 15.6275,9.14125 15.6275,8.1275 C15.6275,7.105 14.7725,6.25 13.75,6.25 L13.75,6.25" fill="#42AB3D"></path>
                                    </g>
                                    <polygon stroke="#444443" stroke-width="1.875" fill="none" points="22.9325 20.42125 5.60625 20.42125 5.60625 29.9925 22.9325 29.9925"></polygon>
                                </g>
                            </g>
                        </g>
                    </g>
                </g>
            </g>
        </g>
    </g>
</svg>