<?xml version="1.0" encoding="UTF-8" standalone="no"?>
<svg width="41px" height="41px" viewBox="0 0 41 41" version="1.1" xmlns="http://www.w3.org/2000/svg" xmlns:xlink="http://www.w3.org/1999/xlink">
    <!-- Generator: Sketch 41.2 (35397) - http://www.bohemiancoding.com/sketch -->
    <title>SheetNew_D</title>
    <desc>Created with Sketch.</desc>
    <defs>
        <polygon id="path-1" points="0 40 40 40 40 0 0 0"></polygon>
    </defs>
    <g stroke="none" stroke-width="1" fill="none" fill-rule="evenodd">
        <g transform="translate(0.452219, 0.237551)">
            <g transform="translate(-0.000000, 0.000000)">
                <g transform="translate(20.000000, 20.000000) scale(1, -1) translate(-20.000000, -20.000000) ">
                    <g>
                        <g>
                            <mask id="mask-2" fill="white">
                                <use xlink:href="#path-1"></use>
                            </mask>
                            <g></g>
                            <g mask="url(#mask-2)">
                                <g transform="translate(0.000000, -1.250000)">
                                    <g stroke="none" stroke-width="1" fill="none" fill-rule="evenodd" transform="translate(1.042500, 1.250000)">
                                        <path d="M27.5,33.75 C27.5,34.77125 27.11625,35.69375 26.4425,36.40625 C25.76125,37.1225 24.85125,37.4975 23.89375,37.4975 L7.1875,37.4975 C6.21875,37.4975 5.31875,37.1225 4.65,36.40625 C3.96875,35.69375 3.595,34.77125 3.595,33.75 L3.595,6.245 C3.595,4.185 5.20875,2.5025 7.1875,2.5025 L13.18,2.5025 L17.895,2.5025 L20.31,2.5025 L20.33,2.5025 L24.1775,6.3325 L27.5,10.18125 L27.5,33.75 Z M29.88,9.9125 C29.84125,9.2825 29.595,8.6875 29.1825,8.2375 L22.01375,0.7325 C21.5525,0.26625 20.96,0 20.31,0 L17.895,0 L13.18,0 L7.1875,0 C3.8675,0 1.20875,2.80125 1.20875,6.245 L1.20875,33.75 C1.20875,35.485 1.885,37.0525 2.96375,38.18375 C4.05125,39.29875 5.52875,40 7.1875,40 L23.89375,40 C25.55125,40 27.04875,39.29875 28.1225,38.18375 C29.19875,37.0525 29.88,35.485 29.88,33.75 L29.88,10.18125 L29.88,9.9125 Z" fill="#737372"></path>
                                    </g>
                                    <polygon stroke="none" fill="#AEAAAA" fill-rule="evenodd" points="28.5375 16.42875 0 16.42875 0 33.92875 28.5375 33.92875"></polygon>
                                    <polygon stroke="none" fill="#FFFFFF" fill-rule="evenodd" points="33.42375 9.67375 24.74 9.67375 24.74 16.41 33.42375 16.41"></polygon>
                                    <g stroke="none" stroke-width="1" fill="none" fill-rule="evenodd" transform="translate(24.372500, 0.600625)">
                                        <path d="M13.75,6.25 L10.03125,6.25 L10.03125,2.53625 C10.03125,1.49875 9.1775,0.65 8.15,0.65 C7.15625,0.65 6.27625,1.49875 6.27625,2.53625 L6.27625,6.25 L2.56375,6.25 C1.54,6.25 0.7075,7.105 0.7075,8.1275 C0.7075,9.14125 1.54,9.9825 2.56375,9.9825 L6.27625,9.9825 L6.27625,13.75375 C6.27625,14.7475 7.15625,15.60625 8.15,15.60625 C9.1775,15.60625 10.03125,14.7475 10.03125,13.75375 L10.03125,9.9825 L13.75,9.9825 C14.7725,9.9825 15.6275,9.14125 15.6275,8.1275 C15.6275,7.105 14.7725,6.25 13.75,6.25 L13.75,6.25" fill="#AEAAAA"></path>
                                    </g>
                                    <polygon stroke="#737372" stroke-width="1.875" fill="none" points="22.9325 20.42125 5.60625 20.42125 5.60625 29.9925 22.9325 29.9925"></polygon>
                                </g>
                            </g>
                        </g>
                    </g>
                </g>
            </g>
        </g>
    </g>
</svg>