<?xml version="1.0" encoding="UTF-8" standalone="no"?>
<svg width="40px" height="40px" viewBox="0 0 40 40" version="1.1" xmlns="http://www.w3.org/2000/svg" xmlns:xlink="http://www.w3.org/1999/xlink">
    <!-- Generator: Sketch 41.2 (35397) - http://www.bohemiancoding.com/sketch -->
    <title>Show</title>
    <desc>Created with Sketch.</desc>
    <defs></defs>
    <g stroke="none" stroke-width="1" fill="none" fill-rule="evenodd">
        <g fill="#3C3C3C">
            <g>
                <g transform="translate(0.500000, 5.000000)">
                    <path d="M0.370745439,14.8731868 C0.316863057,12.5530676 3.71684734,8.43875419 4.35941781,7.74027878 C12.0926793,-0.665792292 25.1262225,-1.86039047 34.6694485,7.52207833 C35.4017247,8.24201922 38.5589082,12.5602509 38.6536448,14.8731868 C38.7483814,17.1861228 36.1910019,20.4942726 35.7445108,21.0453087 C26.0726933,32.9817642 11.6375466,31.1876333 3.97525088,21.719333 C3.0836817,20.6176208 0.42462782,17.1933061 0.370745439,14.8731868 Z M19.5121951,7.96362088 C23.4708315,7.96362088 26.6799403,11.1727297 26.6799403,15.131366 C26.6799403,19.0900024 23.4708315,22.2991112 19.5121951,22.2991112 C15.5535588,22.2991112 12.34445,19.0900024 12.34445,15.131366 C12.34445,11.1727297 15.5535588,7.96362088 19.5121951,7.96362088 Z"></path>
                    <ellipse cx="19.5121951" cy="15.1319064" rx="3.58387257" ry="3.58387257"></ellipse>
                </g>
            </g>
        </g>
    </g>
</svg>