<?xml version="1.0" encoding="UTF-8" standalone="no"?>
<!-- Created with Inkscape (http://www.inkscape.org/) -->

<svg
   xmlns:dc="http://purl.org/dc/elements/1.1/"
   xmlns:cc="http://creativecommons.org/ns#"
   xmlns:rdf="http://www.w3.org/1999/02/22-rdf-syntax-ns#"
   xmlns:svg="http://www.w3.org/2000/svg"
   xmlns="http://www.w3.org/2000/svg"
   xmlns:inkscape="http://www.inkscape.org/namespaces/inkscape"
   version="1.1"
   width="40"
   height="40"
   id="svg2"
   xml:space="preserve"><metadata
     id="metadata8"><rdf:RDF><cc:Work
         rdf:about=""><dc:format>image/svg+xml</dc:format><dc:type
           rdf:resource="http://purl.org/dc/dcmitype/StillImage" /></cc:Work></rdf:RDF></metadata><defs
     id="defs6"><clipPath
       id="clipPath20"><path
         d="M 0,32 32,32 32,0 0,0 0,32 z"
         inkscape:connector-curvature="0"
         id="path22" /></clipPath></defs><g
     transform="matrix(1.25,0,0,-1.25,0,40)"
     id="g10"><g
       transform="translate(6.7401,15.8463)"
       id="g12"><path
         d="M 0,0 21.082,0 0,0 z"
         inkscape:connector-curvature="0"
         id="path14"
         style="fill:#ffcd00;fill-opacity:1;fill-rule:nonzero;stroke:none" /></g><g
       id="g16"><g
         clip-path="url(#clipPath20)"
         id="g18"><g
           transform="translate(6.7397,15.8462)"
           id="g24"><path
             d="M 0,0 21.082,0"
             inkscape:connector-curvature="0"
             id="path26"
             style="fill:none;stroke:#ffcd00;stroke-width:3.5;stroke-linecap:butt;stroke-linejoin:miter;stroke-miterlimit:10;stroke-opacity:1;stroke-dasharray:none" /></g><g
           transform="translate(3.9019,20.6084)"
           id="g28"><path
             d="M 0,0 C 2.521,0.437 4.943,-1.25 5.387,-3.803 5.82,-6.316 4.109,-8.734 1.588,-9.17 -0.941,-9.609 -3.341,-7.901 -3.775,-5.39 -4.219,-2.836 -2.528,-0.436 0,0"
             inkscape:connector-curvature="0"
             id="path30"
             style="fill:#42ab3d;fill-opacity:1;fill-rule:nonzero;stroke:none" /></g><g
           transform="translate(26.5469,20.5034)"
           id="g32"><path
             d="M 0,0 C 2.521,0.438 4.942,-1.249 5.386,-3.802 5.818,-6.315 4.108,-8.732 1.587,-9.17 -0.943,-9.608 -3.343,-7.902 -3.777,-5.387 -4.22,-2.835 -2.529,-0.436 0,0"
             inkscape:connector-curvature="0"
             id="path34"
             style="fill:#42ab3d;fill-opacity:1;fill-rule:nonzero;stroke:none" /></g></g></g></g></svg>