<?xml version="1.0" encoding="UTF-8" standalone="no"?>
<svg width="41px" height="41px" viewBox="0 0 41 41" version="1.1" xmlns="http://www.w3.org/2000/svg" xmlns:xlink="http://www.w3.org/1999/xlink">
    <!-- Generator: Sketch 41.2 (35397) - http://www.bohemiancoding.com/sketch -->
    <title>Stop</title>
    <desc>Created with Sketch.</desc>
    <defs>
        <polygon id="path-1" points="0 40 40 40 40 0 0 0"></polygon>
    </defs>
    <g stroke="none" stroke-width="1" fill="none" fill-rule="evenodd">
        <g transform="translate(0.452219, 0.237551)">
            <g>
                <g transform="translate(20.000000, 20.000000) scale(1, -1) translate(-20.000000, -20.000000) ">
                    <g>
                        <g>
                            <mask id="mask-2" fill="white">
                                <use xlink:href="#path-1"></use>
                            </mask>
                            <g></g>
                            <g mask="url(#mask-2)">
                                <g fill="#DD203C">
                                    <path d="M40,20 C40,8.95375 31.04625,0 20,0 C8.955,0 0,8.95375 0,20 C0,31.045 8.955,40 20,40 C31.04625,40 40,31.045 40,20"></path>
                                </g>
                                <g transform="translate(5.067750, 16.492875)" fill="#FFFFFF">
                                    <path d="M2.5,6.25 C1.44,6.25 0.58875,5.04 0.58875,3.52125 C0.58875,1.99625 1.44,0.7625 2.5,0.7625 L27.3475,0.7625 C28.40625,0.7625 29.275,1.99625 29.275,3.52125 C29.275,5.04 28.40625,6.25 27.3475,6.25"></path>
                                </g>
                            </g>
                        </g>
                    </g>
                </g>
            </g>
        </g>
    </g>
</svg>