<?xml version="1.0" encoding="UTF-8" standalone="no"?>
<!-- Created with Inkscape (http://www.inkscape.org/) -->

<svg
   xmlns:dc="http://purl.org/dc/elements/1.1/"
   xmlns:cc="http://creativecommons.org/ns#"
   xmlns:rdf="http://www.w3.org/1999/02/22-rdf-syntax-ns#"
   xmlns:svg="http://www.w3.org/2000/svg"
   xmlns="http://www.w3.org/2000/svg"
   xmlns:inkscape="http://www.inkscape.org/namespaces/inkscape"
   version="1.1"
   width="40"
   height="40"
   id="svg2"
   xml:space="preserve"><metadata
     id="metadata8"><rdf:RDF><cc:Work
         rdf:about=""><dc:format>image/svg+xml</dc:format><dc:type
           rdf:resource="http://purl.org/dc/dcmitype/StillImage" /></cc:Work></rdf:RDF></metadata><defs
     id="defs6"><clipPath
       id="clipPath16"><path
         d="M 0,32 32,32 32,0 0,0 0,32 z"
         inkscape:connector-curvature="0"
         id="path18" /></clipPath></defs><g
     transform="matrix(1.25,0,0,-1.25,0,40)"
     id="g10"><g
       id="g12"><g
         clip-path="url(#clipPath16)"
         id="g14"><g
           transform="translate(24.8418,9.9102)"
           id="g20"><path
             d="m 0,0 0.031,0 1.209,4.201 -2.433,0 L 0,0 z m 0.807,-2.883 c -0.125,-0.418 -0.295,-0.79 -0.791,-0.79 -0.512,0 -0.698,0.388 -0.807,0.79 L -3.783,7.613 c -0.11,0.373 0.31,0.776 0.744,0.776 0.48,0 0.728,-0.403 0.838,-0.776 l 0.574,-1.86 3.301,0 0.59,1.86 c 0.109,0.373 0.357,0.776 0.838,0.776 0.433,0 0.851,-0.403 0.744,-0.776 L 0.807,-2.883 z"
             inkscape:connector-curvature="0"
             id="path22"
             style="fill:#444443;fill-opacity:1;fill-rule:nonzero;stroke:none" /></g><g
           transform="translate(17.873,14.6445)"
           id="g24"><path
             d="M 0,0 C 0,0.479 -0.061,0.667 -0.449,0.993 L -1.302,1.721 C -1.487,1.875 -1.72,2.093 -1.875,2.093 l -1.131,0 c -0.219,0 -0.358,-0.047 -0.466,-0.139 L -4.124,1.411 C -4.294,1.27 -4.31,0.915 -4.31,0.619 l 0,-2.635 c 0,-0.295 0.077,-0.527 0.202,-0.621 l 0.682,-0.527 c 0.093,-0.076 0.201,-0.123 0.357,-0.123 l 1.038,0 c 0.203,0 0.449,0.108 0.621,0.262 l 0.961,0.838 C -0.201,-1.986 0,-1.752 0,-1.303 L 0,0 z M 0,-3.691 -0.264,-3.954 C -0.76,-4.452 -1.053,-4.775 -1.736,-4.775 l -1.643,0 c -0.388,0 -0.729,0.216 -1.102,0.527 l -0.512,0.434 c -0.589,0.511 -0.804,0.929 -0.804,1.719 l 0,2.994 c 0,0.791 0.215,1.209 0.804,1.72 l 0.512,0.436 c 0.357,0.293 0.791,0.525 1.164,0.525 l 1.534,0 c 0.605,0 1.023,-0.371 1.443,-0.76 L 0,2.497 0,2.588 c 0,0.48 0.156,0.992 0.744,0.992 0.637,0 0.744,-0.525 0.744,-1.038 l 0,-9.366 c 0,-0.51 -0.107,-1.022 -0.744,-1.022 C 0.109,-7.846 0,-7.334 0,-6.824 l 0,3.133 z"
             inkscape:connector-curvature="0"
             id="path26"
             style="fill:#444443;fill-opacity:1;fill-rule:nonzero;stroke:none" /></g><g
           transform="translate(10.6196,13.623)"
           id="g28"><path
             d="m 0,0 c 0,-0.914 -0.17,-1.363 -0.884,-1.954 l -1.1,-0.915 c -0.699,-0.573 -1.055,-0.588 -1.922,-0.588 l -2.358,0 c -0.496,0 -1.023,0.108 -1.023,0.743 0,0.651 0.588,0.745 1.023,0.745 l 2.62,0 c 0.294,0 0.589,0.155 0.854,0.371 l 0.898,0.761 c 0.234,0.186 0.403,0.341 0.403,0.635 l 0,1.846 c 0,0.294 -0.169,0.449 -0.403,0.636 L -2.79,3.04 c -0.265,0.215 -0.56,0.373 -0.854,0.373 l -2.62,0 c -0.435,0 -1.023,0.091 -1.023,0.741 0,0.637 0.527,0.744 1.023,0.744 l 2.358,0 c 0.867,0 1.223,-0.013 1.922,-0.589 l 1.1,-0.912 C -0.17,2.805 0,2.358 0,1.442 L 0,0 z"
             inkscape:connector-curvature="0"
             id="path30"
             style="fill:#444443;fill-opacity:1;fill-rule:nonzero;stroke:none" /></g><g
           transform="translate(27.1895,23.1074)"
           id="g32"><path
             d="M 0,0 C 0.848,0 1.529,0.678 1.529,1.523 1.529,2.369 0.848,3.059 0,3.059 l -22.366,0 c -0.843,0 -1.542,-0.69 -1.542,-1.536 0,-0.845 0.699,-1.523 1.542,-1.523"
             inkscape:connector-curvature="0"
             id="path34"
             style="fill:#9e9e9e;fill-opacity:1;fill-rule:nonzero;stroke:none" /></g></g></g></g></svg>