<?xml version="1.0" encoding="UTF-8" standalone="no"?>
<svg width="41px" height="41px" viewBox="0 0 41 41" version="1.1" xmlns="http://www.w3.org/2000/svg" xmlns:xlink="http://www.w3.org/1999/xlink">
    <!-- Generator: Sketch 41.2 (35397) - http://www.bohemiancoding.com/sketch -->
    <title>Text</title>
    <desc>Created with Sketch.</desc>
    <defs></defs>
    <g stroke="none" stroke-width="1" fill="none" fill-rule="evenodd">
        <g transform="translate(-124.000000, -1036.000000)" fill="#000000">
            <g transform="translate(124.899299, 1036.763875)">
                <path d="M32.2018454,5.24164365 L32.5314352,12.2289483 L31.6964743,12.2289483 C31.5353406,10.9984734 31.3156163,10.119576 31.0372946,9.59222959 C30.5831907,8.74261597 29.9789487,8.11640152 29.2245504,7.71356748 C28.4701521,7.31073343 27.4777304,7.10931943 26.2472555,7.10931943 L22.0504782,7.10931943 L22.0504782,29.8729913 C22.0504782,31.7040552 22.2482301,32.8466218 22.6437399,33.3007257 C23.2003833,33.9159631 24.0573083,34.2235772 25.2145407,34.2235772 L26.2472555,34.2235772 L26.2472555,35.0365655 L13.6129782,35.0365655 L13.6129782,34.2235772 L14.6676657,34.2235772 C15.9274376,34.2235772 16.8209833,33.8427217 17.3483297,33.0809991 C17.670597,32.6122468 17.8317282,31.5429215 17.8317282,29.8729913 L17.8317282,7.10931943 L14.2501852,7.10931943 C12.8585767,7.10931943 11.869817,7.21185747 11.2838766,7.41693662 C10.522154,7.69525832 9.87030509,8.22992095 9.3283102,9.02094053 C8.7863153,9.81196011 8.4640529,10.8812854 8.36151332,12.2289483 L7.52655238,12.2289483 L7.87811488,5.24164365 L32.2018454,5.24164365 Z"></path>
            </g>
        </g>
    </g>
</svg>