<?xml version="1.0" encoding="UTF-8" standalone="no"?>
<!-- Created with Inkscape (http://www.inkscape.org/) -->

<svg
   xmlns:dc="http://purl.org/dc/elements/1.1/"
   xmlns:cc="http://creativecommons.org/ns#"
   xmlns:rdf="http://www.w3.org/1999/02/22-rdf-syntax-ns#"
   xmlns:svg="http://www.w3.org/2000/svg"
   xmlns="http://www.w3.org/2000/svg"
   xmlns:inkscape="http://www.inkscape.org/namespaces/inkscape"
   version="1.1"
   width="40"
   height="40"
   id="svg2"
   xml:space="preserve"><metadata
     id="metadata8"><rdf:RDF><cc:Work
         rdf:about=""><dc:format>image/svg+xml</dc:format><dc:type
           rdf:resource="http://purl.org/dc/dcmitype/StillImage" /></cc:Work></rdf:RDF></metadata><defs
     id="defs6"><clipPath
       id="clipPath16"><path
         d="M 0,32 32,32 32,0 0,0 0,32 z"
         inkscape:connector-curvature="0"
         id="path18" /></clipPath></defs><g
     transform="matrix(1.25,0,0,-1.25,0,40)"
     id="g10"><g
       id="g12"><g
         clip-path="url(#clipPath16)"
         id="g14"><g
           transform="translate(7.1484,22.9922)"
           id="g20"><path
             d="m 0,0 -0.031,0 -1.209,-4.201 2.434,0 L 0,0 z m -0.806,2.883 c 0.125,0.418 0.295,0.79 0.791,0.79 0.512,0 0.698,-0.387 0.806,-0.79 L 3.784,-7.613 c 0.108,-0.372 -0.31,-0.776 -0.745,-0.776 -0.48,0 -0.728,0.404 -0.837,0.776 l -0.574,1.86 -3.302,0 -0.589,-1.86 c -0.11,-0.372 -0.357,-0.776 -0.838,-0.776 -0.434,0 -0.852,0.404 -0.744,0.776 l 3.039,10.496 z"
             inkscape:connector-curvature="0"
             id="path22"
             style="fill:#444443;fill-opacity:1;fill-rule:nonzero;stroke:none" /></g><g
           transform="translate(14.1172,18.2588)"
           id="g24"><path
             d="m 0,0 c 0,-0.479 0.062,-0.667 0.45,-0.993 l 0.853,-0.729 c 0.185,-0.153 0.418,-0.372 0.572,-0.372 l 1.132,0 c 0.219,0 0.357,0.047 0.466,0.14 l 0.651,0.543 c 0.171,0.14 0.187,0.496 0.187,0.792 l 0,2.634 c 0,0.296 -0.078,0.528 -0.203,0.621 L 3.427,3.164 C 3.333,3.24 3.226,3.287 3.069,3.287 l -1.037,0 C 1.829,3.287 1.582,3.178 1.411,3.024 L 0.45,2.186 C 0.202,1.985 0,1.751 0,1.303 L 0,0 z M 0,3.691 0.263,3.954 C 0.76,4.452 1.054,4.775 1.737,4.775 l 1.643,0 c 0.388,0 0.728,-0.216 1.101,-0.527 L 4.993,3.814 C 5.582,3.303 5.798,2.884 5.798,2.094 l 0,-2.993 C 5.798,-1.69 5.582,-2.108 4.993,-2.62 L 4.481,-3.055 C 4.124,-3.348 3.69,-3.581 3.317,-3.581 l -1.533,0 c -0.606,0 -1.024,0.372 -1.443,0.761 L 0,-2.497 0,-2.589 c 0,-0.48 -0.155,-0.992 -0.745,-0.992 -0.635,0 -0.743,0.526 -0.743,1.039 l 0,9.365 c 0,0.511 0.108,1.022 0.743,1.022 C -0.109,7.845 0,7.334 0,6.823 L 0,3.691 z"
             inkscape:connector-curvature="0"
             id="path26"
             style="fill:#444443;fill-opacity:1;fill-rule:nonzero;stroke:none" /></g><g
           transform="translate(21.3711,19.2803)"
           id="g28"><path
             d="m 0,0 c 0,0.914 0.17,1.363 0.884,1.954 l 1.1,0.915 c 0.699,0.573 1.055,0.588 1.922,0.588 l 2.358,0 c 0.496,0 1.023,-0.109 1.023,-0.744 0,-0.651 -0.588,-0.744 -1.023,-0.744 l -2.62,0 C 3.35,1.969 3.055,1.814 2.79,1.597 L 1.892,0.836 C 1.658,0.651 1.489,0.496 1.489,0.202 l 0,-1.847 c 0,-0.293 0.169,-0.449 0.403,-0.635 L 2.79,-3.04 c 0.265,-0.216 0.56,-0.373 0.854,-0.373 l 2.62,0 c 0.435,0 1.023,-0.092 1.023,-0.741 0,-0.638 -0.527,-0.745 -1.023,-0.745 l -2.358,0 c -0.867,0 -1.223,0.013 -1.922,0.589 l -1.1,0.913 C 0.17,-2.806 0,-2.358 0,-1.442 L 0,0 z"
             inkscape:connector-curvature="0"
             id="path30"
             style="fill:#444443;fill-opacity:1;fill-rule:nonzero;stroke:none" /></g><g
           transform="translate(4.8018,9.7949)"
           id="g32"><path
             d="m 0,0 c -0.849,0 -1.529,-0.677 -1.529,-1.522 0,-0.846 0.68,-1.536 1.529,-1.536 l 22.365,0 c 0.844,0 1.542,0.69 1.542,1.536 0,0.845 -0.698,1.522 -1.542,1.522"
             inkscape:connector-curvature="0"
             id="path34"
             style="fill:#9e9e9e;fill-opacity:1;fill-rule:nonzero;stroke:none" /></g></g></g></g></svg>