<?xml version="1.0" encoding="UTF-8" standalone="no"?>
<svg width="41px" height="41px" viewBox="0 0 41 41" version="1.1" xmlns="http://www.w3.org/2000/svg" xmlns:xlink="http://www.w3.org/1999/xlink">
    <!-- Generator: Sketch 41.2 (35397) - http://www.bohemiancoding.com/sketch -->
    <title>Txt</title>
    <desc>Created with Sketch.</desc>
    <defs>
        <polygon id="path-1" points="0 40 40 40 40 0 0 0"></polygon>
    </defs>
    <g stroke="none" stroke-width="1" fill="none" fill-rule="evenodd">
        <g transform="translate(0.452219, 0.237551)">
            <g>
                <g transform="translate(20.000000, 20.000000) scale(1, -1) translate(-20.000000, -20.000000) ">
                    <g>
                        <g>
                            <mask id="mask-2" fill="white">
                                <use xlink:href="#path-1"></use>
                            </mask>
                            <g></g>
                            <g mask="url(#mask-2)">
                                <g transform="translate(3.750000, 0.000000)">
                                    <g stroke-width="1" fill="none" transform="translate(2.828625, 0.000000)">
                                        <path d="M26.5,33.75 C26.5,34.77125 26.115,35.69375 25.44125,36.40625 C24.76,37.1225 23.85125,37.4975 22.89375,37.4975 L6.18625,37.4975 C5.21875,37.4975 4.31875,37.1225 3.65,36.40625 C2.96875,35.69375 2.595,34.77125 2.595,33.75 L2.595,6.245 C2.595,4.185 4.2075,2.5025 6.18625,2.5025 L12.18,2.5025 L16.89375,2.5025 L19.31,2.5025 L19.33,2.5025 L19.33,10.18125 L26.5,10.18125 L26.5,33.75 Z M28.88,9.9125 C28.84125,9.2825 28.59375,8.6875 28.18125,8.2375 L21.01375,0.7325 C20.55125,0.26625 19.96,0 19.31,0 L16.89375,0 L12.18,0 L6.18625,0 C2.8675,0 0.20875,2.80125 0.20875,6.245 L0.20875,33.75 C0.20875,35.485 0.885,37.0525 1.9625,38.18375 C3.05,39.29875 4.52875,40 6.18625,40 L22.89375,40 C24.55,40 26.0475,39.29875 27.12125,38.18375 C28.19875,37.0525 28.88,35.485 28.88,33.75 L28.88,10.18125 L28.88,9.9125 Z" fill="#444443"></path>
                                    </g>
                                    <polygon fill="#AEAAAA" points="29.32875 15.205 0.79125 15.205 0.79125 32.705 29.32875 32.705 29.32875 15.205"></polygon>
                                    <g stroke-width="1" fill="none" transform="translate(5.593250, 27.603125)">
                                        <path d="M1.25,2.5 C0.59875,2.5 0.07625,1.9825 0.07625,1.3325 C0.07625,0.68 0.59875,0.1525 1.25,0.1525 L17.675,0.1525 C18.3225,0.1525 18.8575,0.68 18.8575,1.3325 C18.8575,1.9825 18.3225,2.5 17.675,2.5" fill="#444443"></path>
                                    </g>
                                    <g stroke-width="1" fill="none" transform="translate(5.593250, 22.627000)">
                                        <path d="M1.25,2.5 C0.59875,2.5 0.07625,1.9825 0.07625,1.33125 C0.07625,0.68125 0.59875,0.1525 1.25,0.1525 L17.675,0.1525 C18.3225,0.1525 18.8575,0.68125 18.8575,1.33125 C18.8575,1.9825 18.3225,2.5 17.675,2.5" fill="#444443"></path>
                                    </g>
                                    <g stroke-width="1" fill="none" transform="translate(5.593250, 17.653250)">
                                        <path d="M1.25,2.5 C0.59875,2.5 0.07625,1.98 0.07625,1.33125 C0.07625,0.68125 0.59875,0.1525 1.25,0.1525 L10.4625,0.1525 C11.11125,0.1525 11.64625,0.68125 11.64625,1.33125 C11.64625,1.98 11.11125,2.5 10.4625,2.5" fill="#444443"></path>
                                    </g>
                                </g>
                            </g>
                        </g>
                    </g>
                </g>
            </g>
        </g>
    </g>
</svg>