<?xml version="1.0" encoding="UTF-8" standalone="no"?>
<svg width="32px" height="40px" viewBox="0 0 32 40" version="1.1" xmlns="http://www.w3.org/2000/svg" xmlns:xlink="http://www.w3.org/1999/xlink">
    <!-- Generator: Sketch 41.2 (35397) - http://www.bohemiancoding.com/sketch -->
    <title>Ulp</title>
    <desc>Created with Sketch.</desc>
    <defs>
        <polygon id="path-1" points="0 40 40 40 40 0 0 0"></polygon>
    </defs>
    <g id="Page-2" stroke="none" stroke-width="1" fill="none" fill-rule="evenodd">
        <g id="filetypes" transform="translate(-451.000000, -14.000000)">
            <g id="Ulp" transform="translate(447.000000, 14.000000)">
                <g id="svg2">
                    <g id="g10" transform="translate(20.000000, 20.000000) scale(1, -1) translate(-20.000000, -20.000000) ">
                        <g id="g12">
                            <g id="g14-Clipped">
                                <mask id="mask-2" fill="white">
                                    <use xlink:href="#path-1"></use>
                                </mask>
                                <g id="path18"></g>
                                <g id="g14" mask="url(#mask-2)">
                                    <g transform="translate(3.750000, 0.000000)">
                                        <g id="g20" stroke-width="1" fill="none" transform="translate(2.828625, 0.000000)">
                                            <path d="M26.5,33.75 C26.5,34.77125 26.115,35.69375 25.44125,36.40625 C24.76,37.1225 23.85125,37.4975 22.89375,37.4975 L6.18625,37.4975 C5.21875,37.4975 4.31875,37.1225 3.65,36.40625 C2.96875,35.69375 2.595,34.77125 2.595,33.75 L2.595,6.245 C2.595,4.185 4.2075,2.5025 6.18625,2.5025 L12.18,2.5025 L16.89375,2.5025 L19.31,2.5025 L19.33,2.5025 L19.33,10.18125 L26.5,10.18125 L26.5,33.75 Z M28.88,9.9125 C28.84125,9.2825 28.59375,8.6875 28.18125,8.2375 L21.01375,0.7325 C20.55125,0.26625 19.96,0 19.31,0 L16.89375,0 L12.18,0 L6.18625,0 C2.8675,0 0.20875,2.80125 0.20875,6.245 L0.20875,33.75 C0.20875,35.485 0.885,37.0525 1.9625,38.18375 C3.05,39.29875 4.52875,40 6.18625,40 L22.89375,40 C24.55,40 26.0475,39.29875 27.12125,38.18375 C28.19875,37.0525 28.88,35.485 28.88,33.75 L28.88,10.18125 L28.88,9.9125 Z" id="path22" fill="#3C3C3C"></path>
                                        </g>
                                        <polygon id="path24" fill="#F39415" points="29.32875 15.205 0.79125 15.205 0.79125 32.705 29.32875 32.705 29.32875 15.205"></polygon>
                                        <g id="g26" stroke-width="1" fill="none" transform="translate(3.349000, 18.332500)">
                                            <path d="M2.5,0 C1.77375,0 1.20625,0.175 0.6975,0.74125 C0.2175,1.27875 0.14625,1.8025 0.14625,2.47125 L0.14625,10.58125 C0.14625,11.04625 0.34875,11.3075 0.8725,11.3075 C1.395,11.3075 1.59875,11.04625 1.59875,10.58125 L1.59875,2.47125 C1.59875,1.65625 1.84625,1.45375 2.5,1.45375 L4.97125,1.45375 C5.625,1.45375 5.87125,1.65625 5.87125,2.47125 L5.87125,10.58125 C5.87125,11.04625 6.075,11.3075 6.59875,11.3075 C7.1225,11.3075 7.325,11.04625 7.325,10.58125 L7.325,2.47125 C7.325,1.8025 7.2525,1.27875 6.7725,0.74125 C6.26375,0.175 5.6975,0 4.97125,0 L2.5,0 Z" id="path28" fill="#FFFFFF"></path>
                                        </g>
                                        <g id="g30" stroke-width="1" fill="none" transform="translate(12.267125, 18.285750)">
                                            <path d="M6.5,1.5 C6.8775,1.5 7.22625,1.29625 7.22625,0.7725 C7.22625,0.25 6.8775,0.04625 6.5,0.04625 L0.04625,0.04625 L0.04625,10.6275 C0.04625,11.0925 0.25,11.35375 0.77375,11.35375 C1.29625,11.35375 1.5,11.0925 1.5,10.6275 L1.5,1.5 L6.5,1.5 Z" id="path32" fill="#FFFFFF"></path>
                                        </g>
                                        <g id="g34" stroke-width="1" fill="none" transform="translate(20.462875, 17.808875)">
                                            <path d="M1.5,6.25 L4.725,6.25 C5.58375,6.25 5.7725,6.4675 5.7725,7.29625 L5.7725,9.33125 C5.7725,10.15875 5.58375,10.3775 4.725,10.3775 L1.5,10.3775 L1.5,6.25 Z M1.5,1.25 C1.5,0.785 1.29625,0.52375 0.77375,0.52375 C0.25,0.52375 0.04625,0.785 0.04625,1.25 L0.04625,11.83125 L4.87125,11.83125 C5.53875,11.83125 6.01875,11.72875 6.54375,11.235 C7.1675,10.65375 7.22625,10.11625 7.22625,9.33125 L7.22625,7.35375 C7.22625,6.61375 7.1675,6.09 6.63,5.49375 C6.0625,4.855 5.4675,4.79625 4.68375,4.79625 L1.5,4.79625 L1.5,1.25 Z" id="path36" fill="#FFFFFF"></path>
                                        </g>
                                    </g>
                                </g>
                            </g>
                        </g>
                    </g>
                </g>
            </g>
        </g>
    </g>
</svg>