<?xml version="1.0" encoding="UTF-8" standalone="no"?>
<svg width="41px" height="41px" viewBox="0 0 41 41" version="1.1" xmlns="http://www.w3.org/2000/svg" xmlns:xlink="http://www.w3.org/1999/xlink">
    <!-- Generator: Sketch 41.2 (35397) - http://www.bohemiancoding.com/sketch -->
    <title>Undo_D</title>
    <desc>Created with Sketch.</desc>
    <defs>
        <polygon id="path-1" points="0 40 40 40 40 0 0 0"></polygon>
    </defs>
    <g stroke="none" stroke-width="1" fill="none" fill-rule="evenodd">
        <g transform="translate(0.452219, 0.237551)">
            <g transform="translate(0.000000, 0.500000)">
                <g transform="translate(20.000000, 20.000000) scale(1, -1) translate(-20.000000, -20.000000) ">
                    <g>
                        <g>
                            <mask id="mask-2" fill="white">
                                <use xlink:href="#path-1"></use>
                            </mask>
                            <g></g>
                            <g mask="url(#mask-2)">
                                <g transform="translate(-0.250000, 7.250000)">
                                    <g transform="translate(0.192625, 0.040250)">
                                        <path d="M40,9 C37.30875,15.71 29.48125,18.61625 22.405,15.8275 C19.42,14.65375 16.99,12.5675 15.45,9.98375 L20.35625,7.9775 C21.48125,7.52625 21.45125,5.94375 20.2725,5.48125 L13.47125,2.7675 L7.0775,0.24375 C6.77375,0.12625 6.39875,0.12 6.08375,0.235 C5.7225,0.35625 5.3975,0.5875 5.23875,0.95375 L5.1625,1.145 L4.465,2.88 L0.1475,13.54 C-0.28625,14.62625 0.93125,15.7875 2.06,15.3475 L7.03625,13.28125 C7.715,14.54 8.51625,15.71 9.4175,16.8425 C10.61125,18.33125 11.97375,19.655 13.5075,20.8225 C15.20875,22.11 17.1075,23.16 19.14,23.9625 C30.93875,28.61 35.575,20.19125 40.0575,9.025 L40,9 Z" fill="#AEAAAA"></path>
                                    </g>
                                </g>
                            </g>
                        </g>
                    </g>
                </g>
            </g>
        </g>
    </g>
</svg>