<?xml version="1.0" encoding="UTF-8" standalone="no"?>
<svg width="40px" height="35px" viewBox="0 0 40 35" version="1.1" xmlns="http://www.w3.org/2000/svg" xmlns:xlink="http://www.w3.org/1999/xlink">
    <!-- Generator: Sketch 41.2 (35397) - http://www.bohemiancoding.com/sketch -->
    <title>Use</title>
    <desc>Created with Sketch.</desc>
    <defs>
        <rect id="path-1" x="0" y="0" width="40" height="40"></rect>
    </defs>
    <g id="Drafts" stroke="none" stroke-width="1" fill="none" fill-rule="evenodd">
        <g id="Use" transform="translate(0.000000, -3.000000)">
            <mask id="mask-2" fill="white">
                <use xlink:href="#path-1"></use>
            </mask>
            <g id="Mask"></g>
            <g id="use-icon" mask="url(#mask-2)">
                <g transform="translate(0.000000, 3.000000)" id="Group-16">
                    <g>
                        <g id="Book" fill="#444443">
                            <path d="M0,1.00266849 C0,0.448909973 0.44907213,0 1.00505609,0 L10.0996715,0 C10.6547487,0 11.1047276,0.456529856 11.1047276,1.00266849 L11.1047276,33.1173304 C11.1047276,33.671089 10.6556555,34.1199989 10.0996715,34.1199989 L1.00505609,34.1199989 C0.449978937,34.1199989 0,33.6634691 0,33.1173304 L0,1.00266849 Z M2.45510594,3.11708104 C2.45510594,2.84531219 2.67790266,2.625 2.94631766,2.625 L8.22389445,2.625 C8.49518319,2.625 8.71510617,2.84598755 8.71510617,3.11708104 L8.71510617,10.3948819 C8.71510617,10.6666507 8.49230945,10.8869629 8.22389445,10.8869629 L2.94631766,10.8869629 C2.67502892,10.8869629 2.45510594,10.6659753 2.45510594,10.3948819 L2.45510594,3.11708104 Z M2.65283203,29.245389 C2.65283203,28.9717932 2.87562875,28.75 3.14404375,28.75 L8.42162054,28.75 C8.69290928,28.75 8.91283226,28.9657526 8.91283226,29.245389 L8.91283226,31.254611 C8.91283226,31.5282068 8.69003554,31.75 8.42162054,31.75 L3.14404375,31.75 C2.87275501,31.75 2.65283203,31.5342474 2.65283203,31.254611 L2.65283203,29.245389 Z" id="Combined-Shape"></path>
                            <path d="M29,1.00266849 C29,0.448909973 29.4490721,0 30.0050561,0 L39.0996715,0 C39.6547487,0 40.1047276,0.456529856 40.1047276,1.00266849 L40.1047276,33.1173304 C40.1047276,33.671089 39.6556555,34.1199989 39.0996715,34.1199989 L30.0050561,34.1199989 C29.4499789,34.1199989 29,33.6634691 29,33.1173304 L29,1.00266849 Z M31.4551059,3.11708104 C31.4551059,2.84531219 31.6779027,2.625 31.9463177,2.625 L37.2238945,2.625 C37.4951832,2.625 37.7151062,2.84598755 37.7151062,3.11708104 L37.7151062,10.3948819 C37.7151062,10.6666507 37.4923094,10.8869629 37.2238945,10.8869629 L31.9463177,10.8869629 C31.6750289,10.8869629 31.4551059,10.6659753 31.4551059,10.3948819 L31.4551059,3.11708104 Z M31.652832,29.245389 C31.652832,28.9717932 31.8756288,28.75 32.1440437,28.75 L37.4216205,28.75 C37.6929093,28.75 37.9128323,28.9657526 37.9128323,29.245389 L37.9128323,31.254611 C37.9128323,31.5282068 37.6900355,31.75 37.4216205,31.75 L32.1440437,31.75 C31.872755,31.75 31.652832,31.5342474 31.652832,31.254611 L31.652832,29.245389 Z" id="Combined-Shape"></path>
                            <path d="M14.5,1.00266849 C14.5,0.448909973 14.9490721,0 15.5050561,0 L24.5996715,0 C25.1547487,0 25.6047276,0.456529856 25.6047276,1.00266849 L25.6047276,33.1173304 C25.6047276,33.671089 25.1556555,34.1199989 24.5996715,34.1199989 L15.5050561,34.1199989 C14.9499789,34.1199989 14.5,33.6634691 14.5,33.1173304 L14.5,1.00266849 Z M16.9551059,3.11708104 C16.9551059,2.84531219 17.1779027,2.625 17.4463177,2.625 L22.7238945,2.625 C22.9951832,2.625 23.2151062,2.84598755 23.2151062,3.11708104 L23.2151062,10.3948819 C23.2151062,10.6666507 22.9923094,10.8869629 22.7238945,10.8869629 L17.4463177,10.8869629 C17.1750289,10.8869629 16.9551059,10.6659753 16.9551059,10.3948819 L16.9551059,3.11708104 Z M17.152832,29.245389 C17.152832,28.9717932 17.3756288,28.75 17.6440437,28.75 L22.9216205,28.75 C23.1929093,28.75 23.4128323,28.9657526 23.4128323,29.245389 L23.4128323,31.254611 C23.4128323,31.5282068 23.1900355,31.75 22.9216205,31.75 L17.6440437,31.75 C17.372755,31.75 17.152832,31.5342474 17.152832,31.254611 L17.152832,29.245389 Z" id="Combined-Shape-Copy-3"></path>
                        </g>
                    </g>
                </g>
            </g>
        </g>
    </g>
</svg>