<?xml version="1.0" encoding="UTF-8" standalone="no"?>
<svg width="41px" height="41px" viewBox="0 0 41 41" version="1.1" xmlns="http://www.w3.org/2000/svg" xmlns:xlink="http://www.w3.org/1999/xlink">
    <!-- Generator: Sketch 41.2 (35397) - http://www.bohemiancoding.com/sketch -->
    <title>Via</title>
    <desc>Created with Sketch.</desc>
    <defs>
        <polygon id="path-1" points="0 40 40 40 40 0 0 0"></polygon>
        <path d="M37.5,6.25 C37.5,2.89 29.25125,0.16375 19.06,0.16375 C8.8825,0.16375 0.625,2.89 0.625,6.25 C0.625,9.605 8.8825,12.33625 19.06,12.33625 C29.25125,12.33625 37.5,9.605 37.5,6.25" id="path-3"></path>
        <path d="M37.5,6.25 C37.5,2.89 29.25125,0.1625 19.06,0.1625 C8.8825,0.1625 0.625,2.89 0.625,6.25 C0.625,9.605 8.8825,12.335 19.06,12.335 C29.25125,12.335 37.5,9.605 37.5,6.25" id="path-5"></path>
    </defs>
    <g stroke="none" stroke-width="1" fill="none" fill-rule="evenodd">
        <g transform="translate(-1.368094, -1.762449)">
            <g transform="translate(1.156250, 1.642578)">
                <g transform="translate(0.332031, 0.678711)">
                    <g transform="translate(20.000000, 20.000000) scale(1, -1) translate(-20.000000, -20.000000) ">
                        <g>
                            <g>
                                <mask id="mask-2" fill="white">
                                    <use xlink:href="#path-1"></use>
                                </mask>
                                <g></g>
                                <g mask="url(#mask-2)">
                                    <g transform="translate(1.000000, 1.000000)">
                                        <g transform="translate(0.143750, 0.288125)">
                                            <path d="M37.5,9 C37.5,12.57875 29.24875,15.48 19.07125,15.48 C8.8725,15.48 0.4575,12.57875 0.4575,9 C0.4575,8.84125 0.51625,6.22125 0.51625,6.22125 C1.195,2.8575 9.325,0.21125 19.07125,0.21125 C28.79875,0.21125 36.76375,2.8575 37.44375,6.22125 C37.44375,6.22125 37.5,8.84125 37.5,9" fill="#008C40"></path>
                                        </g>
                                        <g transform="translate(0.080375, 3.436000)">
                                            <g>
                                                <mask id="mask-4" fill="white">
                                                    <use xlink:href="#path-3"></use>
                                                </mask>
                                                <use fill="#42AB3D" xlink:href="#path-3"></use>
                                                <path d="M37.563375,12.829625 C37.563375,16.409625 29.312125,19.309625 19.134625,19.309625 C8.935875,19.309625 0.520875,16.409625 0.520875,12.829625 C0.520875,12.670875 0.579625,10.053375 0.579625,10.053375 C1.258375,6.687125 9.388375,4.040875 19.134625,4.040875 C28.862125,4.040875 36.827125,6.687125 37.507125,10.053375 C37.507125,10.053375 37.563375,12.670875 37.563375,12.829625" fill="#DDDDDD" mask="url(#mask-4)"></path>
                                            </g>
                                        </g>
                                        <g transform="translate(0.143750, 7.265625)"></g>
                                        <g transform="translate(0.143750, 11.303125)">
                                            <path d="M37.5,9 C37.5,12.58 29.24875,15.48 19.07125,15.48 C8.8725,15.48 0.4575,12.58 0.4575,9 C0.4575,8.8425 0.51625,6.2225 0.51625,6.2225 C1.195,2.8575 9.325,0.21125 19.07125,0.21125 C28.79875,0.21125 36.76375,2.8575 37.44375,6.2225 C37.44375,6.2225 37.5,8.8425 37.5,9" fill="#5C5C5B"></path>
                                        </g>
                                        <g transform="translate(0.080375, 14.452250)">
                                            <g>
                                                <mask id="mask-6" fill="white">
                                                    <use xlink:href="#path-5"></use>
                                                </mask>
                                                <use fill="#8A8A89" xlink:href="#path-5"></use>
                                                <path d="M37.563375,12.829 C37.563375,16.409 29.312125,19.309 19.134625,19.309 C8.935875,19.309 0.520875,16.409 0.520875,12.829 C0.520875,12.6715 0.579625,10.05275 0.579625,10.05275 C1.258375,6.6865 9.388375,4.04025 19.134625,4.04025 C28.862125,4.04025 36.827125,6.6865 37.507125,10.05275 C37.507125,10.05275 37.563375,12.6715 37.563375,12.829" fill="#DCDCDC" mask="url(#mask-6)"></path>
                                            </g>
                                        </g>
                                        <g transform="translate(0.143750, 18.281250)"></g>
                                        <g transform="translate(0.143750, 22.031250)">
                                            <path d="M37.5,9 C37.5,12.58 29.24875,15.48 19.07125,15.48 C8.8725,15.48 0.4575,12.58 0.4575,9 C0.4575,8.8425 0.51625,6.22375 0.51625,6.22375 C1.195,2.85875 9.325,0.21125 19.07125,0.21125 C28.79875,0.21125 36.76375,2.85875 37.44375,6.22375 C37.44375,6.22375 37.5,8.8425 37.5,9 Z M21.884875,9.3155 C21.884875,8.5805 20.514875,7.983 18.823625,7.983 C17.133625,7.983 15.763625,8.5805 15.763625,9.3155 C15.763625,10.05175 17.133625,10.648 18.823625,10.648 C20.514875,10.648 21.884875,10.05175 21.884875,9.3155 Z" fill="#008C40"></path>
                                        </g>
                                        <g transform="translate(0.080375, 25.180375)">
                                            <path d="M37.5,6.25 C37.5,2.89 29.25125,0.16375 19.06,0.16375 C8.8825,0.16375 0.625,2.89 0.625,6.25 C0.625,9.605 8.8825,12.335 19.06,12.335 C29.25125,12.335 37.5,9.605 37.5,6.25 Z M21.94825,6.166375 C21.94825,5.431375 20.57825,4.833875 18.887,4.833875 C17.197,4.833875 15.827,5.431375 15.827,6.166375 C15.827,6.902625 17.197,7.498875 18.887,7.498875 C20.57825,7.498875 21.94825,6.902625 21.94825,6.166375 Z" fill="#42AB3D"></path>
                                        </g>
                                        <g transform="translate(15.778625, 29.846750)"></g>
                                    </g>
                                </g>
                            </g>
                        </g>
                    </g>
                </g>
            </g>
        </g>
    </g>
</svg>