<?xml version="1.0" encoding="UTF-8" standalone="no"?>
<svg width="41px" height="41px" viewBox="0 0 41 41" version="1.1" xmlns="http://www.w3.org/2000/svg" xmlns:xlink="http://www.w3.org/1999/xlink">
    <!-- Generator: Sketch 41.2 (35397) - http://www.bohemiancoding.com/sketch -->
    <title>WillConnect</title>
    <desc>Created with Sketch.</desc>
    <defs>
        <polygon id="path-1" points="0 40 40 40 40 0 0 0"></polygon>
    </defs>
    <g stroke="none" stroke-width="1" fill="none" fill-rule="evenodd">
        <g transform="translate(0.224413, 0.209231)">
            <g transform="translate(0.613903, 0.014160)">
                <g transform="translate(20.000000, 20.000000) scale(1, -1) translate(-20.000000, -20.000000) ">
                    <g>
                        <g>
                            <mask id="mask-2" fill="white">
                                <use xlink:href="#path-1"></use>
                            </mask>
                            <g></g>
                            <g mask="url(#mask-2)">
                                <g transform="translate(0.000000, -1.250000)">
                                    <g transform="translate(0.053750, 0.001250)">
                                        <path d="M40,21.25 C40,10.20375 31.045,1.24875 20,1.24875 C8.955,1.24875 0,10.20375 0,21.25 C0,32.295 8.955,41.25 20,41.25 C31.045,41.25 40,32.295 40,21.25" fill="#FFCD00"></path>
                                    </g>
                                    <g transform="translate(8.083500, 18.660875)">
                                        <path d="M2.5,5 C1.16625,5 0.09125,3.93375 0.09125,2.60125 C0.09125,1.26625 1.16625,0.18 2.5,0.18 L21.4175,0.18 C22.745,0.18 23.8475,1.26625 23.8475,2.60125 C23.8475,3.93375 22.745,5 21.4175,5" fill="#444443"></path>
                                    </g>
                                    <g transform="translate(17.641000, 9.283500)">
                                        <path d="M0,2.5 C0,1.1625 1.06625,0.08875 2.40125,0.08875 C3.73125,0.08875 4.8225,1.1625 4.8225,2.5 L4.8225,21.41375 C4.8225,22.745 3.73125,23.845 2.40125,23.845 C1.06625,23.845 0,22.745 0,21.41375" fill="#444443"></path>
                                    </g>
                                </g>
                            </g>
                        </g>
                    </g>
                </g>
            </g>
        </g>
    </g>
</svg>