<?xml version="1.0" encoding="UTF-8" standalone="no"?>
<svg width="40px" height="40px" viewBox="0 0 40 40" version="1.1" xmlns="http://www.w3.org/2000/svg" xmlns:xlink="http://www.w3.org/1999/xlink">
    <!-- Generator: Sketch 41.2 (35397) - http://www.bohemiancoding.com/sketch -->
    <title>WindowBoard</title>
    <desc>Created with Sketch.</desc>
    <defs></defs>
    <g stroke="none" stroke-width="1" fill="none" fill-rule="evenodd">
        <g>
            <g>
                <g>
                    <g transform="translate(0.000000, 20.000000)">
                        <rect fill="#2A7F26" x="0" y="0" width="40" height="20"></rect>
                        <g transform="translate(4.000000, 2.500000)" stroke="#FFFFFF" fill="#FFFFFF">
                            <path d="M25.9290853,2.32824284 L26.259848,2.32824284 C26.99022,2.32824284 27.1623363,2.41652704 27.4751391,3.05696153 L29.0017362,6.14690833 C29.1948059,6.54493537 29.3310023,6.84121114 29.3310023,7.2751504 C29.3310023,7.86470926 29.140926,8.19390456 28.8984664,8.69667556 L27.4571791,11.6295064 C27.0919931,12.3761812 26.9378368,12.3582251 26.1401149,12.3582251 L25.9290853,12.3582251 L25.9290853,2.32824284 Z M24.1959485,12.3582251 L23.5523831,12.3582251 C22.9791608,12.3582251 22.4942417,12.567713 22.4942417,13.2261036 C22.4942417,13.8515747 22.9626975,14.0939821 23.4999998,14.0939821 L26.3990378,14.0939821 C27.7535186,14.0939821 28.428514,13.5388392 29.0181995,12.3582251 L30.54779,9.30419053 C30.8920227,8.59342795 31.0686291,8.09065694 31.0686291,7.29161017 C31.0686291,6.59880369 30.8785527,6.0077485 30.56575,5.38377377 L28.9837763,2.22499523 C28.3791241,0.992009192 27.5948722,0.593982147 26.2418881,0.593982147 L23.3623068,0.593982147 C22.9088176,0.593982147 22.4942417,0.836389595 22.4942417,1.46186067 C22.4942417,2.08583539 22.9088176,2.32824284 23.3623068,2.32824284 L24.1959485,2.32824284 L24.1959485,12.3582251 Z" transform="translate(26.781435, 7.343982) scale(1, -1) translate(-26.781435, -7.343982) "></path>
                            <path d="M13.5206294,9.65045076 L17.3722144,9.65045076 C17.8585256,9.65045076 18.6231565,9.68486663 18.6231565,10.3791694 L18.6231565,11.5762433 C18.6231565,12.2705461 17.9108976,12.3573339 17.3901705,12.3573339 L13.5206294,12.3573339 L13.5206294,9.65045076 Z M13.5206294,1.45947315 C13.5206294,0.905826504 13.2767256,0.593090969 12.6527509,0.593090969 C12.0272798,0.593090969 11.7848724,0.905826504 11.7848724,1.45947315 L11.7848724,14.093091 L17.6161182,14.093091 C18.9882641,14.093091 20.3589136,13.1204685 20.3589136,11.5762433 L20.3589136,10.3791694 C20.3589136,8.74666002 19.0062202,7.91469372 17.6161182,7.91469372 L16.019521,7.91469372 L19.923478,2.32585532 C20.1135135,2.06698811 20.3589136,1.73779281 20.3589136,1.40710117 C20.3589136,0.922286269 19.9578939,0.593090969 19.473079,0.593090969 C19.1259276,0.593090969 18.8999799,0.799586203 18.7099444,1.07790587 L13.9201528,7.91469372 L13.5206294,7.91469372 L13.5206294,1.45947315 Z" transform="translate(16.071893, 7.343091) scale(1, -1) translate(-16.071893, -7.343091) "></path>
                            <path d="M2.11631922,2.32824284 L5.23918555,2.32824284 C6.48863135,2.32824284 7.21735003,2.88338583 7.21735003,4.20315971 C7.21735003,5.66059709 6.81932299,6.47610363 5.23918555,6.47610363 L2.11631922,6.47610363 L2.11631922,2.32824284 Z M2.11631922,8.21186067 L5.23918555,8.21186067 C6.48863135,8.21186067 7.21735003,8.76700365 7.21735003,10.0852812 C7.21735003,11.5427186 6.81932299,12.3582251 5.23918555,12.3582251 L2.11631922,12.3582251 L2.11631922,8.21186067 Z M0.380562182,14.0939821 L5.23918555,14.0939821 C7.79044913,14.0939821 8.95310707,12.5318008 8.95310707,10.0852812 C8.95310707,9.07973919 8.72715939,8.15948869 7.80840523,7.34398215 C8.79599113,6.40727188 8.95310707,5.48702138 8.95310707,4.20315971 C8.95310707,1.92871946 7.44329772,0.593982147 5.23918555,0.593982147 L0.380562182,0.593982147 L0.380562182,14.0939821 L0.380562182,14.0939821 Z" transform="translate(4.666835, 7.343982) scale(1, -1) translate(-4.666835, -7.343982) "></path>
                        </g>
                    </g>
                    <g>
                        <rect fill="#8C8C8C" x="0" y="0" width="40" height="20"></rect>
                        <g transform="translate(4.500000, 2.500000)" fill="#FFFFFF" stroke="#FFFFFF">
                            <path d="M1.94362522,2.78641034 C2.28981783,3.23691426 8.66954211,11.4609406 8.66954211,12.0520381 C8.66954211,13.35215 7.6808523,14.0127883 6.48505163,14.0127883 L2.66786238,14.0127883 C2.00722408,14.0127883 1.43577951,13.8903359 0.91422296,13.4564614 C0.445577943,13.0754983 0.0993853341,12.4511422 0.0993853341,11.8434154 C0.0993853341,11.2886002 0.410807507,10.8018141 1.01853427,10.8018141 C1.52194972,10.8018141 1.8333719,11.2175476 1.8333719,11.6861926 C1.8333719,12.2077492 2.11153539,12.27729 2.5983215,12.27729 L6.36259922,12.27729 C6.50168097,12.27729 6.93404379,12.3302016 6.93404379,12.0671556 C6.93404379,11.9295857 6.69216249,11.6695633 6.62262162,11.565252 L0.670829903,3.91424411 C0.306496196,3.4455991 0.0993853341,3.09789473 0.0993853341,2.49016797 C0.0993853341,1.79627099 0.428948604,1.20668532 1.01853427,0.825722277 C1.50380863,0.512788346 1.90291277,0.512788346 2.457728,0.512788346 L6.13734726,0.512788346 C6.7964738,0.512788346 7.35128903,0.651870093 7.85470448,1.08574467 C8.30672016,1.48484882 8.66954211,2.12734602 8.66954211,2.73356102 C8.66954211,3.28988801 8.39289037,3.74039193 7.76853427,3.74039193 C7.24697772,3.74039193 6.93404379,3.41082866 6.93404379,2.9255543 C6.93404379,2.33445688 6.64076271,2.24828667 6.10257682,2.24828667 L2.42446932,2.24828667 C2.2339878,2.24828667 1.8333719,2.19688689 1.8333719,2.49016797 C1.8333719,2.64739081 2.02536518,2.85601343 2.09339429,2.96032474"></path>
                            <path d="M14.9923052,14.0119538 C13.6905357,14.0119538 12.9451555,13.4918508 12.3887662,12.362441 L10.7936827,9.13598789 C10.497345,8.5463362 10.3249852,7.99145883 10.3249852,7.31411534 C10.3249852,6.55059199 10.4625706,6.08189449 10.8103139,5.3879198 L12.4069093,2.17658595 C12.996561,0.980651351 13.7434531,0.511953848 15.0784851,0.511953848 L18.0282555,0.511953848 C18.4092612,0.511953848 18.8976137,0.719087906 18.8976137,1.37980019 C18.8976137,2.00422622 18.4274043,2.24764654 18.0282555,2.24764654 L15.1314025,2.24764654 C14.3845104,2.24764654 14.2635562,2.3171952 13.933956,2.97639556 L12.4235405,5.99571463 C12.1982633,6.4629002 12.059166,6.77586918 12.059166,7.31411534 C12.059166,7.80095598 12.2164064,8.0942699 12.4235405,8.51156187 L13.8976697,11.5127378 C14.245413,12.2248556 14.4207966,12.2777731 15.1994393,12.2777731 L18.0282555,12.2777731 C18.4092612,12.2777731 18.8976137,12.4849071 18.8976137,13.1441075 C18.8976137,13.7685335 18.4274043,14.0119538 18.0282555,14.0119538 L14.952335,14.0041731"></path>
                            <path d="M29.0796424,8.14889904 L23.5349829,8.13037061 L23.5349829,13.1448723 C23.5349829,13.7011993 23.2931016,14.0126214 22.6687455,14.0126214 C22.0443894,14.0126214 21.8009963,13.7011993 21.8009963,13.1448723 L21.8009963,1.38037061 C21.8009963,0.825555377 22.0443894,0.512621446 22.6687455,0.512621446 C23.2931016,0.512621446 23.5349829,0.825555377 23.5349829,1.38037061 L23.5349829,6.39487229 L28.6371665,6.39487229 L28.6371665,1.38037061 C28.6371665,0.825555377 28.8790478,0.512621446 29.503404,0.512621446 C30.1277601,0.512621446 30.3711531,0.825555377 30.3711531,1.38037061 L30.3711531,13.1448723 C30.3711531,13.7011993 30.1277601,14.0126214 29.503404,14.0126214 C28.8790478,14.0126214 28.6371665,13.7011993 28.6371665,13.1448723 L28.6371665,8.13037061"></path>
                        </g>
                    </g>
                </g>
            </g>
        </g>
    </g>
</svg>