<?xml version="1.0" encoding="UTF-8" standalone="no"?>
<svg width="41px" height="41px" viewBox="0 0 41 41" version="1.1" xmlns="http://www.w3.org/2000/svg" xmlns:xlink="http://www.w3.org/1999/xlink">
    <!-- Generator: Sketch 41.2 (35397) - http://www.bohemiancoding.com/sketch -->
    <title>WindowSymbol</title>
    <desc>Created with Sketch.</desc>
    <defs>
        <polygon id="path-1" points="0 40 40 40 40 0 0 0"></polygon>
    </defs>
    <g stroke="none" stroke-width="1" fill="none" fill-rule="evenodd">
        <g transform="translate(0.452219, 0.237551)">
            <g>
                <g transform="translate(20.000000, 20.000000) scale(1, -1) translate(-20.000000, -20.000000) ">
                    <g>
                        <g>
                            <mask id="mask-2" fill="white">
                                <use xlink:href="#path-1"></use>
                            </mask>
                            <g></g>
                            <g mask="url(#mask-2)">
                                <g transform="translate(-0.250000, 1.250000)">
                                    <g transform="translate(0.075125, 8.043250)">
                                        <path d="M1.5,3.75 C0.765,3.75 0.175,3.06625 0.175,2.20875 C0.175,1.345 0.765,0.64875 1.5,0.64875 L12.49,0.64875 C13.22125,0.64875 13.825,1.345 13.825,2.20875 C13.825,3.06625 13.22125,3.75 12.49,3.75" fill="#3C3C3C"></path>
                                    </g>
                                    <g transform="translate(0.058000, 24.804125)">
                                        <path d="M1.5,3.75 C0.775,3.75 0.1925,3.06625 0.1925,2.20875 C0.1925,1.345 0.775,0.64875 1.5,0.64875 L12.84125,0.64875 C13.56375,0.64875 12.88625,1.43125 12.88625,2.29375 C12.88625,3.1525 13.56375,3.75 12.84125,3.75" fill="#3C3C3C"></path>
                                    </g>
                                    <g transform="translate(29.431125, 16.666875)">
                                        <path d="M1.5,3.75 C0.765,3.75 0.175,3.06625 0.175,2.20875 C0.175,1.345 0.765,0.6475 1.5,0.6475 L9.43375,0.6475 C10.16625,0.6475 10.76875,1.345 10.76875,2.20875 C10.76875,3.06625 10.16625,3.75 9.43375,3.75" fill="#3C3C3C"></path>
                                    </g>
                                    <g transform="translate(12.898875, 0.017750)">
                                        <path d="M0,37.5 L0,0 C0,0 17.37,1.91625 17.37,17.925 C17.37,35.7 3.3325,37.5 0,37.5 Z" stroke="#3C3C3C" stroke-width="2.5"></path>
                                    </g>
                                </g>
                            </g>
                        </g>
                    </g>
                </g>
            </g>
        </g>
    </g>
</svg>