<?xml version="1.0" encoding="UTF-8" standalone="no"?>
<!-- Created with Inkscape (http://www.inkscape.org/) -->

<svg
   xmlns:dc="http://purl.org/dc/elements/1.1/"
   xmlns:cc="http://creativecommons.org/ns#"
   xmlns:rdf="http://www.w3.org/1999/02/22-rdf-syntax-ns#"
   xmlns:svg="http://www.w3.org/2000/svg"
   xmlns="http://www.w3.org/2000/svg"
   xmlns:inkscape="http://www.inkscape.org/namespaces/inkscape"
   version="1.1"
   width="40"
   height="40"
   id="svg2"
   xml:space="preserve"><metadata
     id="metadata8"><rdf:RDF><cc:Work
         rdf:about=""><dc:format>image/svg+xml</dc:format><dc:type
           rdf:resource="http://purl.org/dc/dcmitype/StillImage" /></cc:Work></rdf:RDF></metadata><defs
     id="defs6"><clipPath
       id="clipPath16"><path
         d="M 0,32 32,32 32,0 0,0 0,32 z"
         inkscape:connector-curvature="0"
         id="path18" /></clipPath></defs><g
     transform="matrix(1.25,0,0,-1.25,0,40)"
     id="g10"><g
       id="g12"><g
         clip-path="url(#clipPath16)"
         id="g14"><g
           transform="translate(0.5376,13.1777)"
           id="g20"><path
             d="m 0,0 c -0.298,0 -0.538,-0.277 -0.538,-0.626 0,-0.35 0.24,-0.633 0.538,-0.633 l 4.461,0 c 0.297,0 0.542,0.283 0.542,0.633 C 5.003,-0.277 4.758,0 4.461,0"
             inkscape:connector-curvature="0"
             id="path22"
             style="fill:#444443;fill-opacity:1;fill-rule:nonzero;stroke:none" /></g><g
           transform="translate(0.5308,19.9819)"
           id="g24"><path
             d="m 0,0 c -0.294,0 -0.531,-0.278 -0.531,-0.626 0,-0.35 0.237,-0.633 0.531,-0.633 l 4.604,0 c 0.293,0 0.019,0.317 0.019,0.668 C 4.623,-0.243 4.897,0 4.604,0"
             inkscape:connector-curvature="0"
             id="path26"
             style="fill:#444443;fill-opacity:1;fill-rule:nonzero;stroke:none" /></g><g
           transform="translate(12.4541,16.6782)"
           id="g28"><path
             d="m 0,0 c -0.298,0 -0.537,-0.277 -0.537,-0.626 0,-0.35 0.239,-0.633 0.537,-0.633 l 3.221,0 c 0.297,0 0.542,0.283 0.542,0.633 C 3.763,-0.277 3.518,0 3.221,0"
             inkscape:connector-curvature="0"
             id="path30"
             style="fill:#444443;fill-opacity:1;fill-rule:nonzero;stroke:none" /></g><g
           transform="translate(5.1348,23.6201)"
           id="g32"><path
             d="m 0,0 0,-15.223 c 0,0 7.051,0.778 7.051,7.277 C 7.051,-0.731 1.352,0 0,0"
             inkscape:connector-curvature="0"
             id="path34"
             style="fill:#444443;fill-opacity:1;fill-rule:nonzero;stroke:none" /></g><g
           transform="translate(5.1348,23.6201)"
           id="g36"><path
             d="m 0,0 0,-15.223 c 0,0 7.051,0.778 7.051,7.277 C 7.051,-0.731 1.352,0 0,0 z"
             inkscape:connector-curvature="0"
             id="path38"
             style="fill:none;stroke:#444443;stroke-width:2;stroke-linecap:butt;stroke-linejoin:round;stroke-miterlimit:10;stroke-opacity:1;stroke-dasharray:none" /></g><g
           transform="translate(16.3213,13.1777)"
           id="g40"><path
             d="m 0,0 c -0.298,0 -0.538,-0.277 -0.538,-0.626 0,-0.35 0.24,-0.633 0.538,-0.633 l 4.461,0 c 0.298,0 0.542,0.283 0.542,0.633 C 5.003,-0.277 4.759,0 4.461,0"
             inkscape:connector-curvature="0"
             id="path42"
             style="fill:#444443;fill-opacity:1;fill-rule:nonzero;stroke:none" /></g><g
           transform="translate(16.3145,19.9819)"
           id="g44"><path
             d="m 0,0 c -0.294,0 -0.531,-0.278 -0.531,-0.626 0,-0.35 0.237,-0.633 0.531,-0.633 l 4.604,0 c 0.293,0 0.019,0.317 0.019,0.668 C 4.623,-0.243 4.897,0 4.604,0"
             inkscape:connector-curvature="0"
             id="path46"
             style="fill:#444443;fill-opacity:1;fill-rule:nonzero;stroke:none" /></g><g
           transform="translate(28.2383,16.6782)"
           id="g48"><path
             d="m 0,0 c -0.299,0 -0.537,-0.277 -0.537,-0.626 0,-0.35 0.238,-0.633 0.537,-0.633 l 3.221,0 c 0.297,0 0.541,0.283 0.541,0.633 C 3.762,-0.277 3.518,0 3.221,0"
             inkscape:connector-curvature="0"
             id="path50"
             style="fill:#444443;fill-opacity:1;fill-rule:nonzero;stroke:none" /></g><g
           transform="translate(20.918,23.6201)"
           id="g52"><path
             d="m 0,0 0,-15.223 c 0,0 7.051,0.778 7.051,7.277 C 7.051,-0.731 1.353,0 0,0"
             inkscape:connector-curvature="0"
             id="path54"
             style="fill:#444443;fill-opacity:1;fill-rule:nonzero;stroke:none" /></g><g
           transform="translate(20.918,23.6201)"
           id="g56"><path
             d="m 0,0 0,-15.223 c 0,0 7.051,0.778 7.051,7.277 C 7.051,-0.731 1.353,0 0,0 z"
             inkscape:connector-curvature="0"
             id="path58"
             style="fill:none;stroke:#444443;stroke-width:2;stroke-linecap:butt;stroke-linejoin:round;stroke-miterlimit:10;stroke-opacity:1;stroke-dasharray:none" /></g></g></g></g></svg>