<?xml version="1.0" encoding="UTF-8" standalone="no"?>
<svg width="41px" height="41px" viewBox="0 0 41 41" version="1.1" xmlns="http://www.w3.org/2000/svg" xmlns:xlink="http://www.w3.org/1999/xlink">
    <!-- Generator: Sketch 41.2 (35397) - http://www.bohemiancoding.com/sketch -->
    <title>Wire</title>
    <desc>Created with Sketch.</desc>
    <defs>
        <polygon id="path-1" points="0 40.3632812 40 40.3632812 40 0.36328125 20 0.36328125 0 0.36328125"></polygon>
    </defs>
    <g stroke="none" stroke-width="1" fill="none" fill-rule="evenodd">
        <g transform="translate(-0.007812, -0.576564)">
            <g transform="translate(0.730016, 0.907058)">
                <g transform="translate(20.000000, 20.500000) scale(1, -1) translate(-20.000000, -20.500000) ">
                    <g>
                        <g>
                            <mask id="mask-2" fill="white">
                                <use xlink:href="#path-1"></use>
                            </mask>
                            <g></g>
                            <g mask="url(#mask-2)">
                                <g transform="translate(1.250000, 1.250000)">
                                    <g transform="translate(23.678000, 5.891375)">
                                        <path d="M8.75,6.86328125 C9.33375,6.73953125 9.33375,6.08453125 8.7175,5.43578125 L4.295,0.82078125 C3.66375,0.17953125 2.975,0.36078125 2.73125,1.20578125 L0.995,7.36078125 C0.7475,8.20078125 1.03375,8.80453125 1.62625,8.64828125 L8.75,6.86328125 Z" fill="#8C8C8C"></path>
                                    </g>
                                    <g transform="translate(24.624000, 11.303750)">
                                        <path d="M0,2.86328125 L2.03375,2.34078125 L6.17375,1.29953125 L8.2275,0.74828125 L14.09125,24.0345312 C14.38125,25.1632812 13.6875,26.3182812 12.5475,26.5945312 L8.415,27.6332812 C7.2775,27.9170312 6.13,27.2232812 5.8375,26.0845312 L0,2.86328125 Z" fill="#8C8C8C"></path>
                                    </g>
                                    <g transform="translate(0.625000, 0.593250)" stroke-linecap="round">
                                        <path d="M0,0.36328125 L27.5,0.36328125" stroke="#000000" stroke-width="4" fill="#444443"></path>
                                    </g>
                                </g>
                            </g>
                        </g>
                    </g>
                </g>
            </g>
        </g>
    </g>
</svg>