<?xml version="1.0" encoding="UTF-8" standalone="no"?>
<svg width="41px" height="41px" viewBox="0 0 41 41" version="1.1" xmlns="http://www.w3.org/2000/svg" xmlns:xlink="http://www.w3.org/1999/xlink">
    <!-- Generator: Sketch 41.2 (35397) - http://www.bohemiancoding.com/sketch -->
    <title>WireCapFlat</title>
    <desc>Created with Sketch.</desc>
    <defs>
        <polygon id="path-1" points="0 40 40 40 40 0 0 0"></polygon>
    </defs>
    <g stroke="none" stroke-width="1" fill="none" fill-rule="evenodd">
        <g transform="translate(-0.219656, 0.055910)">
            <g transform="translate(0.835937, 0.590820)">
                <g transform="translate(20.000000, 20.000000) scale(1, -1) translate(-20.000000, -20.000000) ">
                    <g>
                        <g>
                            <mask id="mask-2" fill="white">
                                <use xlink:href="#path-1"></use>
                            </mask>
                            <g></g>
                            <g mask="url(#mask-2)">
                                <g transform="translate(-10.000000, 17.500000)">
                                    <g transform="translate(0.387625, 2.500000)">
                                        <path d="M30,0 L0,0" stroke="#444443" stroke-width="40"></path>
                                    </g>
                                    <g transform="translate(7.812500, 2.578125)">
                                        <path d="M28.75,0 L0.78125,0" stroke="#8A8A89" stroke-width="3.75"></path>
                                    </g>
                                    <g transform="translate(35.439500, 0.053750)">
                                        <path d="M5,2.5 C5,1.27875 4.01,0.2875 2.7875,0.2875 C1.56625,0.2875 0.57625,1.27875 0.57625,2.5 C0.57625,3.72125 1.56625,4.7125 2.7875,4.7125 C4.01,4.7125 5,3.72125 5,2.5" fill="#8A8A89"></path>
                                    </g>
                                    <g transform="translate(35.439500, 0.053750)">
                                        <path d="M5,2.5 C5,1.27875 4.01,0.2875 2.7875,0.2875 C1.56625,0.2875 0.57625,1.27875 0.57625,2.5 C0.57625,3.72125 1.56625,4.7125 2.7875,4.7125 C4.01,4.7125 5,3.72125 5,2.5 Z" stroke="#8A8A89" stroke-width="3.75"></path>
                                    </g>
                                </g>
                            </g>
                        </g>
                    </g>
                </g>
            </g>
        </g>
    </g>
</svg>