<?xml version="1.0" encoding="UTF-8" standalone="no"?>
<svg width="41px" height="41px" viewBox="0 0 41 41" version="1.1" xmlns="http://www.w3.org/2000/svg" xmlns:xlink="http://www.w3.org/1999/xlink">
    <!-- Generator: Sketch 41.2 (35397) - http://www.bohemiancoding.com/sketch -->
    <title>WireBend9</title>
    <desc>Created with Sketch.</desc>
    <defs>
        <polygon id="path-1" points="0 40 40 40 40 0 0 0"></polygon>
    </defs>
    <g stroke="none" stroke-width="1" fill="none" fill-rule="evenodd">
        <g transform="translate(0.084854, 0.209231)">
            <g transform="translate(0.683683, 0.014160)">
                <g transform="translate(20.000000, 20.000000) scale(1, -1) translate(-20.000000, -20.000000) ">
                    <g>
                        <g>
                            <mask id="mask-2" fill="white">
                                <use xlink:href="#path-1"></use>
                            </mask>
                            <g></g>
                            <g mask="url(#mask-2)">
                                <g transform="translate(1.250000, -1.250000)">
                                    <g transform="translate(0.609750, 6.992125)">
                                        <polyline stroke="#2B74B9" stroke-width="3.75" points="0 0 19.94 0 19.94 32.39875 36.22625 32.39875"></polyline>
                                    </g>
                                    <g transform="translate(14.686875, 0.297875)">
                                        <path d="M5,12.5 C8.15,13.04875 11.1775,10.94 11.73125,7.7475 C12.27375,4.6075 10.135,1.58625 6.9825,1.0375 C3.82125,0.49125 0.82125,2.62375 0.27875,5.76625 C-0.275,8.95625 1.83875,11.955 5,12.5" fill="#42AB3D"></path>
                                    </g>
                                </g>
                            </g>
                        </g>
                    </g>
                </g>
            </g>
        </g>
    </g>
</svg>