<?xml version="1.0" encoding="UTF-8" standalone="no"?>
<svg width="41px" height="41px" viewBox="0 0 41 41" version="1.1" xmlns="http://www.w3.org/2000/svg" xmlns:xlink="http://www.w3.org/1999/xlink">
    <!-- Generator: Sketch 41.2 (35397) - http://www.bohemiancoding.com/sketch -->
    <title>ZoomOut</title>
    <desc>Created with Sketch.</desc>
    <defs>
        <polygon id="path-1" points="0 40 40 40 40 0 0 0"></polygon>
    </defs>
    <g stroke="none" stroke-width="1" fill="none" fill-rule="evenodd">
        <g transform="translate(0.452219, 0.237551)">
            <g>
                <g transform="translate(20.000000, 20.000000) scale(1, -1) translate(-20.000000, -20.000000) ">
                    <g>
                        <g>
                            <mask id="mask-2" fill="white">
                                <use xlink:href="#path-1"></use>
                            </mask>
                            <g></g>
                            <g mask="url(#mask-2)">
                                <g transform="translate(-1.250000, -0.250000)">
                                    <g transform="translate(0.795250, 0.308875)">
                                        <path d="M17.5,9 C25.15125,9 31.34375,15.17875 31.34375,22.83875 C31.34375,30.49 25.15125,36.67875 17.5,36.67875 C9.85125,36.67875 3.665,30.49 3.665,22.83875 C3.665,15.17875 9.85125,9 17.5,9 M38.815,1.62625 C37.78375,0.6025 36.465,0.11875 35.12375,0.11875 C33.77875,0.11875 32.46125,0.6025 31.43625,1.62625 L25.21,7.7525 C22.90375,6.5825 20.2775,5.90375 17.5,5.90375 C8.14,5.90375 0.57,13.485 0.57,22.83875 C0.57,32.185 8.14,39.765 17.5,39.765 C26.84625,39.765 34.43875,32.185 34.43875,22.83875 C34.43875,20.05875 33.76375,17.43625 32.57375,15.1275 L38.815,9 C40.85,6.95125 40.85,3.67375 38.815,1.62625" fill="#3C3C3C"></path>
                                    </g>
                                    <g transform="translate(10.142875, 21.132625)">
                                        <path d="M13.75,0 L10.03125,0 L6.27625,0 L2.56375,0 C1.54,0 0.7075,0.85375 0.7075,1.87625 C0.7075,2.89 1.54,3.7325 2.56375,3.7325 L6.27625,3.7325 L10.03125,3.7325 L13.75,3.7325 C14.77375,3.7325 15.62875,2.89 15.62875,1.87625 C15.62875,0.85375 14.77375,0 13.75,0 L13.75,0" fill="#3C3C3C"></path>
                                    </g>
                                </g>
                            </g>
                        </g>
                    </g>
                </g>
            </g>
        </g>
    </g>
</svg>