<?xml version="1.0" encoding="UTF-8" standalone="no"?>
<svg width="41px" height="41px" viewBox="0 0 41 41" version="1.1" xmlns="http://www.w3.org/2000/svg" xmlns:xlink="http://www.w3.org/1999/xlink">
    <!-- Generator: Sketch 41.2 (35397) - http://www.bohemiancoding.com/sketch -->
    <title>ZoomIn</title>
    <desc>Created with Sketch.</desc>
    <defs>
        <polygon id="path-1" points="0 40 40 40 40 0 0 0"></polygon>
    </defs>
    <g stroke="none" stroke-width="1" fill="none" fill-rule="evenodd">
        <g transform="translate(0.452219, 0.237551)">
            <g>
                <g transform="translate(20.000000, 20.000000) scale(1, -1) translate(-20.000000, -20.000000) ">
                    <g>
                        <g>
                            <mask id="mask-2" fill="white">
                                <use xlink:href="#path-1"></use>
                            </mask>
                            <g></g>
                            <g mask="url(#mask-2)">
                                <g transform="translate(-1.250000, -0.250000)">
                                    <g transform="translate(0.795250, 0.308875)">
                                        <path d="M17.5,9 C25.15125,9 31.34375,15.17875 31.34375,22.83875 C31.34375,30.49 25.15125,36.67875 17.5,36.67875 C9.85125,36.67875 3.665,30.49 3.665,22.83875 C3.665,15.17875 9.85125,9 17.5,9 M38.815,1.62625 C37.78375,0.6025 36.465,0.11875 35.12375,0.11875 C33.77875,0.11875 32.46125,0.6025 31.43625,1.62625 L25.21,7.7525 C22.90375,6.5825 20.2775,5.90375 17.5,5.90375 C8.14,5.90375 0.57,13.485 0.57,22.83875 C0.57,32.185 8.14,39.765 17.5,39.765 C26.84625,39.765 34.43875,32.185 34.43875,22.83875 C34.43875,20.05875 33.76375,17.43625 32.57375,15.1275 L38.815,9 C40.85,6.95125 40.85,3.67375 38.815,1.62625" fill="#3C3C3C"></path>
                                    </g>
                                    <g transform="translate(10.172125, 14.701250)">
                                        <path d="M13.75,6.25 L10.03125,6.25 L10.03125,2.53625 C10.03125,1.4975 9.1775,0.64875 8.15,0.64875 C7.1575,0.64875 6.2775,1.4975 6.2775,2.53625 L6.2775,6.25 L2.56375,6.25 C1.54125,6.25 0.7075,7.10375 0.7075,8.12625 C0.7075,9.14 1.54125,9.9825 2.56375,9.9825 L6.2775,9.9825 L6.2775,13.7525 C6.2775,14.74625 7.1575,15.605 8.15,15.605 C9.1775,15.605 10.03125,14.74625 10.03125,13.7525 L10.03125,9.9825 L13.75,9.9825 C14.77375,9.9825 15.62875,9.14 15.62875,8.12625 C15.62875,7.10375 14.77375,6.25 13.75,6.25 L13.75,6.25" fill="#3C3C3C"></path>
                                    </g>
                                </g>
                            </g>
                        </g>
                    </g>
                </g>
            </g>
        </g>
    </g>
</svg>