<?xml version="1.0" encoding="UTF-8" standalone="no"?>
<svg width="227px" height="20px" viewBox="0 0 227 20" version="1.1" xmlns="http://www.w3.org/2000/svg" xmlns:xlink="http://www.w3.org/1999/xlink">
    <!-- Generator: Sketch 41.2 (35397) - http://www.bohemiancoding.com/sketch -->
    <title>Eagle_2017_logotype_OL_1line_no_year</title>
    <desc>Created with Sketch.</desc>
    <defs></defs>
    <g id="Symbols" stroke="none" stroke-width="1" fill="none" fill-rule="evenodd">
        <g id="branding" fill="#000000">
            <g id="Eagle_2017_logotype_OL_1line_no_year">
                <g>
                    <path d="M5.092,12.032 L11.268,12.032 L8.14,2.305 L5.092,12.032 Z M11.798,13.676 L4.562,13.676 L2.76,19.4 L0.719,19.4 L6.788,0.848 L9.519,0.848 L15.774,19.4 L13.706,19.4 L11.798,13.676 L11.798,13.676 Z" id="Fill-1"></path>
                    <path d="M32.466,0.848 L32.466,19.4 L30.69,19.4 L30.558,17.095 C29.524,18.313 27.747,19.719 24.859,19.719 C20.804,19.719 19.054,16.909 19.054,13.437 L19.054,0.848 L21.042,0.848 L21.042,13.517 C21.042,16.061 22.128,18.102 25.256,18.102 C28.013,18.102 29.55,16.538 30.478,15.08 L30.478,0.848 L32.466,0.848" id="Fill-2"></path>
                    <polyline id="Fill-3" points="49.685 2.49 44.145 2.49 44.145 19.4 42.157 19.4 42.157 2.49 36.644 2.49 36.644 0.848 49.685 0.848 49.685 2.49"></polyline>
                    <path d="M54.455,8.109 L54.455,12.271 C54.455,15.53 55.992,18.102 59.677,18.102 C63.361,18.102 64.898,15.53 64.898,12.271 L64.898,8.109 C64.898,4.69 63.361,2.146 59.677,2.146 C56.046,2.146 54.455,4.638 54.455,8.109 Z M66.886,8.136 L66.886,12.218 C66.886,16.379 64.659,19.719 59.677,19.719 C54.694,19.719 52.468,16.379 52.468,12.218 L52.468,8.136 C52.468,3.763 54.72,0.529 59.677,0.529 C64.686,0.529 66.886,3.842 66.886,8.136 L66.886,8.136 Z" id="Fill-4"></path>
                    <path d="M82.847,8.216 C82.847,4.664 80.964,2.464 77.228,2.464 L74.047,2.464 L74.047,17.783 L76.671,17.783 C80.726,17.783 82.847,15.61 82.847,11.555 L82.847,8.216 Z M84.834,8.269 L84.834,11.502 C84.834,16.353 81.972,19.4 76.671,19.4 L72.06,19.4 L72.06,0.848 L77.333,0.848 C82.316,0.848 84.834,3.815 84.834,8.269 L84.834,8.269 Z" id="Fill-5"></path>
                    <polyline id="Fill-6" points="91.913 2.464 91.913 9.037 99.388 9.037 99.388 10.681 91.913 10.681 91.913 17.783 99.97 17.783 99.97 19.4 89.925 19.4 89.925 0.848 99.97 0.848 99.97 2.464 91.913 2.464"></polyline>
                    <path d="M103.554,14.285 L105.462,14.285 C105.595,16.326 106.814,18.075 110.392,18.075 C113.97,18.075 114.87,16.3 114.87,14.921 L114.87,14.312 C114.87,12.43 113.757,11.74 110.975,10.84 L108.298,9.965 C105.435,9.011 104.269,7.818 104.269,5.565 L104.269,4.982 C104.269,2.994 105.966,0.529 110.472,0.529 C114.685,0.529 116.726,2.809 116.859,5.751 L114.95,5.751 C114.818,3.948 113.757,2.146 110.472,2.146 C107.265,2.146 106.283,3.763 106.283,4.982 L106.283,5.512 C106.283,6.891 107.105,7.686 109.65,8.507 L112.326,9.355 C115.321,10.31 116.859,11.555 116.859,14.179 L116.859,14.842 C116.859,17.333 115.03,19.719 110.392,19.719 C106.019,19.719 103.765,17.519 103.554,14.285" id="Fill-7"></path>
                    <path d="M135.335,17.996 L135.309,19.374 C135.044,19.507 134.673,19.586 134.222,19.586 C133.003,19.586 132.287,19.162 131.386,17.863 L126.351,10.495 L123.726,13.781 L123.726,19.4 L121.818,19.4 L121.818,0.848 L123.726,0.848 L123.726,11.078 L131.862,0.848 L134.036,0.848 L127.57,9.063 L133.109,17.068 C133.639,17.811 134.036,18.075 134.779,18.049 C134.99,18.049 135.202,18.022 135.335,17.996" id="Fill-8"></path>
                    <path d="M138.636,2.729 L138.636,2.576 C138.636,2.301 138.404,2.172 138.085,2.172 L137.698,2.172 L137.698,3.151 L138.048,3.151 C138.396,3.151 138.636,3.011 138.636,2.729 Z M139.118,4.222 C139.13,4.222 139.155,4.216 139.173,4.216 L139.173,4.461 C139.124,4.479 139.058,4.491 138.978,4.491 C138.812,4.485 138.685,4.424 138.593,4.24 L138.163,3.433 C138.128,3.438 138.097,3.438 138.06,3.438 L137.698,3.438 L137.698,4.461 L137.357,4.461 L137.357,1.891 L138.097,1.891 C138.636,1.891 138.978,2.166 138.978,2.563 L138.978,2.747 C138.978,3.054 138.8,3.273 138.501,3.372 L138.892,4.1 C138.941,4.191 139.003,4.222 139.118,4.222 Z M139.945,2.809 C139.945,1.964 139.222,1.242 138.071,1.242 C137.021,1.242 136.206,1.964 136.206,2.809 L136.206,3.481 C136.206,4.448 137.001,5.109 138.071,5.109 C139.222,5.109 139.945,4.448 139.945,3.481 L139.945,2.809 Z M140.263,2.814 L140.263,3.476 C140.263,4.596 139.4,5.391 138.066,5.391 C136.823,5.391 135.882,4.596 135.882,3.476 L135.882,2.814 C135.882,1.817 136.843,0.961 138.077,0.961 C139.4,0.961 140.263,1.817 140.263,2.814 L140.263,2.814 Z" id="Fill-9"></path>
                    <polyline id="Fill-10" points="154.175 3.418 154.175 8.692 161.093 8.692 161.093 11.264 154.175 11.264 154.175 16.803 161.675 16.803 161.675 19.4 150.835 19.4 150.835 0.848 161.675 0.848 161.675 3.418 154.175 3.418"></polyline>
                    <path d="M170.136,11.847 L175.013,11.847 L172.548,3.18 L170.136,11.847 Z M175.808,14.523 L169.394,14.523 L167.989,19.4 L164.622,19.4 L170.294,0.848 L174.827,0.848 L180.79,19.4 L177.345,19.4 L175.808,14.523 L175.808,14.523 Z" id="Fill-11"></path>
                    <path d="M197.196,9.144 L197.196,19.4 L194.573,19.4 L194.28,17.811 C193.142,18.923 191.552,19.745 189.484,19.745 C185.853,19.745 182.989,17.359 182.989,13.198 L182.989,8.03 C182.989,3.259 185.72,0.503 190.439,0.503 C194.652,0.503 196.878,2.861 197.144,5.963 L193.989,5.963 C193.857,4.293 192.904,3.073 190.517,3.073 C187.708,3.073 186.329,4.611 186.329,7.845 L186.329,13.119 C186.329,15.637 187.655,17.174 190.12,17.174 C191.868,17.174 193.167,16.405 193.989,15.239 L193.989,11.608 L190.068,11.608 L190.068,9.144 L197.196,9.144" id="Fill-12"></path>
                    <polyline id="Fill-13" points="212.56 16.697 212.56 19.4 201.695 19.4 201.695 0.848 205.032 0.848 205.032 16.697 212.56 16.697"></polyline>
                    <polyline id="Fill-14" points="219.261 3.418 219.261 8.692 226.179 8.692 226.179 11.264 219.261 11.264 219.261 16.803 226.761 16.803 226.761 19.4 215.921 19.4 215.921 0.848 226.761 0.848 226.761 3.418 219.261 3.418"></polyline>
                </g>
            </g>
        </g>
    </g>
</svg>